<svg xmlns="http://www.w3.org/2000/svg" width="298.721" height="37.71" viewBox="0 0 298.721 37.71">
  <g id="Advocate_horizontal_no_tagline" transform="translate(149.361 18.855)">
    <g id="Group_2651" data-name="Group 2651" transform="translate(-149.361 -18.855)">
      <g id="Group_2650" data-name="Group 2650">
        <g id="Group_2647" data-name="Group 2647">
          <path id="Path_248" data-name="Path 248" d="M119.275,57.333V45H106.4V57.333H93.177V70.108H106.4v12.6l12.875,0V70.108h13.134V57.333Z" transform="translate(-93.177 -44.996)" fill="#fff"/>
        </g>
        <g id="Group_2649" data-name="Group 2649" transform="translate(0 0)">
          <g id="Group_2648" data-name="Group 2648">
            <path id="Path_249" data-name="Path 249" d="M119.275,57.333V45H106.4V57.333H93.177V70.108H106.4v12.6h1.389c.038-.172.545-2.452,1.121-5.241.971-4.68,2.256-10.871,2.348-11.244.27-1.086-.141-1.619-1.221-1.619-.518,0-12.1-.807-12.388-.826-.456-.034-.43-.134.047-.168.236-.015,12.628-.831,12.865-.831l-.008-.009a1.956,1.956,0,0,0,1.994-1.587l.009.009c.19-.761,3.519-11.482,3.634-11.945.166-.66.366-.665.2.013-.115.464-1.872,11.435-1.992,11.917-.266,1.076-.024,1.6,1.025,1.6.53,0,11.791.831,12.141.831.952,0,.9.175-.041.175-1.161,0-11.893.818-12.309.818l.015.013a1.962,1.962,0,0,0-1.977,1.61h-.013c-.26,1.052-1.87,6.826-3.106,11.24-.782,2.8-1.24,5.083-1.274,5.241l10.417,0V70.108h13.135V57.333Z" transform="translate(-93.177 -44.996)" fill="#626eb2"/>
          </g>
        </g>
      </g>
      <path id="Path_250" data-name="Path 250" d="M118.726,67.8a2.843,2.843,0,0,1,.809.124l.309.09.107-.305c.982-2.8,1.9-5.192,2.729-7.1.743-.03,1.807-.045,3.172-.045,1.348,0,2.4.015,3.144.045l.383.9c.869,2.062,1.649,4.146,2.318,6.2l.092.279.29-.051a6.6,6.6,0,0,1,2.622,0l.626.115-.253-.584c-2.727-6.291-5.4-12.707-7.946-19.07l-.087-.215h-.974l-.087.207c-2.4,5.607-5.249,12.023-8.468,19.072l-.285.624.669-.153A4.3,4.3,0,0,1,118.726,67.8Zm4.71-9.067,2.416-5.6c1.138,2.656,1.824,4.288,2.041,4.855l.288.744Z" transform="translate(-71.898 -42.176)" fill="#1a1818"/>
      <path id="Path_251" data-name="Path 251" d="M132.525,68.94a5.153,5.153,0,0,0,4.35-2.1v1.938l.411-.089a4.549,4.549,0,0,1,2.16,0l.424.092-.013-.435c-.109-3.489-.164-7.443-.164-11.749,0-3.679.036-6.636.109-8.788l.015-.469-.45.132a3.319,3.319,0,0,1-2.147,0l-.443-.119.015.458c.055,1.579.083,3.245.083,4.951v1.913c-.011.692-.021,1.346-.025,1.964a5,5,0,0,0-4-1.8,5.61,5.61,0,0,0-4.439,2.022,7.83,7.83,0,0,0-1.711,5.251,7.373,7.373,0,0,0,1.594,4.949A5.316,5.316,0,0,0,132.525,68.94Zm.55-1.749a2.86,2.86,0,0,1-2.5-1.287,6.775,6.775,0,0,1-.939-3.884,6.953,6.953,0,0,1,1.018-4.082,3.149,3.149,0,0,1,2.727-1.361,2.972,2.972,0,0,1,2.55,1.227,6.155,6.155,0,0,1,.948,3.7,7.489,7.489,0,0,1-1.021,4.293A3.169,3.169,0,0,1,133.075,67.191Z" transform="translate(-63.514 -42.926)" fill="#1a1818"/>
      <path id="Path_252" data-name="Path 252" d="M139.683,64.917l.074.239h2.117l.075-.237c.65-2.043,2.473-6.385,5.413-12.9l.309-.686-.718.221a3.148,3.148,0,0,1-1.54,0l-.328-.089L145,51.79a51.983,51.983,0,0,1-3.709,9.686,75.881,75.881,0,0,1-3.722-9.686l-.081-.305-.311.06a7.029,7.029,0,0,1-2.392,0l-.645-.13.268.6C137.165,58.187,138.94,62.527,139.683,64.917Z" transform="translate(-56.938 -39.39)" fill="#1a1818"/>
      <path id="Path_253" data-name="Path 253" d="M142.932,63.454a7.127,7.127,0,0,0,9.818.015,6.962,6.962,0,0,0,1.934-5.1,7.033,7.033,0,0,0-1.9-5.089,7.1,7.1,0,0,0-9.821.011,7.648,7.648,0,0,0-.026,10.166Zm4.889-10.643c2.593,0,3.854,1.872,3.854,5.718,0,3.628-1.251,5.39-3.828,5.39s-3.826-1.826-3.826-5.581C144.021,54.619,145.263,52.811,147.821,52.811Z" transform="translate(-50.857 -39.409)" fill="#1a1818"/>
      <path id="Path_254" data-name="Path 254" d="M155.617,65.448a7.774,7.774,0,0,0,4.9-1.442l.16-.124-.034-.2a3.4,3.4,0,0,1-.023-.492c0-.16.017-.49.053-.989l.068-.922-.648.66A5.457,5.457,0,0,1,156.2,63.81a3.925,3.925,0,0,1-3.2-1.429,6.088,6.088,0,0,1-1.219-4.016,6.521,6.521,0,0,1,1.131-4.107,3.683,3.683,0,0,1,3.093-1.393,3.515,3.515,0,0,1,3.408,2.377l.417.937.224-1a13.03,13.03,0,0,1,.72-2.3l.124-.29-.281-.147A9.945,9.945,0,0,0,156,51.311a7.078,7.078,0,0,0-5.172,1.934,6.928,6.928,0,0,0-1.966,5.149,7.1,7.1,0,0,0,1.864,5.115A6.511,6.511,0,0,0,155.617,65.448Z" transform="translate(-43.911 -39.409)" fill="#1a1818"/>
      <path id="Path_255" data-name="Path 255" d="M159.744,65.41a5.709,5.709,0,0,0,3.894-1.521,1.689,1.689,0,0,0,1.7,1.274,8.946,8.946,0,0,0,2.345-.452l.3-.089-.226-1.125h-.744c-.541,0-.692-.2-.756-.339a3.351,3.351,0,0,1-.109-1.121l.109-5.449v-.328a5.386,5.386,0,0,0-1.1-3.717,4.641,4.641,0,0,0-3.566-1.218,7.014,7.014,0,0,0-4.633,1.615l-.115.1-.074,1.956h.752l.1-.151a3.684,3.684,0,0,1,3.253-1.768,2.526,2.526,0,0,1,2.079.748,4.013,4.013,0,0,1,.626,2.5v.4a4.559,4.559,0,0,1-1.453.494c-1.025.2-2.039.4-3.049.6-2.288.492-3.447,1.8-3.447,3.886C155.622,63.395,156.336,65.41,159.744,65.41Zm.9-1.8c-1.432,0-2.1-.72-2.1-2.265a1.986,1.986,0,0,1,1.157-1.917,15.767,15.767,0,0,1,3.811-1v3.132a1.261,1.261,0,0,1-.368.939A3.425,3.425,0,0,1,160.649,63.606Z" transform="translate(-37.93 -39.396)" fill="#1a1818"/>
      <path id="Path_256" data-name="Path 256" d="M163.72,55.087v.592c0,1.368-.023,2.9-.068,4.555s-.07,2.627-.07,2.9a4.568,4.568,0,0,0,.882,3.091,3.777,3.777,0,0,0,2.938,1,5.635,5.635,0,0,0,3.178-.989l.213-.141-.388-1.218-.352.168a4.555,4.555,0,0,1-1.772.543,1.625,1.625,0,0,1-1.5-.654,4.8,4.8,0,0,1-.467-2.461q0-1.34.055-3.445c.038-1.41.057-2.382.055-2.9l.043-1.063c.175-.006.4-.009.66-.009.686,0,1.527.038,2.5.109l.364.026V54.6a4.488,4.488,0,0,1,.077-.861l.085-.439-.447.036c-1.2.1-2.277.151-3.2.162V52.034q0-.407.083-2.15l.026-.586-.522.27a7.267,7.267,0,0,1-2.094.652l-.283.047v3.151c-.443-.009-.888-.034-1.327-.077l-.373-.036v.375a1.132,1.132,0,0,0,.028.219v.219c0,.139-.019.364-.053.677l-.047.42.422-.047A12.951,12.951,0,0,1,163.72,55.087Z" transform="translate(-32.334 -41.19)" fill="#1a1818"/>
      <path id="Path_257" data-name="Path 257" d="M173.143,65.435A8.1,8.1,0,0,0,178,63.807l.138-.1v-.5c0-.213.019-.552.055-1.016l.072-.916-.65.65a5.524,5.524,0,0,1-3.981,1.764c-2.782,0-4.178-1.655-4.263-5.132H178.8v-.339a2.727,2.727,0,0,1,.026-.3v-.3a6.613,6.613,0,0,0-1.53-4.659,5.631,5.631,0,0,0-4.32-1.657,6.319,6.319,0,0,0-4.825,1.958,7.283,7.283,0,0,0-1.819,5.153,7.029,7.029,0,0,0,1.89,5.06A6.561,6.561,0,0,0,173.143,65.435Zm-.3-12.611a2.734,2.734,0,0,1,2.264,1.012,4.589,4.589,0,0,1,.85,2.953v.126H169.39a5.3,5.3,0,0,1,1.059-2.95A3,3,0,0,1,172.841,52.825Z" transform="translate(-28.454 -39.422)" fill="#1a1818"/>
      <path id="Path_258" data-name="Path 258" d="M178.434,67.9l.433-.089a7.194,7.194,0,0,1,2.42,0l.443.085-.041-.45c-.09-.952-.136-3.705-.136-8.189v-.961c3.558-.1,7.115-.1,10.643,0v.961c0,3.144-.073,5.9-.219,8.2l-.028.441.433-.087a7.509,7.509,0,0,1,2.473,0l.42.079-.017-.426c-.145-3.854-.219-7.245-.219-10.076,0-3.129.064-6.029.19-8.617l.023-.435-.428.085a7.508,7.508,0,0,1-2.473,0l-.439-.085.036.445c.164,2.011.247,4.344.247,6.936v.733q-1.874.025-5.309.024-3.458,0-5.334-.024v-.733c0-3.715.055-6.044.162-6.921l.057-.467-.46.092a7.193,7.193,0,0,1-2.42,0l-.433-.083.032.439c.126,1.8.19,4.7.19,8.611,0,4.482-.074,7.869-.219,10.066Z" transform="translate(-17.748 -42.049)" fill="#1a1818"/>
      <path id="Path_259" data-name="Path 259" d="M195.4,65.435a8.1,8.1,0,0,0,4.861-1.628l.139-.1v-.5c0-.213.017-.552.055-1.016l.072-.916-.65.65a5.528,5.528,0,0,1-3.982,1.764c-2.782,0-4.178-1.655-4.261-5.132h9.426v-.339a2.889,2.889,0,0,1,.028-.3v-.3a6.621,6.621,0,0,0-1.53-4.659,5.631,5.631,0,0,0-4.32-1.657,6.323,6.323,0,0,0-4.827,1.958,7.281,7.281,0,0,0-1.817,5.153,7.021,7.021,0,0,0,1.89,5.06A6.554,6.554,0,0,0,195.4,65.435Zm-.3-12.611a2.739,2.739,0,0,1,2.264,1.012,4.589,4.589,0,0,1,.85,2.953v.126h-6.565a5.3,5.3,0,0,1,1.057-2.95A3,3,0,0,1,195.1,52.825Z" transform="translate(-8.757 -39.422)" fill="#1a1818"/>
      <path id="Path_260" data-name="Path 260" d="M199.782,65.41a5.709,5.709,0,0,0,3.894-1.521,1.689,1.689,0,0,0,1.7,1.274,8.945,8.945,0,0,0,2.345-.452l.3-.089L207.79,63.5h-.744c-.541,0-.692-.2-.756-.339a3.318,3.318,0,0,1-.111-1.121l.111-5.449v-.328a5.386,5.386,0,0,0-1.1-3.717,4.643,4.643,0,0,0-3.568-1.218,7.012,7.012,0,0,0-4.631,1.615l-.115.1-.075,1.956h.754l.1-.151a3.684,3.684,0,0,1,3.253-1.768,2.526,2.526,0,0,1,2.079.748,4.012,4.012,0,0,1,.626,2.5v.4a4.578,4.578,0,0,1-1.453.494c-1.025.2-2.039.4-3.049.6-2.288.492-3.447,1.8-3.447,3.886C195.66,63.395,196.374,65.41,199.782,65.41Zm.9-1.8c-1.432,0-2.1-.72-2.1-2.265a1.986,1.986,0,0,1,1.157-1.917,15.771,15.771,0,0,1,3.809-1v3.132a1.26,1.26,0,0,1-.366.939A3.428,3.428,0,0,1,200.687,63.606Z" transform="translate(-2.508 -39.396)" fill="#1a1818"/>
      <path id="Path_261" data-name="Path 261" d="M203.088,53.111v7.183c0,4.075-.036,6.761-.109,7.984l-.025.418.415-.062a7.6,7.6,0,0,1,2.179,0l.405.055-.019-.407c-.092-1.977-.138-6.048-.138-12.1,0-3.924.045-6.759.136-8.425l.021-.358h-3l.026.364C203.052,48.763,203.088,50.562,203.088,53.111Z" transform="translate(3.944 -42.871)" fill="#1a1818"/>
      <path id="Path_262" data-name="Path 262" d="M206.955,55.087v.592c0,1.359-.023,2.891-.066,4.555s-.07,2.627-.07,2.9a4.509,4.509,0,0,0,.88,3.091,3.784,3.784,0,0,0,2.94,1,5.639,5.639,0,0,0,3.178-.989l.213-.141-.39-1.218-.351.168a4.562,4.562,0,0,1-1.773.543,1.624,1.624,0,0,1-1.495-.654,4.778,4.778,0,0,1-.467-2.461q0-1.34.055-3.445c.038-1.41.055-2.382.055-2.9l.041-1.063c.177-.006.4-.009.66-.009.688,0,1.528.038,2.5.109l.366.026V54.6a4.4,4.4,0,0,1,.077-.861l.085-.439-.447.036c-1.2.1-2.277.151-3.2.162V52.034q0-.407.081-2.15l.028-.586-.524.27a7.267,7.267,0,0,1-2.094.652l-.283.047v3.151c-.441-.009-.888-.034-1.327-.077l-.371-.036v.375a1,1,0,0,0,.028.219v.219c0,.139-.021.366-.055.677l-.043.42.418-.047A13.011,13.011,0,0,1,206.955,55.087Z" transform="translate(5.921 -41.19)" fill="#1a1818"/>
      <path id="Path_263" data-name="Path 263" d="M210.34,68.751l.424-.1a4.356,4.356,0,0,1,2.1,0l.428.092-.017-.437c-.055-1.453-.081-2.529-.081-3.195V63.17c0-3.059.277-4.243.511-4.7a2.749,2.749,0,0,1,2.629-1.625,2.337,2.337,0,0,1,2.13.929,6.153,6.153,0,0,1,.656,3.255c0,1.506-.043,3.888-.136,7.283l-.011.432.424-.09a4.346,4.346,0,0,1,2.1,0l.428.1-.013-.439c-.07-2.294-.109-3.818-.109-4.184,0-.581.013-1.342.041-2.279s.04-1.593.04-1.943c0-3.342-1.634-5.108-4.725-5.108a5.052,5.052,0,0,0-3.928,1.856q-.037-1.877-.036-2.778c0-2.049.038-4.1.109-6.1l.015-.411-.407.062a7.568,7.568,0,0,1-1.072.106,9.723,9.723,0,0,1-1.106-.106l-.394-.053.009.4c.092,3.579.138,7.036.138,10.27,0,2.708-.045,6.165-.138,10.274Z" transform="translate(10.48 -42.898)" fill="#1a1818"/>
      <path id="Path_264" data-name="Path 264" d="M231.685,68.3a10.653,10.653,0,0,0,6.342-1.6l.123-.09.251-2.759-.624.5a9.094,9.094,0,0,1-5.763,2.2,6,6,0,0,1-4.906-2.162,9.333,9.333,0,0,1-1.826-6.12,9.458,9.458,0,0,1,1.839-6.227,6.224,6.224,0,0,1,5.085-2.164,5.808,5.808,0,0,1,5.251,2.778l.626.969V52.471a8.536,8.536,0,0,1,.422-2.531l.087-.275-.258-.128a13.388,13.388,0,0,0-6.044-1.353,10.6,10.6,0,0,0-7.652,2.755,9.75,9.75,0,0,0-2.859,7.317,10.122,10.122,0,0,0,2.608,7.407A9.843,9.843,0,0,0,231.685,68.3Z" transform="translate(20.599 -42.176)" fill="#1a1818"/>
      <path id="Path_265" data-name="Path 265" d="M235.317,65.41a5.7,5.7,0,0,0,3.892-1.521,1.693,1.693,0,0,0,1.7,1.274,8.945,8.945,0,0,0,2.345-.452l.3-.089-.224-1.125h-.744c-.541,0-.692-.2-.756-.339a3.339,3.339,0,0,1-.111-1.121l.109-5.449v-.328a5.392,5.392,0,0,0-1.1-3.717,4.649,4.649,0,0,0-3.568-1.218,7.009,7.009,0,0,0-4.631,1.615l-.115.1-.075,1.956h.754l.1-.151a3.682,3.682,0,0,1,3.253-1.768,2.522,2.522,0,0,1,2.077.748,4,4,0,0,1,.626,2.5v.4a4.538,4.538,0,0,1-1.453.494c-1.022.2-2.034.4-3.048.6-2.288.492-3.447,1.8-3.447,3.886C231.2,63.395,231.909,65.41,235.317,65.41Zm.9-1.8c-1.432,0-2.1-.72-2.1-2.265a1.983,1.983,0,0,1,1.157-1.917,15.718,15.718,0,0,1,3.809-1v3.132a1.259,1.259,0,0,1-.366.939A3.429,3.429,0,0,1,236.22,63.606Z" transform="translate(28.931 -39.396)" fill="#1a1818"/>
      <path id="Path_266" data-name="Path 266" d="M238.648,55.816c0,3.773-.045,6.781-.136,8.941l-.017.433.424-.087a5.188,5.188,0,0,1,2.081,0l.439.092-.028-.449c-.092-1.353-.136-3.153-.136-5.5a9.54,9.54,0,0,1,.635-4.031,1.958,1.958,0,0,1,1.9-1.153,2.727,2.727,0,0,1,1.17.3l.166.081.539-.332v-.19a11.11,11.11,0,0,1,.132-1.994l.066-.337-.339-.062a7.047,7.047,0,0,0-1.1-.141,3.762,3.762,0,0,0-3.057,2.088c.026-.575.07-1.108.132-1.6l.058-.473-.467.1a5.941,5.941,0,0,1-2.19,0l-.447-.09.041.454C238.6,52.844,238.648,54.174,238.648,55.816Z" transform="translate(35.37 -39.345)" fill="#1a1818"/>
      <path id="Path_267" data-name="Path 267" d="M249.313,65.435a8.1,8.1,0,0,0,4.861-1.628l.139-.1v-.5c0-.213.017-.552.055-1.016l.072-.916-.65.65a5.528,5.528,0,0,1-3.982,1.764c-2.782,0-4.178-1.655-4.261-5.132h9.426v-.339a2.7,2.7,0,0,1,.026-.3v-.3a6.613,6.613,0,0,0-1.53-4.659,5.624,5.624,0,0,0-4.318-1.657,6.32,6.32,0,0,0-4.827,1.958,7.275,7.275,0,0,0-1.817,5.153,7.025,7.025,0,0,0,1.889,5.06A6.561,6.561,0,0,0,249.313,65.435Zm-.3-12.611a2.739,2.739,0,0,1,2.264,1.012,4.586,4.586,0,0,1,.848,2.953v.126h-6.563a5.3,5.3,0,0,1,1.057-2.95A3,3,0,0,1,249.013,52.825Z" transform="translate(38.937 -39.422)" fill="#1a1818"/>
      <path id="Path_268" data-name="Path 268" d="M250.632,53.289h.492l.45.933h.366l-.475-.98a.565.565,0,0,0,.368-.183.546.546,0,0,0,.134-.373c0-.392-.294-.588-.876-.588h-.778v2.124h.32Zm0-.974h.4c.405,0,.609.13.609.392a.3.3,0,0,1-.143.29.983.983,0,0,1-.466.081h-.4Z" transform="translate(45.844 -38.712)" fill="#1a1818"/>
      <path id="Path_269" data-name="Path 269" d="M251.559,55.389a1.816,1.816,0,0,0,1.314-.55,1.744,1.744,0,0,0,.53-1.295,1.828,1.828,0,0,0-1.843-1.845,1.733,1.733,0,0,0-1.291.531,1.813,1.813,0,0,0-.55,1.314,1.777,1.777,0,0,0,.541,1.3A1.757,1.757,0,0,0,251.559,55.389Zm-1.146-3.016a1.549,1.549,0,0,1,1.146-.473,1.625,1.625,0,0,1,1.643,1.651,1.542,1.542,0,0,1-.467,1.146,1.63,1.63,0,0,1-1.176.492,1.657,1.657,0,0,1-1.64-1.642A1.62,1.62,0,0,1,250.413,52.374Z" transform="translate(45.319 -39.065)" fill="#1a1818"/>
    </g>
  </g>
</svg>
