<?xml version="1.0" encoding="UTF-8" standalone="no"?>
<!-- Created with Inkscape (http://www.inkscape.org/) -->

<svg
   width="161.19272mm"
   height="87.2379mm"
   viewBox="0 0 161.19272 87.2379"
   version="1.1"
   id="svg1"
   inkscape:version="1.4.2 (ebf0e940d0, 2025-05-08)"
   sodipodi:docname="Logo of Elisabeth-TweeSteden Ziekenhuis (2024).svg"
   xmlns:inkscape="http://www.inkscape.org/namespaces/inkscape"
   xmlns:sodipodi="http://sodipodi.sourceforge.net/DTD/sodipodi-0.dtd"
   xmlns="http://www.w3.org/2000/svg"
   xmlns:svg="http://www.w3.org/2000/svg">
  <sodipodi:namedview
     id="namedview1"
     pagecolor="#ffffff"
     bordercolor="#000000"
     borderopacity="0.25"
     inkscape:showpageshadow="2"
     inkscape:pageopacity="0.0"
     inkscape:pagecheckerboard="0"
     inkscape:deskcolor="#d1d1d1"
     inkscape:document-units="mm"
     inkscape:zoom="0.71268238"
     inkscape:cx="282.73465"
     inkscape:cy="362.0126"
     inkscape:window-width="1920"
     inkscape:window-height="1011"
     inkscape:window-x="0"
     inkscape:window-y="0"
     inkscape:window-maximized="1"
     inkscape:current-layer="layer1" />
  <defs
     id="defs1">
    <clipPath
       id="clip-path">
      <rect
         id="Rectangle_4493"
         data-name="Rectangle 4493"
         width="240.203"
         height="130"
         fill="none"
         x="0"
         y="0" />
    </clipPath>
  </defs>
  <g
     inkscape:label="Layer 1"
     inkscape:groupmode="layer"
     id="layer1"
     transform="translate(-29.897917,-52.652084)">
    <g
       id="Group_11275"
       data-name="Group 11275"
       transform="matrix(0.67106594,0,0,0.67106594,3.0552794,38.559028)">
      <g
         id="Group_11003"
         data-name="Group 11003"
         transform="translate(40,21)">
        <g
           id="Group_10687"
           data-name="Group 10687">
          <rect
             id="Rectangle_4491"
             data-name="Rectangle 4491"
             width="17.405001"
             height="17.406"
             transform="translate(152.154,25.868)"
             fill="#41b8ee"
             x="0"
             y="0" />
          <rect
             id="Rectangle_4492"
             data-name="Rectangle 4492"
             width="17.405001"
             height="17.406"
             transform="translate(117.256,25.868)"
             fill="#dd1334"
             x="0"
             y="0" />
          <g
             id="Group_10686"
             data-name="Group 10686">
            <g
               id="Group_10685"
               data-name="Group 10685"
               clip-path="url(#clip-path)">
              <path
                 id="Path_68422"
                 data-name="Path 68422"
                 d="m 43.333,60.747 a 25.654,25.654 0 0 0 -15.154,4.786 25.144,25.144 0 0 0 -9.3,12.493 H 67.79 A 25.164,25.164 0 0 0 58.49,65.533 25.65,25.65 0 0 0 43.337,60.747 M 18.875,95.439 a 24.424,24.424 0 0 0 9.3,12.362 25.183,25.183 0 0 0 15.154,4.918 h 33.5 V 130 h -33.5 A 42.073,42.073 0 0 1 12.624,117.371 42.072,42.072 0 0 1 0,86.666 41.633,41.633 0 0 1 12.628,56.1 41.857,41.857 0 0 1 43.333,43.334 41.424,41.424 0 0 1 73.9,56.1 q 1.62,1.6 3.034,3.292 V 0 h 17.28 v 43.2 0.074 h 23.062 V 60.689 H 94.22 v 0.058 25.919 a 24.771,24.771 0 0 0 7.71,18.345 24.767,24.767 0 0 0 18.345,7.709 h 17.279 V 130 H 120.272 A 43.226,43.226 0 0 1 77.757,95.469 Z"
                 transform="translate(-0.019,0.001)"
                 fill="#00273e" />
            </g>
          </g>
          <path
             id="Path_68423"
             data-name="Path 68423"
             d="m 148.413,37.3 v 17.41 h 35.951 l -51.974,69.253 h 86.667 V 106.681 H 167.082 L 219.056,37.3 Z"
             transform="translate(21.147,5.964)"
             fill="#00273e" />
          <rect
             id="Rectangle_4494"
             data-name="Rectangle 4494"
             width="17.405001"
             height="17.405001"
             transform="translate(152.149,60.674)"
             fill="#00273e"
             x="0"
             y="0" />
          <rect
             id="Rectangle_4495"
             data-name="Rectangle 4495"
             width="17.405001"
             height="17.405001"
             transform="translate(117.258,60.674)"
             fill="#a4c047"
             x="0"
             y="0" />
        </g>
      </g>
    </g>
  </g>
</svg>
