<svg xmlns="http://www.w3.org/2000/svg" version="1.1" id="Layer_1" viewBox="19.46 5.38 577.18 150.29" xml:space="preserve">
<style type="text/css">
	.st0{fill:#BE202E;}
	.st1{fill:#FBB040;}
	.st2{fill:#BE1E2D;}
	.st3{fill:#262262;}
	.st4{fill:#EE2A7B;}
	.st5{fill:#39B54A;}
	.st6{fill:#046938;}
	.st7{fill:#1C75BC;}
	.st8{fill:#8DC63F;}
	.st9{fill:#8CC541;}
	.st10{fill:#D7DE27;}
	.st11{fill:#2A3B8F;}
	.st12{fill:#27AAE1;}
	.st13{fill:#EB2D7C;}
	.st14{fill:#652F8F;}
	.st15{fill:#009444;}
	.st16{fill:#F7941D;}
	.st17{fill:#153C5C;}
	.st18{fill:#51C5D6;}
	.st19{fill:#0E79BF;}
	.st20{fill:#4BA947;}
</style>
<g>
	<g id="XMLID_00000035490180834304974630000004910279258759603079_">
		<path id="XMLID_00000098921307416428279580000008205074402378995640_" d="M236.77,77.63c-1.19,0-2-0.44-2.41-1.34l-22.01-47.51    l0.35,56.28c0,1.91-0.89,2.86-2.68,2.86h-0.71c-1.79,0-2.68-0.95-2.68-2.86V23.67c0-1.91,0.89-2.86,2.68-2.86h3.76    c1.19,0,2.03,0.51,2.5,1.52l21.93,47.87l21.92-47.87c0.48-1.01,1.31-1.52,2.5-1.52h3.76c1.79,0,2.69,0.96,2.69,2.86v61.38    c0,1.91-0.89,2.86-2.69,2.86h-0.71c-1.79,0-2.68-0.95-2.68-2.86l0.36-56.28l-22.02,47.51c-0.42,0.9-1.22,1.34-2.41,1.34H236.77z" />
		<path id="XMLID_00000003092453286080902400000009565864626983851708_" d="M305.49,88.81c-5.49,0-9.87-0.97-13.15-2.91    c-3.28-1.94-5.8-4.52-7.56-7.74c-1.76-3.22-2.93-6.89-3.49-11c-0.57-4.11-0.85-8.38-0.85-12.79c0-4.35,0.28-8.6,0.85-12.75    c0.57-4.15,1.73-7.83,3.49-11.05c1.76-3.22,4.28-5.8,7.56-7.74c3.28-1.94,7.67-2.91,13.15-2.91c5.49,0,9.87,0.97,13.15,2.91    s5.8,4.52,7.56,7.74c1.76,3.22,2.92,6.9,3.49,11.05c0.57,4.15,0.85,8.39,0.85,12.75c0,4.42-0.28,8.68-0.85,12.79    c-0.57,4.12-1.73,7.79-3.49,11c-1.76,3.22-4.28,5.81-7.56,7.74C315.37,87.84,310.98,88.81,305.49,88.81z M305.49,83.17    c4.06,0,7.31-0.74,9.76-2.24c2.45-1.49,4.33-3.53,5.64-6.13c1.31-2.59,2.18-5.64,2.59-9.13c0.42-3.49,0.62-7.26,0.62-11.32    c0-3.99-0.21-7.75-0.62-11.28c-0.42-3.52-1.28-6.58-2.59-9.17c-1.31-2.59-3.19-4.64-5.64-6.13c-2.45-1.49-5.7-2.24-9.76-2.24    c-4.06,0-7.31,0.75-9.75,2.24c-2.45,1.49-4.33,3.53-5.64,6.13c-1.31,2.59-2.18,5.65-2.59,9.17c-0.42,3.52-0.63,7.28-0.63,11.28    c0,4.06,0.21,7.83,0.63,11.32c0.42,3.49,1.28,6.53,2.59,9.13s3.19,4.64,5.64,6.13C298.18,82.43,301.44,83.17,305.49,83.17z" />
		<path id="XMLID_00000013891830336893349010000007885773972354850491_" d="M383.25,75.48l-0.18-51.81c0-1.91,0.89-2.86,2.69-2.86    h0.71c1.79,0,2.68,0.96,2.68,2.86v61.38c0,1.91-0.89,2.86-2.68,2.86h-0.45c-0.6,0-1.04-0.1-1.34-0.32    c-0.3-0.21-0.6-0.52-0.89-0.94l-35.26-53.42l0.18,51.81c0,1.91-0.89,2.86-2.68,2.86h-0.71c-1.79,0-2.68-0.95-2.68-2.86V23.67    c0-1.91,0.89-2.86,2.68-2.86h0.44c0.6,0,1.05,0.11,1.34,0.32c0.3,0.21,0.6,0.52,0.89,0.94L383.25,75.48z" />
		<path id="XMLID_00000102524724226238781490000014608042180555131545_" d="M439.81,20.81c1.79,0,2.68,0.87,2.68,2.59v0.45    c0,1.73-0.89,2.59-2.68,2.59h-15.84v58.61c0,1.91-0.89,2.86-2.68,2.86h-0.71c-1.79,0-2.69-0.95-2.69-2.86V26.44h-15.84    c-1.79,0-2.68-0.87-2.68-2.59V23.4c0-1.73,0.89-2.59,2.68-2.59H439.81z" />
		<path id="XMLID_00000143612926060525613730000017029535917737821360_" d="M475.43,63.85L463.8,30.11l-11.64,33.73l-1.88,5.28    l-5.64,16.38c-0.24,0.65-0.58,1.22-1.03,1.7c-0.44,0.48-1.15,0.71-2.1,0.71h-1.79c-0.66,0-1.21-0.24-1.66-0.71    c-0.44-0.48-0.49-1.19-0.13-2.15l22.81-62.82c0.3-0.83,0.62-1.43,0.98-1.79c0.36-0.35,0.95-0.53,1.79-0.53h0.53    c0.84,0,1.43,0.18,1.79,0.53c0.35,0.36,0.68,0.96,0.98,1.79l22.82,62.82c0.36,0.96,0.32,1.67-0.14,2.15    c-0.44,0.48-1,0.71-1.65,0.71h-1.79c-0.96,0-1.65-0.24-2.1-0.71c-0.44-0.48-0.79-1.05-1.03-1.7l-5.64-16.38" />
		<path id="XMLID_00000132777027897751711770000004377563977379926407_" d="M537.28,52.66c1.79,0,2.68,0.96,2.68,2.86v27.65    c0,0.54-0.16,1.09-0.5,1.65c-0.33,0.57-0.94,1-1.83,1.3c-1.49,0.53-3.74,1.12-6.75,1.74c-3.02,0.62-6.85,0.94-11.5,0.94    c-5.01,0-9.2-0.89-12.57-2.68c-3.37-1.79-6.08-4.25-8.14-7.38c-2.06-3.13-3.52-6.79-4.38-10.96c-0.87-4.17-1.3-8.65-1.3-13.42    c0-4.77,0.43-9.24,1.3-13.42c0.86-4.17,2.32-7.83,4.38-10.96c2.06-3.13,4.77-5.59,8.14-7.38c3.37-1.79,7.56-2.68,12.57-2.68    c4.29,0,7.74,0.32,10.34,0.94c2.59,0.62,4.64,1.21,6.13,1.74c0.89,0.3,1.51,0.73,1.83,1.3c0.33,0.57,0.5,1.11,0.5,1.65v1.52    c0,0.6-0.22,1.11-0.68,1.52c-0.44,0.42-1.15,0.44-2.1,0.09c-1.79-0.72-3.98-1.42-6.58-2.1s-5.74-1.03-9.44-1.03    c-3.7,0-6.82,0.75-9.35,2.24c-2.54,1.49-4.58,3.53-6.13,6.13c-1.55,2.59-2.69,5.64-3.4,9.13c-0.71,3.49-1.07,7.26-1.07,11.32    s0.36,7.83,1.07,11.32c0.71,3.49,1.85,6.53,3.4,9.13c1.55,2.59,3.59,4.64,6.13,6.13c2.53,1.5,5.65,2.24,9.35,2.24    c1.25,0,2.57-0.03,3.94-0.09c1.37-0.06,2.71-0.16,4.02-0.31c1.31-0.15,2.54-0.36,3.67-0.63c1.14-0.27,2.09-0.58,2.86-0.94V58.3    h-11.36c-1.79,0-2.69-0.87-2.69-2.59v-0.45c0-1.73,0.89-2.59,2.69-2.59H537.28z" />
		<path id="XMLID_00000130610858753522195560000000784480465150381723_" d="M559.46,50.16h27.02c1.79,0,2.68,0.86,2.68,2.59v0.44    c0,1.73-0.89,2.59-2.68,2.59h-27.02v26.49h30.16c1.79,0,2.68,0.87,2.68,2.59v0.45c0,1.73-0.89,2.59-2.68,2.59h-33.55    c-1.79,0-2.68-0.95-2.68-2.86V23.67c0-1.91,0.89-2.86,2.68-2.86h33.55c1.79,0,2.68,0.87,2.68,2.59v0.45    c0,1.73-0.89,2.59-2.68,2.59h-30.16V50.16z" />
	</g>
	<g id="XMLID_00000114073710430491129200000012906508148976847288_">
		<g>
			<path d="M235.43,126.05h-24.55v21.47c0,1.4-0.66,2.1-1.97,2.1h-0.53c-1.31,0-1.97-0.7-1.97-2.1v-45.03c0-1.4,0.66-2.1,1.97-2.1     h0.53c1.31,0,1.97,0.7,1.97,2.1v19.43h24.55v-19.43c0-1.4,0.66-2.1,1.97-2.1h0.52c1.31,0,1.97,0.7,1.97,2.1v45.03     c0,1.4-0.66,2.1-1.97,2.1h-0.52c-1.31,0-1.97-0.7-1.97-2.1V126.05z" />
			<path d="M260.57,150.28c-2.76,0-5.03-0.45-6.83-1.35c-1.8-0.9-3.21-2.11-4.23-3.64c-1.03-1.53-1.74-3.34-2.13-5.42     c-0.39-2.08-0.59-4.3-0.59-6.66c0-2.36,0.2-4.58,0.59-6.66c0.39-2.08,1.1-3.88,2.13-5.42c1.03-1.53,2.44-2.75,4.23-3.64     c1.79-0.9,4.07-1.35,6.83-1.35c2.8,0,5.02,0.45,6.66,1.35c1.64,0.9,2.89,2.11,3.74,3.64c0.85,1.53,1.41,3.34,1.67,5.42     c0.26,2.08,0.39,4.3,0.39,6.66c0,1.4-0.66,2.1-1.97,2.1h-19.69c0.04,1.44,0.21,2.82,0.49,4.14c0.28,1.31,0.76,2.47,1.41,3.48     c0.66,1.01,1.57,1.81,2.76,2.4c1.18,0.59,2.69,0.89,4.53,0.89c2.49,0,4.41-0.14,5.74-0.43c1.33-0.28,2.44-0.58,3.31-0.89     c0.7-0.22,1.21-0.21,1.54,0.03c0.33,0.24,0.49,0.58,0.49,1.02v1.05c0,0.35-0.09,0.68-0.26,0.98c-0.18,0.31-0.57,0.57-1.18,0.79     c-1.05,0.39-2.39,0.74-4,1.05C264.59,150.12,262.71,150.28,260.57,150.28z M260.57,120.21c-1.93,0-3.47,0.32-4.63,0.95     c-1.16,0.63-2.07,1.48-2.72,2.53c-0.66,1.05-1.12,2.25-1.38,3.61c-0.26,1.36-0.42,2.78-0.46,4.27h17.07     c0-1.44-0.05-2.86-0.16-4.23s-0.43-2.59-0.95-3.64c-0.52-1.05-1.31-1.89-2.36-2.53C263.91,120.53,262.45,120.21,260.57,120.21z" />
			<path d="M290.83,120.21c-1.97,0-3.6,0.13-4.89,0.39c-1.29,0.26-2.26,0.5-2.92,0.72c-0.83,0.22-1.44,0.18-1.84-0.13     c-0.39-0.31-0.59-0.68-0.59-1.12v-0.79c0-0.35,0.09-0.69,0.26-1.02c0.17-0.33,0.57-0.6,1.18-0.82c0.87-0.35,2.1-0.66,3.68-0.92     c1.58-0.26,3.28-0.39,5.12-0.39c2.45,0,4.47,0.26,6.07,0.79c1.6,0.53,2.87,1.28,3.81,2.26c0.94,0.98,1.6,2.16,1.97,3.51     c0.37,1.36,0.56,2.85,0.56,4.46v20.94c0,1.01-0.46,1.51-1.38,1.51h-0.13c-0.48,0-0.82-0.12-1.02-0.36     c-0.2-0.24-0.41-0.65-0.62-1.21l-0.39-1.05c-1.49,1.09-3.1,1.91-4.82,2.46c-1.73,0.55-3.43,0.82-5.09,0.82     c-2.15,0-3.95-0.3-5.42-0.89c-1.47-0.59-2.65-1.37-3.54-2.33c-0.9-0.96-1.54-2.08-1.94-3.35c-0.39-1.27-0.59-2.6-0.59-4     c0-1.4,0.21-2.69,0.62-3.87c0.42-1.18,1.08-2.22,2-3.12c0.92-0.9,2.12-1.63,3.61-2.2c1.49-0.57,3.3-0.92,5.45-1.05l8.66-0.53     v-1.84c0-1.18-0.12-2.21-0.36-3.09c-0.24-0.87-0.66-1.6-1.25-2.17c-0.59-0.57-1.39-0.99-2.4-1.25     C293.63,120.34,292.36,120.21,290.83,120.21z M289.65,133.01c-2.36,0.22-4.07,0.91-5.12,2.07c-1.05,1.16-1.58,2.7-1.58,4.63     c0,0.74,0.07,1.5,0.2,2.26c0.13,0.77,0.44,1.47,0.92,2.1c0.48,0.63,1.18,1.15,2.1,1.54c0.92,0.39,2.17,0.59,3.74,0.59     c1.79,0,3.35-0.23,4.66-0.69c1.31-0.46,2.67-1.1,4.07-1.94v-11.42L289.65,133.01z" />
			<path d="M315.64,144.7c0,0.61,0.11,1.04,0.33,1.28c0.22,0.24,0.61,0.41,1.18,0.49c1.01,0.13,1.51,0.66,1.51,1.58v0.39     c0,1.05-0.61,1.58-1.84,1.58c-2.06,0-3.51-0.52-4.37-1.58c-0.85-1.05-1.28-2.32-1.28-3.81v-42.14c0-1.4,0.66-2.1,1.97-2.1h0.53     c1.31,0,1.97,0.7,1.97,2.1V144.7z" />
			<path d="M322.47,120.41c-0.35,0-0.68-0.09-0.99-0.26c-0.31-0.17-0.46-0.48-0.46-0.92c0-0.39,0.12-0.69,0.36-0.89     c0.24-0.2,0.6-0.36,1.08-0.49l5.38-1.25v-7.81c0-0.96,0.46-1.57,1.38-1.84l1.18-0.33c0.57-0.17,1.05-0.13,1.44,0.13     c0.39,0.26,0.59,0.63,0.59,1.12v8.93h8.4c1.18,0,1.77,0.57,1.77,1.71v0.2c0,1.14-0.59,1.71-1.77,1.71h-8.4v20.42     c0,2.01,0.53,3.46,1.58,4.33c1.05,0.88,2.63,1.31,4.73,1.31h1.25c0.48,0,0.86,0.14,1.15,0.43c0.28,0.29,0.43,0.65,0.43,1.08v0.66     c0,0.92-0.55,1.44-1.64,1.58c-0.13,0.04-0.37,0.07-0.72,0.07c-0.35,0-0.64,0-0.85,0c-1.36,0-2.67-0.16-3.94-0.49     c-1.27-0.33-2.39-0.85-3.35-1.58c-0.96-0.72-1.74-1.64-2.33-2.76c-0.59-1.12-0.89-2.48-0.89-4.1v-20.94H322.47z" />
			<path d="M347.22,102.49c0-1.4,0.66-2.1,1.97-2.1h0.66c1.31,0,1.97,0.7,1.97,2.1v16.34c2.8-1.79,5.75-2.69,8.86-2.69     c3.94,0,6.78,0.85,8.53,2.56c1.75,1.71,2.63,4.14,2.63,7.29v21.53c0,1.4-0.66,2.1-1.97,2.1h-0.66c-1.31,0-1.97-0.7-1.97-2.1     v-21.73c0-2.14-0.58-3.61-1.74-4.4c-1.16-0.79-2.77-1.18-4.83-1.18c-2.14,0-3.86,0.19-5.15,0.56c-1.29,0.37-2.53,0.89-3.71,1.54     v25.21c0,1.4-0.66,2.1-1.97,2.1h-0.66c-1.31,0-1.97-0.7-1.97-2.1V102.49z" />
		</g>
	</g>
	<g>
		<g>
			<path d="M173.44,141.01c0.23,0,0.35,0.11,0.35,0.34v0.06c0,0.22-0.12,0.34-0.35,0.34h-2.05v7.58c0,0.25-0.11,0.37-0.35,0.37     h-0.09c-0.23,0-0.35-0.12-0.35-0.37v-7.58h-2.05c-0.23,0-0.35-0.11-0.35-0.34v-0.06c0-0.22,0.12-0.34,0.35-0.34H173.44z" />
			<path d="M179.01,148.36c-0.15,0-0.26-0.06-0.31-0.17l-2.85-6.14l0.05,7.28c0,0.25-0.12,0.37-0.35,0.37h-0.09     c-0.23,0-0.35-0.12-0.35-0.37v-7.94c0-0.25,0.11-0.37,0.35-0.37h0.49c0.15,0,0.26,0.07,0.32,0.2l2.84,6.19l2.84-6.19     c0.06-0.13,0.17-0.2,0.32-0.2h0.49c0.23,0,0.35,0.12,0.35,0.37v7.94c0,0.25-0.12,0.37-0.35,0.37h-0.09     c-0.23,0-0.35-0.12-0.35-0.37l0.05-7.28l-2.85,6.14c-0.05,0.11-0.16,0.17-0.31,0.17H179.01z" />
		</g>
		<g>
			<polygon class="st0" points="162.57,36.85 153.9,36.85 153.9,19.5 93.19,19.5 93.19,10.83 162.57,10.83    " />
			<polygon class="st1" points="32.49,36.85 23.82,36.85 23.82,10.83 93.19,10.83 93.19,19.5 32.49,19.5    " />
			<polygon class="st2" points="93.19,149.71 23.82,149.71 23.82,123.57 32.49,123.57 32.49,140.91 93.19,140.91    " />
			<polygon class="st3" points="162.57,149.71 93.19,149.71 93.19,140.91 153.9,140.91 153.9,123.57 162.57,123.57    " />
			<rect x="153.9" y="36.85" class="st4" width="8.67" height="86.72" />
			<rect x="40.85" y="54.19" class="st5" width="8.99" height="52.03" />
			<polygon class="st6" points="93.19,132.67 40.85,132.67 40.85,106.22 49.83,106.22 49.83,123.57 93.19,123.57    " />
			<polygon class="st7" points="145.23,132.67 93.19,132.67 93.19,123.57 136.56,123.57 136.56,106.22 145.23,106.22    " />
			<rect x="136.56" y="54.19" class="st8" width="8.67" height="52.03" />
			<polygon class="st9" points="145.23,54.19 136.56,54.19 136.56,36.85 93.19,36.85 93.19,28.17 145.23,28.17    " />
			<polygon class="st10" points="49.83,54.19 40.85,54.19 40.85,28.17 93.19,28.17 93.19,36.85 49.83,36.85    " />
			<rect x="119.21" y="62.86" class="st11" width="8.67" height="34.69" />
			<polygon class="st7" points="127.88,62.86 119.21,62.86 119.21,54.19 93.19,54.19 93.19,45.52 127.88,45.52    " />
			<polygon class="st12" points="67.18,62.86 58.51,62.86 58.51,45.52 93.19,45.52 93.19,54.19 67.18,54.19    " />
			<rect x="58.51" y="62.86" class="st13" width="8.67" height="34.69" />
			<polygon class="st14" points="93.19,114.9 58.51,114.9 58.51,97.55 67.18,97.55 67.18,106.22 93.19,106.22    " />
			<polygon class="st15" points="127.88,114.9 93.19,114.9 93.19,106.22 119.21,106.22 119.21,97.55 127.88,97.55    " />
			<rect x="23.82" y="36.85" class="st16" width="8.67" height="86.72" />
		</g>
	</g>
</g>
</svg>