<svg width="225" height="76" viewBox="0 0 225 76" xmlns="http://www.w3.org/2000/svg"><title>logo</title><g fill="none" fill-rule="evenodd"><path d="M92.96 27.8c-.5 0-.643.286-.643.927v17.051c0 1.926.715 2.568 1.86 2.782 1.001.286 2.002.428 2.002 1.284 0 .643-.286.999-1.43.999-1.216 0-2.003-.286-5.65-.286-3.862 0-4.863.286-6.294.286-.787 0-1.216-.286-1.216-1.213 0-.428.358-.855 1.145-.998 2.646-.5 2.932-1.142 2.932-3.14V10.18c0-1.927-.644-2.14-1.43-2.497-1.931-.571-2.432-.285-2.432-1.141 0-.571.286-.928 1.502-.928s3.72.286 5.793.286c2.074 0 4.077-.286 5.435-.286 1.288 0 1.574.286 1.574.998 0 1-.715 1-2.074 1.285-.93.142-1.717.642-1.717 1.997v14.768c0 .642.144.856.715.856h12.73c.573 0 .644-.214.644-.999V10.393c0-1.855-.643-2.355-1.788-2.711-1.359-.214-2.145-.285-2.145-.999 0-.784.643-1.07 1.645-1.07 1.43 0 2.932.286 5.721.286 3.719 0 4.721-.286 6.08-.286.857 0 1.215.286 1.215.856 0 .856-1.001 1.213-2.574 1.427-.93.142-1.574.713-1.574 1.57v36.24c0 1.64.5 2.497 1.287 2.854 1.288.642 2.647.5 2.647 1.427 0 .5-.215.856-1.36.856-1.215 0-3.003-.286-5.864-.286-3.004 0-4.005.286-5.15.286-1.573 0-1.93-.286-1.93-1.142 0-.57.429-.785 2.002-1.14 1.43-.287 1.788-1 1.788-2.854v-17.05c0-.571-.143-.857-.643-.857H92.96" fill="#005030"></path><path d="M121.5 29.227c0 1.355.214 1.712 2.717 1.712 1.36 0 2.503-.143 3.505-.286 2.145-.285 3.574-.856 3.933-1.426.572-.57.787-1.356.787-2.996 0-4.21-1.932-6.778-4.72-6.778-3.649 0-6.223 4.709-6.223 9.702v.072zm1.644 3.924c-1.287 0-1.788.499-1.788 1.64 0 7.348 3.146 13.056 8.082 13.056 3.289 0 5.22-1.64 6.222-4.067.572-1.284.715-2.211 1.287-2.211.43 0 .715.214.715.998 0 1.07-.358 2.355-1 3.568-1.431 3.067-4.721 5.35-8.798 5.35-8.081 0-12.945-6.849-12.945-16.337 0-11.771 6.008-17.763 12.874-17.763 5.721 0 9.869 4.28 9.869 11.486 0 3.994-.07 4.28-2.074 4.28h-12.444zM145.53 43.852c0 2.64 1.36 3.995 3.362 3.995 1.501 0 2.79-.857 4.147-2.14 1.289-1.285 1.789-2.212 1.789-3.996v-7.918c0-.785-.143-.928-.5-.928-.359 0-.716.071-1.645.785-1.502.999-2.933 2.212-4.006 3.425-1.93 1.996-3.147 4.208-3.147 6.705v.072zm9.298-20.047c0-3.353-.93-4.423-2.79-4.423-3.29 0-4.863 2.64-5.864 6.135-.5 1.57-1.359 2.783-2.36 3.567-.859.642-1.788 1-2.861 1-1.43 0-2.002-.5-2.002-1.927 0-4.21 6.079-10.772 14.804-10.772 2.718 0 4.434.356 5.507 1.284 1.144.855 1.574 2.282 1.574 4.208V44.28c0 1.783.642 2.568 1.858 2.568 1.289 0 1.86-.642 2.146-1.355.358-.714.5-1.427 1.001-1.427.43 0 .573.356.573 1.213 0 1.57-2.003 5.992-6.366 5.992-3.075 0-3.861-2.425-4.362-3.852-.215-.57-.43-.999-.787-.999-.571 0-1.645 1.355-3.362 2.64-1.572 1.283-3.718 2.425-6.579 2.425-3.29 0-5.721-2.283-5.721-6.492 0-3.567 1.931-6.064 7.938-9.987 2.432-1.57 4.077-2.569 5.222-3.425 1.858-1.142 2.43-1.855 2.43-3.424v-4.352z" fill="#005030"></path><path d="M168.702 7.325c0-1.355-.357-1.783-1.93-2.068-1.288-.286-1.646-.357-1.646-1 0-.57.287-.784 1.288-1.07 2.86-.927 4.792-1.64 6.078-2.211 1.002-.5 1.36-.714 1.717-.714.429 0 .5.428.5 1.427v44.66c0 1.783.716 1.925 2.933 2.497.787.214 1.43.356 1.43 1.07 0 .57-.5.927-1.072.927-.716 0-1.502-.286-6.223-.286-4.362 0-5.149.286-5.936.286-.5 0-1.143-.214-1.143-.928 0-.57.643-.927 1.215-1.07 2.432-.357 2.79-1.07 2.79-2.924V7.325M186.51 44.422c0 2.64.858 3.211 2.217 3.211 1.288 0 2.074-1 2.647-1.926.572-.928.93-1.855 1.573-1.855.43 0 .715.214.715.713 0 .928-1.43 6.85-7.151 6.85-1.931 0-3.434-.5-4.435-1.571-1.072-1.07-1.573-2.782-1.573-5.065v-22.9c0-.642-.358-.928-.787-1.07-.428-.072-1.143-.072-1.645-.072-.644-.071-1.144-.143-1.144-.927 0-.428.43-.928 1.359-1.855 2.002-1.783 3.647-3.71 6.15-7.99.716-1.285.858-1.713 1.36-1.713.428 0 .715.143.715 1.57v6.92c0 1.141.357 1.57 1.43 1.57h3.218c1.216 0 1.573.213 1.573 1.212 0 1.07-.285 1.498-1.716 1.498h-3.362c-.857 0-1.143.286-1.143 1.427v21.973" fill="#005030"></path><path d="M196.81 7.325c0-1.355-.358-1.783-1.932-2.068-1.286-.286-1.715-.357-1.715-1 0-.713.5-.784 2.001-1.212 3.004-.999 4.578-1.712 5.578-2.14.93-.429 1.216-.643 1.645-.643.287 0 .43.286.43 1.285v20.332c0 .428.143.642.43.642.286 0 .571-.214.857-.428 1.574-1.427 4.291-4.281 8.368-4.281 4.506 0 8.082 2.925 8.295 8.561v19.548c0 2.068.788 2.854 2.218 3.067 1.217.214 1.645.428 1.645 1 0 .64-.5.855-1.073.855-.358 0-2.289-.286-5.65-.286-3.789 0-4.576.286-5.364.286-.857 0-1.286-.214-1.286-.928 0-.57.43-.713 1.144-.855 1.644-.358 2.36-.857 2.36-2.427V27.157c0-1.711-.43-3.067-1.217-3.994-.93-1.142-2.287-1.712-4.076-1.712-1.645 0-3.361.713-4.649 1.783-1.216 1.07-2.002 2.497-2.002 4.066v18.977c0 1.57.786 2.355 2.789 2.783 1.073.214 1.287.428 1.287.927 0 .642-.5.856-1.072.856-.573 0-1.288-.286-6.223-.286-3.718 0-4.362.286-5.435.286-.571 0-1.073-.286-1.073-.928 0-.57.502-.927 1.145-1.07 2.145-.213 2.574-.927 2.574-3.495V7.325M1.354 64.772h2.383v6.826c0 1.014.377 1.638 1.337 1.638.959 0 1.336-.624 1.336-1.638v-6.826h2.383v6.449c0 2.507-1.439 3.84-3.72 3.84-2.28 0-3.72-1.333-3.72-3.84v-6.45M9.548 64.772h2.789l2.95 7.015h.029v-7.015h2.092v10.116h-2.82l-2.92-7.32h-.028v7.32H9.548V64.772M18.264 74.888h2.383V64.772h-2.383zM20.996 64.772h2.557l1.787 7.376h.03l1.83-7.376h2.44l-3.065 10.116h-2.557l-3.022-10.116M29.988 64.772h5.856v1.768h-3.56v2.26h3.385v1.768h-3.385v2.552h3.734v1.768h-6.03V64.772M38.807 69.091h.742c.915 0 1.394-.61 1.394-1.334 0-.42-.13-1.275-1.41-1.275h-.726v2.609zm-2.295-4.32h3.72c1.67 0 3.094.74 3.094 2.61 0 .42-.058 2.087-2.02 2.478v.029c.741.087 1.032.492 1.41 1.695l1.046 3.305h-2.5l-.784-2.71c-.391-1.377-.712-1.377-1.583-1.377v4.087h-2.383V64.772zM49.631 66.83c-.567-.29-1.366-.522-2.005-.522-.77 0-1.351.348-1.351 1.101 0 1.841 3.995.986 3.995 4.58 0 1.913-1.525 3.073-3.545 3.073-1.235 0-2.295-.29-2.732-.42l.132-1.972c.712.275 1.336.623 2.223.623.755 0 1.482-.377 1.482-1.203 0-1.956-3.996-1-3.996-4.608 0-.304.116-2.884 3.516-2.884.93 0 1.51.16 2.382.347l-.1 1.884M50.895 74.888h2.382V64.772h-2.382zM55.95 66.598h-2.208v-1.826h6.8v1.826h-2.209v8.29H55.95v-8.29" fill="#005030"></path><path fill="#005030" d="M63.156 71.018l-3.08-6.246h2.732l1.627 3.912 1.51-3.912h2.674l-3.08 6.29v3.826h-2.383v-3.87M75.36 73.35c1.38 0 1.875-1.578 1.875-3.52s-.495-3.522-1.875-3.522-1.86 1.58-1.86 3.522c0 1.942.48 3.52 1.86 3.52zm0-8.752c2.92 0 4.315 2.26 4.315 5.232 0 2.971-1.395 5.232-4.315 5.232-2.92 0-4.301-2.261-4.301-5.232 0-2.972 1.38-5.232 4.301-5.232zM80.285 64.772h5.623v1.768H82.58v2.347h3.196v1.768H82.58v4.233h-2.295V64.772M97.879 66.887h-.03l-2.28 8h-1.57l-2.194-8h-.028v8h-2.18V64.773h3.589l1.641 6.507h.03l1.772-6.507h3.429v10.116h-2.18v-8M101.249 74.888h2.382V64.772h-2.382zM108.615 66.714h-.03l-1.206 4.203h2.28l-1.044-4.203zm1.51 5.913h-3.181l-.698 2.26h-2.295l3.37-10.115h2.615l3.255 10.116h-2.441l-.624-2.26zM121.792 66.887h-.029l-2.281 8h-1.57l-2.193-8h-.03v8h-2.179V64.773h3.59l1.64 6.507h.03l1.772-6.507h3.429v10.116h-2.179v-8M125.162 74.888h2.382V64.772h-2.382zM137.22 70.684h-2.47v4.204h-2.382V64.772h2.382V68.8h2.47v-4.028h2.383v10.116h-2.382v-4.204M140.504 64.772h5.854v1.768h-3.559v2.26h3.385v1.768H142.8v2.552h3.734v1.768h-6.03V64.772"></path><path d="M151.11 66.714h-.03l-1.206 4.203h2.282l-1.047-4.203zm1.51 5.913h-3.182l-.697 2.26h-2.295l3.37-10.115h2.616l3.254 10.116h-2.442l-.623-2.26zM156.005 64.772h2.382v8.29h3.357v1.826h-5.74V64.772M162.876 66.598h-2.209v-1.826h6.8v1.826h-2.208v8.29h-2.383v-8.29" fill="#005030"></path><path fill="#00462D" d="M172.784 70.684h-2.47v4.204h-2.383V64.772h2.384V68.8h2.47v-4.028h2.381v10.116h-2.382v-4.204M184.93 66.83c-.566-.29-1.365-.522-2.005-.522-.77 0-1.35.348-1.35 1.101 0 1.841 3.995.986 3.995 4.58 0 1.913-1.526 3.073-3.546 3.073-1.234 0-2.295-.29-2.731-.42l.131-1.972c.712.275 1.337.623 2.223.623.756 0 1.482-.377 1.482-1.203 0-1.956-3.995-1-3.995-4.608 0-.304.116-2.884 3.515-2.884.93 0 1.512.16 2.383.347l-.101 1.884M188.344 71.018l-3.08-6.246h2.732l1.628 3.912 1.51-3.912h2.674l-3.081 6.29v3.826h-2.383v-3.87M199.343 66.83c-.567-.29-1.366-.522-2.006-.522-.77 0-1.35.348-1.35 1.101 0 1.841 3.995.986 3.995 4.58 0 1.913-1.526 3.073-3.546 3.073-1.234 0-2.295-.29-2.731-.42l.131-1.972c.712.275 1.337.623 2.222.623.757 0 1.483-.377 1.483-1.203 0-1.956-3.996-1-3.996-4.608 0-.304.117-2.884 3.516-2.884.93 0 1.511.16 2.383.347l-.101 1.884"></path><path fill="#005030" d="M202.088 66.598h-2.209v-1.826h6.8v1.826h-2.208v8.29h-2.383v-8.29M207.144 64.772h5.855v1.768h-3.56v2.26h3.386v1.768h-3.386v2.552h3.734v1.768h-6.03V64.772M222.239 66.887h-.03l-2.281 8h-1.568l-2.195-8h-.029v8h-2.178V64.773h3.588l1.641 6.507h.03l1.772-6.507h3.428v10.116h-2.178v-8M1.524 58.476H224.59v-1.27H1.524z"></path><path d="M57.282 4.364l.06 32.71c0 2.095 0 8.47-16.096 8.497l-1.511.003-1.512-.003c-16.097-.026-16.097-6.402-16.097-8.498l.061-32.709H0l.02 37.619c0 10.406 29.244 11.216 38.21 11.216h3.011c8.964 0 38.21-.81 38.21-11.216l.019-37.619H57.282" fill="#FFF"></path><path d="M58.994 37.073l.005-31.113h18.82l-.022 36.023c0 6.829-18.789 9.567-36.556 9.567 0-.861.006-2.975.006-4.334 8.893-.013 17.747-1.888 17.747-10.143" fill="#005030"></path><path d="M20.476 37.073L20.47 5.96H1.65l.022 36.023c0 6.829 18.791 9.567 36.558 9.567 0-.861-.008-2.975-.008-4.334-8.892-.013-17.746-1.888-17.746-10.143" fill="#F47321"></path></g></svg>