<?xml version="1.0" encoding="UTF-8" standalone="no"?>
<!-- Created with Inkscape (http://www.inkscape.org/) -->

<svg
   xmlns:dc="http://purl.org/dc/elements/1.1/"
   xmlns:cc="http://creativecommons.org/ns#"
   xmlns:rdf="http://www.w3.org/1999/02/22-rdf-syntax-ns#"
   xmlns:svg="http://www.w3.org/2000/svg"
   xmlns="http://www.w3.org/2000/svg"
   xmlns:sodipodi="http://sodipodi.sourceforge.net/DTD/sodipodi-0.dtd"
   xmlns:inkscape="http://www.inkscape.org/namespaces/inkscape"
   width="217.86333"
   height="68.770531"
   viewBox="0 0 57.643004 18.195536"
   version="1.1"
   id="svg5479"
   inkscape:version="0.92.0 r15299"
   sodipodi:docname="allegheny health network.svg">
  <defs
     id="defs5473">
    <clipPath
       id="clipPath3153"
       clipPathUnits="userSpaceOnUse">
      <path
         inkscape:connector-curvature="0"
         id="path3151"
         d="M 107.52,48.88 H 306.24 V 109 H 107.52 Z" />
    </clipPath>
    <clipPath
       id="clipPath3149"
       clipPathUnits="userSpaceOnUse">
      <path
         inkscape:connector-curvature="0"
         id="path3147"
         d="m 108.017,49.144 h 197.496 v 58.882 H 108.017 Z" />
    </clipPath>
    <clipPath
       id="clipPath3145"
       clipPathUnits="userSpaceOnUse">
      <path
         inkscape:connector-curvature="0"
         id="path3143"
         d="M 107.52,48.88 H 306.24 V 109 H 107.52 Z" />
    </clipPath>
  </defs>
  <sodipodi:namedview
     id="base"
     pagecolor="#ffffff"
     bordercolor="#666666"
     borderopacity="1.0"
     inkscape:pageopacity="0.0"
     inkscape:pageshadow="2"
     inkscape:zoom="4.1558486"
     inkscape:cx="107.94313"
     inkscape:cy="33.385259"
     inkscape:document-units="mm"
     inkscape:current-layer="layer1"
     showgrid="false"
     fit-margin-top="0"
     fit-margin-left="0"
     fit-margin-right="0"
     fit-margin-bottom="0"
     units="px"
     inkscape:window-width="1280"
     inkscape:window-height="744"
     inkscape:window-x="-4"
     inkscape:window-y="-4"
     inkscape:window-maximized="1" />
  <metadata
     id="metadata5476">
    <rdf:RDF>
      <cc:Work
         rdf:about="">
        <dc:format>image/svg+xml</dc:format>
        <dc:type
           rdf:resource="http://purl.org/dc/dcmitype/StillImage" />
        <dc:title></dc:title>
      </cc:Work>
    </rdf:RDF>
  </metadata>
  <g
     inkscape:label="Layer 1"
     inkscape:groupmode="layer"
     id="layer1"
     transform="translate(-39.475761,-151.56622)">
    <g
       id="g5702"
       transform="translate(0.26458314,-0.26457632)">
      <path
         d="m 46.401494,166.56382 c 0.886178,1.07139 1.621719,2.15724 2.243667,3.19793 0.622652,-1.04069 1.357488,-2.12654 2.244019,-3.19793 -0.719667,-1.19486 -1.458736,-2.23979 -2.244019,-3.17817 -0.784931,0.93838 -1.523648,1.98331 -2.243667,3.17817"
         style="fill:#00aeef;fill-opacity:1;fill-rule:nonzero;stroke:none;stroke-width:0.35277778"
         id="path3415"
         inkscape:connector-curvature="0" />
      <path
         d="m 49.003971,162.96817 c 0.819503,0.96485 1.561042,2.00801 2.256367,3.15842 0.788458,-0.90593 1.6891,-1.79564 2.726619,-2.63419 -0.696383,-1.17793 -1.4224,-2.21897 -2.198158,-3.15842 -1.008239,0.79904 -1.925461,1.65876 -2.784828,2.63419 m -0.71755,0 c -0.81915,0.96485 -1.561042,2.00872 -2.256014,3.15842 -0.788105,-0.90593 -1.6891,-1.79564 -2.726619,-2.63419 0.696383,-1.17793 1.422047,-2.21897 2.198158,-3.15842 1.008239,0.79904 1.925461,1.65876 2.784475,2.63419"
         style="fill:#00bbce;fill-opacity:1;fill-rule:nonzero;stroke:none;stroke-width:0.35277778"
         id="path3419"
         inkscape:connector-curvature="0" />
      <path
         d="m 52.049466,154.31224 c -1.063272,-0.87383 -2.204156,-1.63724 -3.404305,-2.21686 -1.199798,0.57962 -2.340681,1.34303 -3.403953,2.21686 1.217436,0.69709 2.350911,1.44145 3.403953,2.25707 1.053394,-0.81562 2.186869,-1.55998 3.404305,-2.25707"
         style="fill:#00a651;fill-opacity:1;fill-rule:nonzero;stroke:none;stroke-width:0.35277778"
         id="path3427"
         inkscape:connector-curvature="0" />
      <path
         d="m 48.645161,157.2489 c -1.012472,0.80892 -1.935692,1.68557 -2.795411,2.67476 1.033286,0.82233 1.955094,1.69051 2.795411,2.63208 0.840317,-0.94157 1.762125,-1.80975 2.795764,-2.63208 -0.860072,-0.98919 -1.782939,-1.86584 -2.795764,-2.67476 m -6.880578,0.57891 c -0.877711,1.06962 -1.647472,2.16182 -2.288822,3.19616 1.265061,0.63994 2.389364,1.35855 3.392311,2.1262 0.669925,-1.149 1.402997,-2.19252 2.201686,-3.15066 -1.001889,-0.75706 -2.093736,-1.46509 -3.305175,-2.1717 m 10.455981,2.1717 c 1.001889,-0.75706 2.093736,-1.46509 3.305527,-2.1717 0.877359,1.06962 1.647473,2.16182 2.288823,3.19616 -1.265062,0.63994 -2.389364,1.35855 -3.392311,2.1262 -0.669925,-1.149 -1.40335,-2.19252 -2.202039,-3.15066"
         style="fill:#3dba93;fill-opacity:1;fill-rule:nonzero;stroke:none;stroke-width:0.35277778"
         id="path3431"
         inkscape:connector-curvature="0" />
      <path
         d="m 48.213149,156.91196 c -1.03505,-0.78846 -2.163233,-1.51624 -3.410655,-2.22956 -0.970492,0.84173 -1.871134,1.77024 -2.686756,2.72627 1.218847,0.70591 2.312106,1.42522 3.304822,2.18123 0.856897,-0.97755 1.78682,-1.86267 2.792589,-2.67794 m 0.864658,0 c 1.03505,-0.78846 2.162881,-1.51624 3.410303,-2.22956 0.970492,0.84173 1.871133,1.77024 2.687108,2.72627 -1.2192,0.70591 -2.312811,1.42522 -3.305175,2.18123 -0.856897,-0.97755 -1.786466,-1.86267 -2.792236,-2.67794"
         style="fill:#0fb46e;fill-opacity:1;fill-rule:nonzero;stroke:none;stroke-width:0.35277778"
         id="path3439"
         inkscape:connector-curvature="0" />
      <path
         d="m 93.732806,157.07145 0.714022,2.11878 c 0.08149,0.24271 0.162278,0.54328 0.219075,0.77047 h 0.02434 c 0.06491,-0.22719 0.138289,-0.51894 0.211314,-0.77893 l 0.617008,-2.11032 H 96.5896 l -0.990247,2.69487 c -0.54363,1.47673 -0.909108,2.1343 -1.380066,2.54035 -0.389114,0.34855 -0.794809,0.47872 -1.046339,0.51082 l -0.227542,-0.84384 c 0.170039,-0.0409 0.381353,-0.13018 0.584553,-0.27623 0.187325,-0.12135 0.405341,-0.35665 0.543983,-0.62441 0.04022,-0.0734 0.06456,-0.13018 0.06456,-0.17921 0,-0.0406 -0.0078,-0.0974 -0.05644,-0.19438 l -1.445331,-3.62797 z m -5.137855,1.17687 c 0,-0.45473 -0.0078,-0.83609 -0.03175,-1.17687 h 0.875947 l 0.04904,0.59267 h 0.02399 c 0.170744,-0.30904 0.60078,-0.68228 1.258005,-0.68228 0.690034,0 1.404409,0.44697 1.404409,1.69651 v 2.34562 H 91.17552 v -2.23167 c 0,-0.56833 -0.210256,-0.99871 -0.754239,-0.99871 -0.39758,0 -0.674158,0.28433 -0.778933,0.58455 -0.03281,0.0892 -0.04022,0.21096 -0.04022,0.32455 v 2.32128 h -1.00718 z m -1.769887,0.38135 c 0.0078,-0.36477 -0.154163,-0.96555 -0.820208,-0.96555 -0.616303,0 -0.876653,0.55985 -0.916869,0.96555 z m -1.737077,0.69779 c 0.02434,0.71438 0.5842,1.02235 1.217436,1.02235 0.462844,0 0.795514,-0.0649 1.09608,-0.17815 l 0.145345,0.68968 c -0.340784,0.13829 -0.811036,0.24412 -1.379361,0.24412 -1.282347,0 -2.036939,-0.7881 -2.036939,-1.99707 0,-1.09538 0.665339,-2.12655 1.931458,-2.12655 1.281995,0 1.70427,1.05516 1.70427,1.9237 0,0.18662 -0.01588,0.33302 -0.03281,0.42192 z m -5.348464,-4.06576 h 1.006475 v 2.35338 h 0.01623 c 0.121708,-0.18627 0.283986,-0.34078 0.494594,-0.45402 0.194733,-0.11395 0.431095,-0.17922 0.682272,-0.17922 0.673453,0 1.380067,0.44697 1.380067,1.71309 v 2.32904 H 82.3208 v -2.2158 c 0,-0.57608 -0.211314,-1.00647 -0.763058,-1.00647 -0.390173,0 -0.665692,0.26 -0.771173,0.56021 -0.03245,0.0811 -0.04057,0.18662 -0.04057,0.30021 v 2.36185 h -1.006475 z m -2.043642,3.39231 c 0,-0.0892 -0.0081,-0.18662 -0.03245,-0.26776 -0.105834,-0.36512 -0.38982,-0.64099 -0.811389,-0.64099 -0.559858,0 -0.974372,0.48683 -0.974372,1.29046 0,0.67345 0.341136,1.21708 0.965905,1.21708 0.373239,0 0.697795,-0.24342 0.811742,-0.60043 0.02469,-0.10583 0.04057,-0.24341 0.04057,-0.35701 z m 1.030817,-1.58256 c -0.01587,0.26776 -0.03246,0.59267 -0.03246,1.1363 v 2.24014 c 0,0.82726 -0.170744,1.42028 -0.584905,1.79317 -0.413456,0.36547 -0.982133,0.47871 -1.525411,0.47871 -0.503061,0 -1.038931,-0.10512 -1.380067,-0.31573 l 0.219428,-0.75565 c 0.251531,0.14675 0.674158,0.30021 1.152525,0.30021 0.649111,0 1.135944,-0.34078 1.135944,-1.19309 v -0.34008 h -0.01587 c -0.227189,0.34854 -0.632883,0.5842 -1.152525,0.5842 -0.98178,0 -1.679927,-0.81139 -1.679927,-1.93181 0,-1.29858 0.843844,-2.08598 1.793522,-2.08598 0.600428,0 0.957439,0.29246 1.144411,0.61737 h 0.01623 l 0.04092,-0.52776 z m -5.502275,1.55822 c 0.0085,-0.36477 -0.153811,-0.96555 -0.819855,-0.96555 -0.616303,0 -0.875948,0.55985 -0.916517,0.96555 z m -1.736372,0.69779 c 0.02434,0.71438 0.5842,1.02235 1.217436,1.02235 0.462844,0 0.795161,-0.0649 1.095022,-0.17815 l 0.146756,0.68968 c -0.341136,0.13829 -0.811742,0.24412 -1.380067,0.24412 -1.281994,0 -2.036939,-0.7881 -2.036939,-1.99707 0,-1.09538 0.665692,-2.12655 1.931459,-2.12655 1.281994,0 1.704269,1.05516 1.704269,1.9237 0,0.18662 -0.01588,0.33302 -0.03246,0.42192 z m -2.791883,-4.06576 h 1.006475 v 5.76227 h -1.006475 z m -2.085975,0 h 1.006827 v 5.76227 h -1.006827 z m -2.272947,3.45722 -0.430389,-1.3469 c -0.105481,-0.33267 -0.194734,-0.70662 -0.27552,-1.02271 h -0.01658 c -0.08114,0.31609 -0.162278,0.6978 -0.259292,1.02271 l -0.422275,1.3469 z m -1.566334,0.75459 -0.470605,1.55046 H 61.26949 l 1.753306,-5.46982 h 1.27388 l 1.777294,5.46982 h -1.071386 l -0.494594,-1.55046 z"
         style="fill:#405d59;fill-opacity:1;fill-rule:nonzero;stroke:none;stroke-width:0.35277778"
         id="path3443"
         inkscape:connector-curvature="0" />
      <path
         d="m 62.196202,163.84757 v 1.38536 h 1.462264 v -1.38536 h 0.631472 v 3.45828 h -0.631472 v -1.524 h -1.462264 v 1.524 h -0.631119 v -3.45828 z"
         style="fill:#405d59;fill-opacity:1;fill-rule:nonzero;stroke:none;stroke-width:0.35277778"
         id="path3447"
         inkscape:connector-curvature="0" />
      <path
         d="m 66.53184,165.79212 c 0.0053,-0.23036 -0.09737,-0.61101 -0.517878,-0.61101 -0.390525,0 -0.554566,0.35454 -0.579966,0.61101 z m -1.097844,0.44132 c 0.01552,0.45121 0.369358,0.64594 0.769761,0.64594 0.292452,0 0.502708,-0.0406 0.692502,-0.11218 l 0.09207,0.43568 c -0.215194,0.0875 -0.512938,0.15451 -0.871713,0.15451 -0.811037,0 -1.287992,-0.49812 -1.287992,-1.26259 0,-0.6925 0.420511,-1.34408 1.221317,-1.34408 0.810683,0 1.077383,0.66675 1.077383,1.21602 0,0.11783 -0.01023,0.21097 -0.02046,0.2667 z"
         style="fill:#405d59;fill-opacity:1;fill-rule:nonzero;stroke:none;stroke-width:0.35277778"
         id="path3451"
         inkscape:connector-curvature="0" />
      <path
         d="m 68.958493,166.0845 c -0.446264,-0.0102 -0.872067,0.0871 -0.872067,0.46672 0,0.2466 0.159456,0.35949 0.359481,0.35949 0.251178,0 0.436033,-0.1644 0.492478,-0.34396 0.01552,-0.0459 0.02011,-0.0974 0.02011,-0.13829 z m 0.0822,1.22132 -0.04092,-0.27693 h -0.01552 c -0.153459,0.19473 -0.415572,0.33267 -0.738364,0.33267 -0.502708,0 -0.784931,-0.36372 -0.784931,-0.74331 0,-0.63112 0.5588,-0.94897 1.482725,-0.94438 v -0.0409 c 0,-0.16474 -0.06667,-0.43603 -0.508352,-0.43603 -0.246239,0 -0.502709,0.0765 -0.672042,0.18486 l -0.12312,-0.40993 c 0.184856,-0.11324 0.508353,-0.22119 0.903112,-0.22119 0.800805,0 1.031169,0.50764 1.031169,1.05163 v 0.90346 c 0,0.22578 0.01094,0.44627 0.03563,0.60008 z"
         style="fill:#405d59;fill-opacity:1;fill-rule:nonzero;stroke:none;stroke-width:0.35277778"
         id="path3455"
         inkscape:connector-curvature="0" />
      <path
         d="m 70.242639,163.66289 h 0.635353 v 3.64314 h -0.635353 z"
         style="fill:#405d59;fill-opacity:1;fill-rule:nonzero;stroke:none;stroke-width:0.35277778"
         id="path3459"
         inkscape:connector-curvature="0" />
      <path
         d="m 72.283705,164.09342 v 0.71332 h 0.600781 v 0.47272 h -0.600781 v 1.10313 c 0,0.30198 0.08255,0.46109 0.32385,0.46109 0.107597,0 0.189442,-0.0155 0.246239,-0.0303 l 0.0099,0.48189 c -0.09243,0.0363 -0.256117,0.0621 -0.456495,0.0621 -0.230716,0 -0.426155,-0.0773 -0.544336,-0.20532 -0.132644,-0.14393 -0.194733,-0.36936 -0.194733,-0.69814 v -1.1744 h -0.35915 v -0.47272 h 0.359128 V 164.243 Z"
         style="fill:#405d59;fill-opacity:1;fill-rule:nonzero;stroke:none;stroke-width:0.35277778"
         id="path3463"
         inkscape:connector-curvature="0" />
      <path
         d="m 73.3613,163.66275 h 0.636764 v 1.48802 h 0.0099 c 0.07726,-0.11783 0.179564,-0.21555 0.313266,-0.28752 0.122767,-0.0716 0.271639,-0.11253 0.430742,-0.11253 0.426508,0 0.872419,0.28222 0.872419,1.08197 v 1.4732 H 74.99325 v -1.40088 c 0,-0.36478 -0.13335,-0.63606 -0.4826,-0.63606 -0.245886,0 -0.420511,0.16369 -0.487186,0.35454 -0.02081,0.0504 -0.0254,0.11712 -0.0254,0.18909 v 1.49331 H 73.3613 Z"
         style="fill:#405d59;fill-opacity:1;fill-rule:nonzero;stroke:none;stroke-width:0.35277778"
         id="path3467"
         inkscape:connector-curvature="0" />
      <path
         d="m 77.383884,167.30592 v -3.45828 h 0.718608 l 0.892881,1.48272 c 0.231422,0.38489 0.431094,0.78494 0.59055,1.15923 h 0.01023 c -0.04163,-0.46143 -0.0568,-0.90769 -0.0568,-1.43616 v -1.20579 h 0.584906 v 3.45828 h -0.651581 l -0.903464,-1.51871 c -0.220486,-0.38029 -0.451555,-0.80574 -0.620889,-1.19556 l -0.01482,0.005 c 0.0254,0.44626 0.03069,0.90311 0.03069,1.47284 v 1.23649 z"
         style="fill:#405d59;fill-opacity:1;fill-rule:nonzero;stroke:none;stroke-width:0.35277778"
         id="path3471"
         inkscape:connector-curvature="0" />
      <path
         d="m 82.37128,165.79212 c 0.0056,-0.23036 -0.09701,-0.61101 -0.517878,-0.61101 -0.390172,0 -0.553861,0.35454 -0.579614,0.61101 z m -1.097492,0.44132 c 0.01482,0.45121 0.369006,0.64594 0.769409,0.64594 0.292452,0 0.503414,-0.0406 0.693208,-0.11218 l 0.09207,0.43568 c -0.2159,0.0875 -0.513292,0.15451 -0.872419,0.15451 -0.810331,0 -1.287639,-0.49812 -1.287639,-1.26259 0,-0.6925 0.420158,-1.34408 1.220611,-1.34408 0.811389,0 1.077383,0.66675 1.077383,1.21602 0,0.11783 -0.0099,0.21097 -0.02011,0.2667 z"
         style="fill:#405d59;fill-opacity:1;fill-rule:nonzero;stroke:none;stroke-width:0.35277778"
         id="path3475"
         inkscape:connector-curvature="0" />
      <path
         d="m 84.198845,164.09342 v 0.71332 h 0.599722 v 0.47272 h -0.599722 v 1.10313 c 0,0.30198 0.08184,0.46109 0.322792,0.46109 0.107597,0 0.189794,-0.0155 0.246944,-0.0303 l 0.01058,0.48189 c -0.09384,0.0363 -0.257527,0.0621 -0.457905,0.0621 -0.230717,0 -0.425803,-0.0773 -0.543631,-0.20532 -0.132997,-0.14393 -0.19438,-0.36936 -0.19438,-0.69814 v -1.1744 h -0.359834 v -0.47272 h 0.359834 V 164.243 Z"
         style="fill:#405d59;fill-opacity:1;fill-rule:nonzero;stroke:none;stroke-width:0.35277778"
         id="path3479"
         inkscape:connector-curvature="0" />
      <path
         d="m 85.691765,164.80674 0.261056,1.13453 c 0.0568,0.2667 0.113594,0.53834 0.159455,0.80998 h 0.01058 c 0.05115,-0.27164 0.13335,-0.54857 0.205317,-0.80504 l 0.322792,-1.13947 h 0.513644 l 0.312561,1.10843 c 0.07691,0.2928 0.143581,0.56444 0.200025,0.83608 h 0.01023 c 0.04127,-0.27164 0.09737,-0.54328 0.164394,-0.83608 l 0.276931,-1.10843 h 0.621241 l -0.785636,2.49908 h -0.5842 l -0.298097,-1.01636 c -0.0769,-0.2614 -0.132997,-0.49741 -0.189441,-0.79974 h -0.01058 c -0.05115,0.30762 -0.11818,0.55351 -0.189441,0.79974 l -0.318912,1.01636 h -0.590197 l -0.738011,-2.49908 z"
         style="fill:#405d59;fill-opacity:1;fill-rule:nonzero;stroke:none;stroke-width:0.35277778"
         id="path3483"
         inkscape:connector-curvature="0" />
      <path
         d="m 89.581105,166.05903 c 0,0.48189 0.236361,0.84667 0.621242,0.84667 0.359127,0 0.610658,-0.35419 0.610658,-0.85761 0,-0.38946 -0.174625,-0.83537 -0.605719,-0.83537 -0.446264,0 -0.626181,0.43039 -0.626181,0.84631 m 1.882775,-0.0254 c 0,0.91863 -0.646289,1.32786 -1.2827,1.32786 -0.707672,0 -1.251656,-0.48649 -1.251656,-1.28694 0,-0.82126 0.538692,-1.32397 1.292578,-1.32397 0.744361,0 1.241778,0.52317 1.241778,1.28305"
         style="fill:#405d59;fill-opacity:1;fill-rule:nonzero;stroke:none;stroke-width:0.35277778"
         id="path3487"
         inkscape:connector-curvature="0" />
      <path
         d="m 91.982499,165.61224 c 0,-0.33867 -0.0046,-0.57926 -0.02046,-0.80539 h 0.549275 l 0.02011,0.47695 h 0.02081 c 0.122767,-0.35348 0.415572,-0.53304 0.682272,-0.53304 0.06138,0 0.09772,0.005 0.149578,0.0152 v 0.59478 c -0.05186,-0.01 -0.108655,-0.0201 -0.185914,-0.0201 -0.301978,0 -0.507294,0.19509 -0.563739,0.47696 -0.01058,0.0572 -0.02081,0.12347 -0.02081,0.19508 v 1.29329 h -0.631119 z"
         style="fill:#405d59;fill-opacity:1;fill-rule:nonzero;stroke:none;stroke-width:0.35277778"
         id="path3491"
         inkscape:connector-curvature="0" />
      <path
         d="m 94.440442,165.90494 h 0.01023 c 0.06174,-0.0977 0.13335,-0.20532 0.200025,-0.29281 l 0.605013,-0.80539 h 0.759531 l -0.923219,1.02165 1.056922,1.47743 h -0.7747 l -0.718256,-1.10314 -0.215547,0.25118 v 0.85196 h -0.631119 v -3.64314 h 0.631119 z"
         style="fill:#405d59;fill-opacity:1;fill-rule:nonzero;stroke:none;stroke-width:0.35277778"
         id="path3495"
         inkscape:connector-curvature="0" />
    </g>
  </g>
</svg>
