<svg id="Layer_1" data-name="Layer 1" xmlns="http://www.w3.org/2000/svg" viewBox="0 0 436.67 65.09"><defs><style>.cls-1{fill:#3c3366;}.cls-2{fill:#a3a4da;}.cls-3{fill:#fff;}</style></defs><title>logo</title><path class="cls-1" d="M204.13,40v4h.62l9.85-.46.49-.05V41.64h-1.51c-2.14,0-3.74-.5-3.74-2.48V21.4l-.63.07-9.06,1.07-.5.05v1.78l.53,0c2.16.11,3.95.36,3.95,2.34v6.14c0,3.88-3.28,7.69-6.62,7.69a4,4,0,0,1-3-1,5.36,5.36,0,0,1-1.19-3.87V21.4l-.62.07s-4.82.5-9.07.5c-.76,0-.49.06-.49.06v2.35l.53,0c2.16.11,3.94.36,3.94,2.34v9.93a7.08,7.08,0,0,0,1.91,5.15A8.41,8.41,0,0,0,195.74,44c4.73,0,7.2-2.18,8.28-4Z"/><path class="cls-1" d="M112.48,39.75l-.19.05a23,23,0,0,1-7.25,1c-4.62,0-8.14-1.18-10.47-3.5s-3.51-5.88-3.51-10.55c0-2.79.29-6.78,2.77-9.26,1.58-1.58,3.91-2.38,6.91-2.38,7,0,9.18,3.83,9.89,6.11l.12.39h2.48l0-.61-.53-7,0-.42-.41-.08a55.79,55.79,0,0,0-11.4-1.26c-11.38,0-16.68,4.72-16.68,14.85,0,5,1.53,9.16,4.45,12.07C91.73,42.36,96.28,44,102.1,44a39.59,39.59,0,0,0,10.68-1.22l.41-.11V39.54Z"/><path class="cls-1" d="M135.46,31H136V29.42a6.9,6.9,0,0,0-2-5.06c-1.86-1.86-4.91-2.89-8.6-2.89-8.41,0-12.5,3.49-12.5,10.67a10.92,10.92,0,0,0,3,8.06c2.5,2.5,6.47,3.77,11.81,3.77a24.74,24.74,0,0,0,7.16-.82l.4-.12V40.36l-.75.28a11.75,11.75,0,0,1-3.92.55,11.57,11.57,0,0,1-8.53-3.11,11.25,11.25,0,0,1-3.14-7.15Zm-5.84-2.58H119a5.64,5.64,0,0,1,1.5-2.67A5.72,5.72,0,0,1,124.64,24a5.1,5.1,0,0,1,3.75,1.28,4.79,4.79,0,0,1,1.26,3Z"/><path class="cls-1" d="M147.31,26V21.4l-.63.07-9.05,1.07-.5.05v1.78l.53,0c2.17.12,3.95.37,3.95,2.34V38.9c0,2.3-1.38,2.74-3.92,2.74h-.55v1.87h14.65V41.64h-.56c-1.24,0-2.59-.1-3.3-.79a2.65,2.65,0,0,1-.62-1.95V33.43a10.1,10.1,0,0,1,3.09-6.6,6.23,6.23,0,0,1,4.05-2.11,3.73,3.73,0,0,1,2.66.68c.69.69.73,2.09.73,4.33V38.9c0,2.3-1.38,2.74-3.92,2.74h-.55v1.87H168V41.64h-.55c-1.24,0-2.59-.1-3.3-.79a2.63,2.63,0,0,1-.62-1.95V28.75c0-2.08-.11-4.22-1.51-5.61-1.14-1.15-3-1.68-5.88-1.68A10.46,10.46,0,0,0,147.38,26Z"/><path class="cls-1" d="M184.32,41.15l-.69.09a13.64,13.64,0,0,1-1.61.13c-1.56,0-3.12-.11-3.93-.92a3.37,3.37,0,0,1-.74-2.45V24.48h7.59V21.91h-.56l-7,0V15.24h-2.65v.55c0,4.18-2.31,6.12-7.27,6.12h-.55v2.58h4.76V36.76c0,2.39.09,4.18,1.31,5.4S176.67,44,181.57,44c1,0,1.93-.09,2.87-.18l.51,0V41.09Z"/><path class="cls-1" d="M225.88,24.91V21.4l-.62.07-9.06,1.07-.5.05v1.78l.53,0c2.15.11,3.94.36,3.94,2.34V38.9c0,2.3-1.38,2.74-3.92,2.74h-1.21v1.87h15.3V41.64h-.56c-1.23,0-2.59-.1-3.3-.79a2.64,2.64,0,0,1-.62-1.95V32.18a7.29,7.29,0,0,1,1.92-5.36,3.68,3.68,0,0,1,2.05-1.17,2,2,0,0,1,.78.32,5,5,0,0,0,2.57.75,3.74,3.74,0,0,0,2.68-1,2.34,2.34,0,0,0,.7-1.69,2.18,2.18,0,0,0-.67-1.55,4.17,4.17,0,0,0-2.83-1.06A8.08,8.08,0,0,0,226,24.91Z"/><path class="cls-1" d="M261.13,41.52a8.88,8.88,0,0,1-1.49.17,2.39,2.39,0,0,1-1.66-.4c-.13-.14-.31-.4-.31-1.15v-11a7.2,7.2,0,0,0-1.74-5.33c-1.57-1.57-4.22-2.31-8.34-2.31-4.29,0-10.33,1.53-10.33,4.92a2.23,2.23,0,0,0,.67,1.59,3.86,3.86,0,0,0,2.71,1,3.76,3.76,0,0,0,2.57-1,2.63,2.63,0,0,0,.76-1.91,1.73,1.73,0,0,1,.38-1.3c.49-.48,1.55-.72,3.18-.72a4.56,4.56,0,0,1,3.34,1c1.1,1.1,1.1,3.08,1.1,4.83l0,1.17-.78,0c-5.15.29-14.74.83-14.74,7.24a4.76,4.76,0,0,0,1.46,3.4A8.72,8.72,0,0,0,244,44c3.85,0,6.35-1.09,8.32-3.23l.15,0,0,.38c0,2.43,2.5,2.87,4.37,2.87a22.26,22.26,0,0,0,4.4-.41l.45-.08V41.41ZM252,33.92v1.78A5.46,5.46,0,0,1,246.22,41a3.62,3.62,0,0,1-2.5-1,3.15,3.15,0,0,1-.94-2.28c0-3.27,3.51-3.91,6.68-4Z"/><path class="cls-1" d="M334.32,30.94h.56V29.4a6.9,6.9,0,0,0-2-5.07c-1.86-1.86-4.91-2.88-8.6-2.88-8.41,0-12.5,3.49-12.5,10.66a10.9,10.9,0,0,0,3,8.06c2.5,2.5,6.47,3.77,11.81,3.77a25,25,0,0,0,7.15-.82l.4-.12V40.36l-.75.28a11.85,11.85,0,0,1-3.92.54c-3.6,0-6.46-1-8.53-3.1a11.31,11.31,0,0,1-3.14-7.15Zm-5.85-2.58H317.82a5.62,5.62,0,0,1,1.51-2.67A5.75,5.75,0,0,1,323.49,24a5.11,5.11,0,0,1,3.75,1.27,4.77,4.77,0,0,1,1.26,3Z"/><path class="cls-1" d="M393.31,41.65c-.24,0-.47,0-.69,0a12.53,12.53,0,0,1-1.61,0c-1.56,0-3.12-.11-3.93-.92a3.34,3.34,0,0,1-.75-2.44V24.47h7.6V21.89h-.56l-7,0V15.21h-2.65v.56c0,4.18-2.31,6.12-7.27,6.12h-.56v2.59h4.77V36.74c0,2.4.09,4.18,1.31,5.4s3.7,1.67,8.61,1.67c1,0,1.93-.13,2.87-.22l.5-.08s0-.31,0-.31V41.58Z"/><path class="cls-1" d="M361.75,41.63a8.45,8.45,0,0,1-1.49,0,2.33,2.33,0,0,1-1.66-.51,1.51,1.51,0,0,1-.32-1.15V29.1a7.25,7.25,0,0,0-1.74-5.33c-1.58-1.57-4.23-2.3-8.35-2.3-4.28,0-10.32,1.53-10.32,4.92a2.22,2.22,0,0,0,.68,1.6,3.81,3.81,0,0,0,2.7,1,3.77,3.77,0,0,0,2.57-1,2.61,2.61,0,0,0,.75-1.91,1.68,1.68,0,0,1,.4-1.3c.47-.48,1.54-.72,3.17-.72a4.57,4.57,0,0,1,3.35,1c1.1,1.1,1.1,3.08,1.1,4.83l0,1.17-.78,0c-5.15.29-14.74.82-14.74,7.24a4.7,4.7,0,0,0,1.46,3.4,8.68,8.68,0,0,0,6.15,2.2c3.85,0,6.35-1.1,8.32-3.23l.15,0,0,.38c0,2.43,2.5,2.87,4.37,2.87a21.9,21.9,0,0,0,4.4-.41l.45-.09V41.67Zm-9.18-7.72v1.77A5.46,5.46,0,0,1,346.85,41a3.63,3.63,0,0,1-2.51-1,3.17,3.17,0,0,1-.94-2.28c0-3.28,6-3.91,9.15-4Z"/><path class="cls-1" d="M273.78,43.51h16v-2h-.55c-2,0-3.23-.13-3.9-.79a3.18,3.18,0,0,1-.67-2.3V29.07h15.55v9.35c0,2.65-1.14,3.09-4.56,3.09h-.56v2H311.7v-2h-.56c-2,0-3.23-.13-3.9-.79a3.17,3.17,0,0,1-.67-2.3V17.84a3.15,3.15,0,0,1,.67-2.29c.67-.67,1.94-.8,3.9-.8h.56v-2H295.11v2h.56c2,0,3.21.13,3.89.81a3.11,3.11,0,0,1,.67,2.28V26.2H284.69V17.84a3.16,3.16,0,0,1,.67-2.29c.67-.67,1.93-.8,3.9-.8h.55v-2H273.22v2h.56c1.95,0,3.21.13,3.89.81a3.16,3.16,0,0,1,.67,2.28V38.41c0,2.65-1.14,3.09-4.56,3.09h-.56v2Z"/><path class="cls-1" d="M362.14,43.51h14.09V41.64h-.56c-1.24,0-2.59-.1-3.3-.79a2.65,2.65,0,0,1-.62-1.95V11.38l-.62.07-9.07,1.07-.49.05v1.77l.52,0h.14c2.16.16,3.82.43,3.82,2.33V38.9c0,2.3-1.37,2.74-3.91,2.74h-.56v1.87Z"/><path class="cls-1" d="M402.88,26.47V11.38l-.63.07-9.06,1.07-.49.05v1.77l.51,0h.15c2.08.16,3.8.45,3.8,2.33V38.9c0,2.3-1.38,2.74-3.91,2.74h-.55v1.87h14.64V41.64h-.55c-1.23,0-2.59-.1-3.3-.79a2.66,2.66,0,0,1-.61-1.95V33.47A10.19,10.19,0,0,1,406,26.82a6.21,6.21,0,0,1,4-2.1,3.74,3.74,0,0,1,2.65.68c.69.7.74,2.1.74,4.33V38.9c0,2.3-1.38,2.74-3.91,2.74h-.56v1.87h14.65V41.64H423c-1.23,0-2.59-.1-3.3-.79a2.65,2.65,0,0,1-.62-1.95V28.75c0-2.09-.12-4.23-1.5-5.62-1.14-1.13-3-1.66-5.82-1.66-5,0-7.84,2.67-8.83,5Z"/><path class="cls-1" d="M68.18,33.71c-3.38,1.18-14.49-4.49-16.77-5.34s-4.52-1.46-12-.62c-.78.13-1.62-1.8-2-2.25s-2.87-2.93-3.32-2.93S31.19,25,30.77,25.5s-1.21,2.38-2,2.25c-7.49-.85-9.74-.23-12,.62S3.39,34.88,0,33.71V21.8H22.66V0H45.52V21.8H68.17V33.71Z"/><path class="cls-2" d="M59.2,35.63c-1.6-.62-4.92-1.73-8.31-3-7.62-3.68-8.07-2.77-11-2.37s-2.7-.25-3.13-1.11a9.08,9.08,0,0,0-2.6-2.7h-.07a9,9,0,0,0-2.6,2.7c-.42.85-.16,1.5-3.12,1.11s-3.42-1.3-11,2.37c-3.39,1.28-6.71,2.38-8.3,3s-6.61,1.79-9,1.24v6.62H22.66v21.6H45.52V43.49H68.18V36.87C65.8,37.42,60.79,36.25,59.2,35.63Z"/><path class="cls-3" d="M34.12,26.45a9.11,9.11,0,0,1,2.6,2.7c.42.86.16,1.5,3.13,1.11s3.42-1.3,11,2.37c3.39,1.28,6.71,2.38,8.31,3s6.61,1.79,9,1.24V33.71c-3.38,1.18-14.49-4.49-16.77-5.34s-4.52-1.46-12-.62c-.78.13-1.62-1.8-2-2.25s-2.87-2.93-3.32-2.93S31.19,25,30.77,25.5s-1.21,2.38-2,2.25c-7.49-.85-9.74-.23-12,.62S3.39,34.88,0,33.71v3.16c2.38.55,7.39-.62,9-1.24s4.92-1.72,8.3-3c7.62-3.68,8.07-2.77,11-2.37S31,30,31.45,29.14a9,9,0,0,1,2.6-2.7Z"/><path class="cls-1" d="M427.09,38.48a4.27,4.27,0,1,1,4.29,4.38A4.25,4.25,0,0,1,427.09,38.48Zm4.29,5.24A5.23,5.23,0,1,0,426,38.48,5.22,5.22,0,0,0,431.38,43.72Zm-1.11-4.83h1.06l1.6,2.62h1l-1.72-2.66a1.58,1.58,0,0,0,1.57-1.67c0-1.2-.71-1.73-2.14-1.73h-2.31v6.05h.92Zm0-.78V36.24h1.25c.64,0,1.32.14,1.32.89,0,.93-.69,1-1.47,1Z"/></svg>