<svg id="Layer_1" data-name="Layer 1" xmlns="http://www.w3.org/2000/svg" viewBox="0 0 309.03 47.65"><defs><style>.cls-1{fill:#fff;}.cls-2{fill:#0073b8;}</style></defs><polygon class="cls-1" points="280.65 9.29 290.48 9.23 290.59 18.54 300.13 18.54 300.13 28.6 290.59 28.43 290.53 37.62 280.59 37.85 280.59 28.43 270.82 28.25 270.76 18.42 280.53 18.31 280.65 9.29"/><path class="cls-2" d="M308.83,37.13V27h-14a4.39,4.39,0,0,0-3.9,2.74l.05-.11L271.85,67.17a4.38,4.38,0,0,0-.51,2.15,5,5,0,0,0,5,5l13.52,0,9.41-19.11V74.29h14.19l4.76-9.8v9.8h14.43a4.43,4.43,0,0,0,4.45-4.41l0-38.46A4.41,4.41,0,0,0,332.64,27H313.58l-4.75,9.46h9.35v9.35h9.57v9.37h-9.54v9.34h-9.38V55.18h-9.57V45.81h9.57V37.13Z" transform="translate(-28.06 -26.96)"/><path class="cls-2" d="M63.79,57.17c-.24-5.31-.55-11.71-.49-17.32h-.18c-1.34,5.06-3,10.61-4.88,15.79l-6,17.81H46.47L41,55.89c-1.58-5.25-3-10.86-4.14-16h-.12c-.19,5.43-.43,11.95-.73,17.56l-.92,16.53h-7l2.74-41.1h9.88l5.37,16.52c1.46,4.82,2.74,9.7,3.78,14.27H50c1.1-4.45,2.5-9.51,4.09-14.33l5.67-16.46h9.75l2.38,41.1H64.58Z" transform="translate(-28.06 -26.96)"/><path class="cls-2" d="M102.78,65c0,3.54.12,6.47.25,8.91H96.44l-.37-4.52H96a10.73,10.73,0,0,1-9.51,5.19c-5.43,0-10.37-3.24-10.37-12.93V44.24h7.5V60.4c0,4.94,1.59,8.11,5.55,8.11a6.3,6.3,0,0,0,5.73-4,6.64,6.64,0,0,0,.43-2.31V44.24h7.5Z" transform="translate(-28.06 -26.96)"/><path class="cls-2" d="M108.12,30.64h7.56v43.3h-7.56Z" transform="translate(-28.06 -26.96)"/><path class="cls-2" d="M130.71,36.62v7.62h7.13v5.61h-7.13V63c0,3.6,1,5.49,3.84,5.49a9.12,9.12,0,0,0,2.93-.37l.12,5.73a16.09,16.09,0,0,1-5.43.8,8.72,8.72,0,0,1-6.46-2.5c-1.59-1.71-2.32-4.39-2.32-8.3v-14h-4.27V44.24h4.27V38.75Z" transform="translate(-28.06 -26.96)"/><path class="cls-2" d="M150.12,36a4.21,4.21,0,1,1-4.21-4.09A4,4,0,0,1,150.12,36Zm-8,38V44.24h7.56v29.7Z" transform="translate(-28.06 -26.96)"/><path class="cls-2" d="M182.78,67.48a23.77,23.77,0,0,1-6.28.85c-9,0-14.33-5.8-14.33-14.82,0-9.88,6-15.12,14.39-15.12a20,20,0,0,1,8,1.58l1.65-6c-1.52-.79-5.06-1.82-10-1.82-12.56,0-21.95,8.17-21.95,21.71,0,12.5,7.93,20.73,21,20.73a26.29,26.29,0,0,0,10.47-1.83A8.55,8.55,0,0,1,182.78,67.48Z" transform="translate(-28.06 -26.96)"/><path class="cls-2" d="M217.43,53.81c0-4-.06-6.89-.24-9.57h6.52l.25,5.67h.24c1.47-4.21,4.94-6.34,8.11-6.34a8,8,0,0,1,1.77.18v7.07a10.6,10.6,0,0,0-2.2-.24,6.6,6.6,0,0,0-6.7,5.67,12.21,12.21,0,0,0-.25,2.32V73.94h-7.5Z" transform="translate(-28.06 -26.96)"/><path class="cls-2" d="M242.29,61.19c.19,5.37,4.39,7.69,9.15,7.69a22.16,22.16,0,0,0,8.23-1.35l1.1,5.18a27.76,27.76,0,0,1-10.36,1.9c-9.64,0-15.32-6-15.32-15.07,0-8.23,5-16,14.52-16,9.7,0,12.81,7.92,12.81,14.45a18.53,18.53,0,0,1-.25,3.17ZM255.34,56c.06-2.74-1.16-7.26-6.16-7.26-4.63,0-6.58,4.21-6.89,7.26Z" transform="translate(-28.06 -26.96)"/><path class="cls-2" d="M212,66.8a47,47,0,0,0,.43,7.14h-6.77l-.49-3.3H205a11,11,0,0,1-8.78,4c-6,0-9.33-4.33-9.33-8.85,0-7.5,6.65-11.27,17.62-11.22v-.48c0-2-.79-5.19-6-5.19a15.73,15.73,0,0,0-8,2.2L189,46.19a21.36,21.36,0,0,1,10.73-2.62c9.51,0,12.25,6,12.25,12.5Zm-7.31-7.38c-5.31-.12-10.37,1-10.37,5.55a3.94,3.94,0,0,0,4.27,4.27,6.06,6.06,0,0,0,5.85-4.09,5.16,5.16,0,0,0,.25-1.64Z" transform="translate(-28.06 -26.96)"/></svg>