<svg width="730" height="137" viewBox="0 0 730 137" fill="none" xmlns="http://www.w3.org/2000/svg">
<path fill-rule="evenodd" clip-rule="evenodd" d="M227.514 0H245.165L266.521 44.839V0H277.868V56.974H261.084L239.019 9.693V56.974H227.514V0Z" fill="#4E2A84"/>
<path fill-rule="evenodd" clip-rule="evenodd" d="M304.421 50.276C309.543 50.276 313.01 47.203 313.01 36.644C313.01 31.363 311.986 24.035 304.264 24.035C295.753 24.035 295.674 33.885 295.674 37.511C295.674 46.414 298.668 50.276 304.421 50.276ZM304.264 16.233C318.684 16.233 324.91 26.005 324.91 37.116C324.91 48.306 318.448 58.393 304.026 58.393C292.679 58.393 283.696 51.38 283.696 37.432C283.696 27.817 288.582 16.233 304.264 16.233Z" fill="#4E2A84"/>
<path fill-rule="evenodd" clip-rule="evenodd" d="M330.895 26.95C330.895 25.059 330.58 19.307 330.344 17.022H341.297L341.533 24.665C343.031 21.276 345.632 16.47 355.087 16.942V27.424C343.267 26.319 342.558 32.389 342.558 37.353V56.9739H330.895V26.95Z" fill="#4E2A84"/>
<path fill-rule="evenodd" clip-rule="evenodd" d="M387.884 56.424C384.102 57.447 380.713 57.685 378.82 57.685C367.08 57.685 367.08 50.276 367.08 46.966V25.138H359.437V17.415H367.08V9.61403L378.664 5.35803V17.415H388.12V25.138H378.664V43.105C378.743 46.731 378.743 49.015 383.943 49.015C385.678 49.015 386.465 48.937 387.884 48.779V56.424Z" fill="#4E2A84"/>
<path fill-rule="evenodd" clip-rule="evenodd" d="M395.053 0.0789795H406.636V22.616C407.976 20.725 410.893 16.627 418.142 16.627C424.052 16.627 427.834 19.543 429.726 21.985C431.145 23.956 432.326 27.581 432.326 32.782V56.974H420.742V33.176C420.742 30.891 420.742 24.508 414.201 24.508C410.893 24.508 406.715 26.398 406.715 32.624L406.794 56.974H395.053V0.0789795Z" fill="#4E2A84"/>
<path fill-rule="evenodd" clip-rule="evenodd" d="M447.768 17.1801L455.096 47.2031L463.528 17.1801H476.373L484.727 47.2031L492.527 17.1801H504.112L490.479 56.9741H477.791L469.597 27.5021L461.243 56.9741H448.398L435.396 17.1801H447.768Z" fill="#4E2A84"/>
<path fill-rule="evenodd" clip-rule="evenodd" d="M530.759 32.703C530.759 30.891 530.602 23.798 523.825 23.798C518.703 23.798 516.575 28.053 516.339 32.703H530.759ZM515.944 40.032C515.944 42.632 515.944 50.669 524.061 50.669C526.977 50.669 529.893 49.566 530.995 45.153H541.634C541.477 47.045 541.082 50.434 537.852 53.823C534.936 56.895 529.734 58.472 523.904 58.472C520.516 58.472 514.053 57.841 509.877 53.507C506.252 49.725 504.755 44.365 504.755 37.982C504.755 31.522 506.33 23.798 513.028 19.148C516.103 17.101 519.885 15.84 524.219 15.84C529.893 15.84 536.669 18.045 540.295 25.452C542.974 30.891 542.816 36.722 542.659 40.032H515.944Z" fill="#4E2A84"/>
<path fill-rule="evenodd" clip-rule="evenodd" d="M558.495 45.47C558.652 47.991 560.229 50.906 565.115 50.906C569.291 50.906 571.261 48.543 571.261 46.179C571.261 44.365 570.314 42.947 565.744 41.687L558.495 39.717C555.264 38.772 548.408 36.8 548.408 28.685C548.408 20.962 555.501 16.233 565.823 16.233C574.02 16.233 580.639 20.016 580.953 27.975H570.314C570 23.563 566.455 23.247 564.641 23.247C561.489 23.247 559.125 24.744 559.125 27.188C559.125 29.866 561.096 30.417 564.563 31.363L571.733 33.333C578.984 35.304 582.372 39.007 582.372 44.444C582.372 51.301 576.462 58.155 564.09 58.155C558.967 58.155 554.082 57.053 550.457 53.271C547.856 50.513 547.62 47.36 547.542 45.47H558.495Z" fill="#4E2A84"/>
<path fill-rule="evenodd" clip-rule="evenodd" d="M613.181 56.424C609.398 57.447 606.01 57.685 604.119 57.685C592.377 57.685 592.377 50.276 592.377 46.966V25.138H584.733V17.415H592.377V9.61403L603.962 5.35803V17.415H613.418V25.138H603.962V43.105C604.041 46.731 604.041 49.015 609.242 49.015C610.976 49.015 611.764 48.937 613.181 48.779V56.424Z" fill="#4E2A84"/>
<path fill-rule="evenodd" clip-rule="evenodd" d="M643.063 32.703C643.063 30.891 642.904 23.798 636.128 23.798C631.006 23.798 628.878 28.053 628.642 32.703H643.063ZM628.248 40.032C628.248 42.632 628.248 50.669 636.363 50.669C639.28 50.669 642.196 49.566 643.3 45.153H653.938C653.78 47.045 653.387 50.434 650.155 53.823C647.24 56.895 642.039 58.472 636.207 58.472C632.818 58.472 626.355 57.841 622.18 53.507C618.555 49.725 617.058 44.365 617.058 37.982C617.058 31.522 618.634 23.798 625.332 19.148C628.405 17.101 632.188 15.84 636.521 15.84C642.196 15.84 648.972 18.045 652.598 25.452C655.276 30.891 655.119 36.722 654.962 40.032H628.248Z" fill="#4E2A84"/>
<path fill-rule="evenodd" clip-rule="evenodd" d="M661.894 26.95C661.894 25.059 661.578 19.307 661.343 17.022H672.297L672.532 24.665C674.028 21.276 676.629 16.47 686.086 16.942V27.424C674.266 26.319 673.558 32.389 673.558 37.353V56.9739H661.894V26.95Z" fill="#4E2A84"/>
<path fill-rule="evenodd" clip-rule="evenodd" d="M691.75 24.2701C691.75 24.1121 691.75 19.78 691.514 17.022H702.703L703.019 23.01C704.122 21.1971 707.273 16.076 715.941 16.076C723.744 16.076 727.054 20.804 728.078 23.563C728.945 26.005 729.181 28.0531 729.181 35.4601V56.974H717.281V32.2311C717.281 30.5751 717.281 29.156 716.651 27.896C715.784 26.163 713.972 24.508 710.978 24.508C708.456 24.508 706.171 25.6901 704.91 27.581C704.201 28.606 703.491 30.5751 703.491 33.649V56.974H691.75V24.2701Z" fill="#4E2A84"/>
<mask id="mask0_239_307" style="mask-type:luminance" maskUnits="userSpaceOnUse" x="227" y="78" width="203" height="59">
<path fill-rule="evenodd" clip-rule="evenodd" d="M227.514 78.099H429.785V136.116H227.514V78.099Z" fill="white"/>
</mask>
<g mask="url(#mask0_239_307)">
<path fill-rule="evenodd" clip-rule="evenodd" d="M227.514 134.994V78.099H235.709L257.064 127.666L278.892 78.099H286.693V134.994H281.571V82.433H281.414L259.664 134.994H254.542L232.792 82.669H232.636V134.994H227.514Z" fill="#4E2A84"/>
<path fill-rule="evenodd" clip-rule="evenodd" d="M325.223 111.984C324.671 104.341 320.574 98.588 312.379 98.588C304.655 98.588 300.557 105.049 299.927 111.984H325.223ZM299.77 116.318C299.927 124.75 303.788 131.842 313.481 131.842C319.076 131.842 323.726 127.823 324.908 122.386H329.872C327.43 131.842 321.519 136.176 311.983 136.176C300.163 136.176 294.647 126.011 294.647 115.214C294.647 104.497 300.557 94.254 312.299 94.254C325.538 94.254 330.345 103.945 330.345 116.318H299.77Z" fill="#4E2A84"/>
<path fill-rule="evenodd" clip-rule="evenodd" d="M354.139 98.588C345.155 98.588 342.24 106.941 342.24 114.506C342.24 121.834 344.368 131.842 353.43 131.842C363.754 131.842 366.905 123.253 366.905 114.27C366.905 106.231 363.359 98.588 354.139 98.588ZM367.063 129.162L366.905 128.848C363.674 133.575 358.868 136.176 353.352 136.176C341.609 136.176 337.117 124.986 337.117 115.058C337.117 104.813 341.609 94.254 353.352 94.254C358.631 94.254 364.146 96.775 366.905 101.424L367.063 101.266V78.099H371.791V126.089C371.791 129.162 372.027 132.314 372.186 134.994H367.299L367.063 129.162Z" fill="#4E2A84"/>
<path fill-rule="evenodd" clip-rule="evenodd" d="M382.9 134.994H387.628V95.436H382.9V134.994ZM382.507 84.009H388.022V78.099H382.507V84.009Z" fill="#4E2A84"/>
<path fill-rule="evenodd" clip-rule="evenodd" d="M424.662 107.57C424.27 101.503 420.407 98.588 413.867 98.588C406.617 98.588 402.125 106.152 402.125 115.136C402.125 124.198 406.617 131.842 413.867 131.842C420.014 131.842 424.27 128.06 424.662 122.623H429.785C428.523 131.685 423.322 136.176 414.34 136.176C402.52 136.176 397.003 126.011 397.003 115.214C397.003 104.497 402.914 94.254 414.654 94.254C422.771 94.254 429.392 99.14 429.785 107.57H424.662Z" fill="#4E2A84"/>
</g>
<path fill-rule="evenodd" clip-rule="evenodd" d="M438.371 134.994H443.099V95.436H438.371V134.994ZM437.977 84.009H443.494V78.099H437.977V84.009Z" fill="#4E2A84"/>
<path fill-rule="evenodd" clip-rule="evenodd" d="M459.725 134.994H454.996V104.341C454.996 101.266 454.759 98.115 454.602 95.436H459.487L459.725 101.266L459.881 101.424C462.64 96.538 467.132 94.254 472.254 94.254C485.177 94.254 486.202 105.681 486.202 110.25V134.994H481.474V109.463C481.474 102.605 477.533 98.588 471.072 98.588C463.27 98.588 459.725 105.128 459.725 112.22V134.994Z" fill="#4E2A84"/>
<path fill-rule="evenodd" clip-rule="evenodd" d="M524.261 111.984C523.709 104.341 519.612 98.588 511.417 98.588C503.693 98.588 499.595 105.049 498.965 111.984H524.261ZM498.808 116.318C498.965 124.75 502.826 131.842 512.52 131.842C518.114 131.842 522.764 127.823 523.946 122.386H528.91C526.468 131.842 520.557 136.176 511.021 136.176C499.201 136.176 493.686 126.011 493.686 115.214C493.686 104.497 499.595 94.254 511.338 94.254C524.576 94.254 529.383 103.945 529.383 116.318H498.808Z" fill="#4E2A84"/>
<path fill-rule="evenodd" clip-rule="evenodd" d="M14.659 20.473L76.42 135.125H110.722L39.394 0.125H0V135.125H14.659V20.473Z" fill="#4E2A84"/>
<path fill-rule="evenodd" clip-rule="evenodd" d="M159.626 135.125H190V0.125H159.677L123.977 64.332L90.02 0.125H55.297L114.491 111.959L159.677 30.448L159.626 135.125Z" fill="#4E2A84"/>
<path fill-rule="evenodd" clip-rule="evenodd" d="M536.683 95.963C533.621 95.963 531.146 93.484 531.146 90.421C531.146 87.397 533.621 84.916 536.683 84.916C539.731 84.916 542.189 87.397 542.189 90.421C542.189 93.484 539.731 95.963 536.683 95.963ZM536.682 83.999C533.106 83.999 530.227 86.881 530.227 90.423C530.227 94.002 533.106 96.88 536.682 96.88C540.247 96.88 543.108 94.002 543.108 90.423C543.108 86.881 540.247 83.999 536.682 83.999Z" fill="#4E2A84"/>
<path fill-rule="evenodd" clip-rule="evenodd" d="M536.918 90.143H535.091V87.502H537.27C538.091 87.502 538.441 88.053 538.441 88.796C538.441 89.898 537.741 90.143 536.918 90.143ZM539.161 92.136C539.097 91.394 538.938 90.746 538.172 90.577V90.557C538.967 90.302 539.317 89.548 539.317 88.637C539.317 87.429 538.551 86.653 537.316 86.653H534.216V94.225H535.091V90.99H537.233C538.081 90.99 538.238 91.616 538.331 92.358C538.461 93.101 538.322 93.917 538.571 94.225H539.548C539.179 93.704 539.216 92.877 539.161 92.136Z" fill="#4E2A84"/>
</svg>
