<?xml version="1.0" encoding="utf-8"?>
<!-- Generator: Adobe Illustrator 25.0.1, SVG Export Plug-In . SVG Version: 6.00 Build 0)  -->
<svg version="1.1" id="Layer_3" xmlns="http://www.w3.org/2000/svg" xmlns:xlink="http://www.w3.org/1999/xlink" x="0px" y="0px"
	 viewBox="0 0 418.43 76.3" style="enable-background:new 0 0 418.43 76.3;" xml:space="preserve">
<style type="text/css">
	.st0{fill:#00539B;}
	.st1{fill:#00A160;}
</style>
<g>
	<path class="st0" d="M121.02,18.49v7.38h-10.45v32.66h-9.31V25.87H91.06v-7.38H121.02z"/>
	<path class="st0" d="M142.22,51.33v6.18l-0.72,0.18l-2.16,0.66c-1.38,0.42-4.02,0.72-6.54,0.72c-10.39,0-16.15-5.46-16.15-15.31
		c0-8.95,5.34-14.47,14.23-14.47c4.14,0,6.9,1.2,9.31,3.9c2.34,2.7,3,5.04,3,10.45v2.64h-17.83c0.18,4.14,3.06,6.13,9.01,6.13
		C137.65,52.41,139.15,52.17,142.22,51.33z M125.23,41.6h9.61v-1.5c0-2.88-1.74-4.62-4.62-4.62c-2.94,0-4.98,1.86-4.98,4.68V41.6z"
		/>
	<path class="st0" d="M144.26,29.78h9.85l5.4,8.52l5.16-8.52h9.43l-10.03,14.29l10.27,14.47h-9.97l-5.34-8.59l-5.34,8.59h-9.55
		l10.33-14.47L144.26,29.78z"/>
	<path class="st0" d="M177.94,31.7c2.94-1.5,6.84-2.4,10.51-2.4c3.06,0,5.7,0.54,7.87,1.5c2.88,1.32,3.96,3.12,3.96,6.42v13.39
		c0,1.8,0.48,2.82,2.04,4.26l-5.28,4.32c-0.18-0.12-0.36-0.3-0.48-0.36c-1.56-1.38-1.98-1.56-3.54-1.56c-0.9,0-1.62,0.18-2.76,0.54
		c-3.48,1.14-3.9,1.26-6.42,1.26c-5.28,0-8.59-3.18-8.59-8.34c0-5.53,4.32-8.89,11.35-8.89h2.58c2.04,0,3.06-0.9,3.06-2.82
		c0-2.4-1.38-3.3-4.74-3.3c-3.12,0-7.74,0.96-9.55,2.04V31.7z M192.23,46.89h-4.08c-2.7,0-4.08,1.08-4.08,3.12
		c0,1.8,1.2,2.88,3.3,2.88h1.5c2.22,0,3.36-1.14,3.36-3.54V46.89z"/>
	<path class="st0" d="M205.19,50.85c3.06,1.5,6.78,2.52,9.49,2.52c2.4,0,3.6-0.9,3.6-2.7c0-1.44-0.6-2.04-2.64-2.94l-3.9-1.68
		c-4.92-2.1-6.78-4.32-6.78-8.1c0-5.64,4.26-8.65,12.25-8.65c3.65,0,5.81,0.36,7.67,1.26v6c-2.22-1.08-4.61-1.62-7.42-1.62
		c-2.64,0-3.9,0.78-3.9,2.28c0,1.2,0.6,1.8,2.7,2.64l5.15,2.16c3.78,1.56,5.4,3.9,5.4,7.69c0,5.77-4.38,9.31-11.57,9.31
		c-4.03,0-7.51-0.66-10.03-1.86V50.85z"/>
	<path class="st0" d="M245.22,18.49h9.31v15.73h16.69V18.49h9.43l-0.18,40.05h-9.24V41.36h-16.69v17.17h-9.31V18.49z"/>
	<path class="st0" d="M309.28,51.33v6.18l-0.72,0.18l-2.16,0.66c-1.38,0.42-4.02,0.72-6.55,0.72c-10.39,0-16.15-5.46-16.15-15.31
		c0-8.95,5.34-14.47,14.23-14.47c4.14,0,6.9,1.2,9.31,3.9c2.34,2.7,3,5.04,3,10.45v2.64h-17.83c0.18,4.14,3.06,6.13,9.01,6.13
		C304.72,52.41,306.22,52.17,309.28,51.33z M292.29,41.6h9.61v-1.5c0-2.88-1.74-4.62-4.62-4.62c-2.94,0-4.98,1.86-4.98,4.68V41.6z"
		/>
	<path class="st0" d="M315.83,31.7c2.94-1.5,6.85-2.4,10.51-2.4c3.06,0,5.7,0.54,7.86,1.5c2.88,1.32,3.96,3.12,3.96,6.42v13.39
		c0,1.8,0.48,2.82,2.04,4.26l-5.28,4.32c-0.18-0.12-0.36-0.3-0.48-0.36c-1.56-1.38-1.98-1.56-3.54-1.56c-0.9,0-1.62,0.18-2.76,0.54
		c-3.48,1.14-3.9,1.26-6.43,1.26c-5.28,0-8.59-3.18-8.59-8.34c0-5.53,4.32-8.89,11.35-8.89h2.58c2.04,0,3.06-0.9,3.06-2.82
		c0-2.4-1.38-3.3-4.74-3.3c-3.12,0-7.75,0.96-9.55,2.04V31.7z M330.12,46.89h-4.08c-2.7,0-4.08,1.08-4.08,3.12
		c0,1.8,1.2,2.88,3.3,2.88h1.5c2.22,0,3.36-1.14,3.36-3.54V46.89z"/>
	<path class="st0" d="M351.44,18.49l-0.04,40.05h-8.31l-0.06-40.05H351.44z"/>
	<path class="st0" d="M354.31,29.78h3.9v-8.83h8.35v8.83h6.42v4.92h-6.42v13.99c0,2.64,0.78,3.48,3.3,3.48h3.12v6.37h-7.2
		c-4.92,0-7.57-2.58-7.57-7.39V34.7h-3.9V29.78z"/>
	<path class="st0" d="M384.63,33.02c3.3-2.88,5.28-3.72,8.83-3.72c5.76,0,9.13,3.06,9.13,8.35v20.89h-8.65V40.04
		c0-2.4-1.56-3.84-4.2-3.84c-3.18,0-5.1,1.98-5.1,5.28v17.05h-8.47V18.49h8.47V33.02z"/>
</g>
<path class="st1" d="M30.63,66.95l-0.1-0.21l-0.21-0.08c-3.45-1.39-6.65-3.51-9.26-6.13c-6.37-6.42-9.35-16.02-6.92-22.34
	c0.47-1.2,1.12-2.23,1.93-3.05c1.6-1.6,3.88-2.48,6.78-2.63c-0.03,0,5.27,0,5.27,0h0.59v-6.1H22.6c-0.05,0.01-0.09,0.01-0.09,0.01
	l0.06,0c-6.84,0.31-11.83,3.71-14.09,9.57c-3.29,8.56,0.19,20.69,8.28,28.85c5.01,5.04,11.97,8.54,18.64,9.38l2.33,0.29l-1.91-1.37
	C33.59,71.56,31.85,69.47,30.63,66.95z M14.76,25.95l0.2-0.1l0.09-0.22c1.38-3.44,3.5-6.64,6.13-9.25
	c6.41-6.37,16.01-9.34,22.33-6.91c3.5,1.35,5.46,4.36,5.67,8.7c0-0.03,0,5.27,0,5.27v0.6h6.11V17.9c-0.33-6.85-3.72-11.85-9.58-14.1
	c-8.57-3.3-20.7,0.19-28.85,8.28c-5.05,5.01-8.56,11.97-9.39,18.63l-0.29,2.33l1.36-1.91C10.15,28.91,12.24,27.16,14.76,25.95z
	 M77.83,45.89c-1.6,2.23-3.69,3.97-6.2,5.19l-0.21,0.1l-0.09,0.21c-1.38,3.45-3.51,6.65-6.14,9.26c-6.42,6.37-16.02,9.34-22.33,6.91
	c-3.5-1.35-5.47-4.36-5.68-8.7c0,0.03,0-5.28,0-5.28v-0.6h-6.11v0.6c0,5.54,0,5.55,0.01,5.6c0.32,6.79,3.72,11.78,9.58,14.03
	c8.56,3.3,20.7-0.18,28.85-8.28c5.04-5.01,8.55-11.98,9.38-18.64l0.3-2.32L77.83,45.89z M55.76,10.08l0.1,0.21l0.21,0.09
	c3.45,1.38,6.64,3.5,9.26,6.13c6.37,6.42,9.34,16.03,6.91,22.33c-0.46,1.2-1.11,2.22-1.93,3.05c-1.59,1.6-3.87,2.49-6.77,2.63
	c0.03,0-0.24,0-0.24,0l-5.04,0h-0.59v0.59l0,4.92v0.59h0.59l5.5,0.01c6.87-0.32,11.88-3.72,14.13-9.58
	c3.29-8.56-0.19-20.69-8.28-28.85C64.62,7.14,57.65,3.63,50.99,2.8l-2.33-0.29l1.91,1.37C52.8,5.47,54.55,7.56,55.76,10.08z"/>
<path class="st0" d="M39.39,26.41v6h24.05c2.64,0.13,4.8,0.88,6.38,2.23l0.96,0.82l0.03-1.26c0.04-1.97-0.33-4.16-1.05-6.31
	l-0.09-0.27l-0.27-0.1c-1.76-0.64-3.69-1.02-5.73-1.11c-0.03,0-23.69,0-23.69,0H39.39z"/>
<path class="st0" d="M49.04,60.82c-0.21,1.13-0.57,2.15-1.07,3.04c-0.26,0.46-0.56,0.89-0.9,1.29l-0.81,0.95l1.26,0.03
	c1.96,0.04,4.14-0.32,6.29-1.05l0.27-0.09l0.1-0.27c0.64-1.76,1.02-3.69,1.11-5.74c0-0.03-0.01-23.68-0.01-23.68l0-0.59h-6v0.59
	l0.01,9.49v2.18v0.01l0.01,11.82c-0.03,0.66-0.11,1.28-0.21,1.88C49.07,60.73,49.06,60.77,49.04,60.82z"/>
<path class="st0" d="M37.09,41.72c0-18.83,0-23.19,0.01-23.47c0.13-2.67,0.88-4.79,2.21-6.37l0.81-0.95l-1.25-0.02
	c-1.97-0.04-4.15,0.32-6.3,1.04l-0.27,0.09l-0.1,0.27c-0.64,1.77-1.02,3.7-1.11,5.73c0,0.03,0,23.68,0,23.68v0.6h6V41.72z"/>
<path class="st0" d="M16.72,49.4l0.27,0.1c1.74,0.63,3.67,1.01,5.73,1.11c0.03,0,23.68-0.01,23.68-0.01l0.59,0v-0.59l0-4.81l0-0.6
	h-0.59l-23.51,0.02c-2.61-0.13-4.75-0.88-6.33-2.23l-0.95-0.82l-0.03,1.26c-0.04,1.97,0.32,4.15,1.05,6.3L16.72,49.4z"/>
<path class="st0" d="M406.86,27.65c-2.63,0-4.51-1.97-4.51-4.58c0-2.76,2.08-4.58,4.51-4.58c2.4,0,4.49,1.83,4.49,4.58
	C411.34,25.83,409.26,27.65,406.86,27.65L406.86,27.65z M406.86,19.28c-1.99,0-3.53,1.56-3.53,3.79c0,2.08,1.35,3.79,3.53,3.79
	c1.96,0,3.51-1.54,3.51-3.79C410.36,20.84,408.82,19.28,406.86,19.28L406.86,19.28z M405.95,25.69h-0.83v-5.07h1.92
	c1.23,0,1.85,0.43,1.85,1.46c0,0.92-0.57,1.3-1.32,1.38l1.42,2.23h-0.94l-1.31-2.17h-0.78V25.69L405.95,25.69z M406.88,22.81
	c0.62,0,1.18-0.06,1.18-0.8c0-0.61-0.6-0.68-1.1-0.68h-1v1.48H406.88L406.88,22.81z"/>
</svg>
