<?xml version="1.0" encoding="UTF-8" standalone="no"?>
<!-- Created with Inkscape (http://www.inkscape.org/) -->

<svg
   width="263.36127mm"
   height="76.332298mm"
   viewBox="0 0 263.36126 76.332299"
   version="1.1"
   id="svg1"
   xml:space="preserve"
   inkscape:version="1.3.2 (091e20e, 2023-11-25)"
   sodipodi:docname="Trinity Health.svg"
   xmlns:inkscape="http://www.inkscape.org/namespaces/inkscape"
   xmlns:sodipodi="http://sodipodi.sourceforge.net/DTD/sodipodi-0.dtd"
   xmlns="http://www.w3.org/2000/svg"
   xmlns:svg="http://www.w3.org/2000/svg"><sodipodi:namedview
     id="namedview1"
     pagecolor="#ffffff"
     bordercolor="#666666"
     borderopacity="1.0"
     inkscape:showpageshadow="2"
     inkscape:pageopacity="0.0"
     inkscape:pagecheckerboard="0"
     inkscape:deskcolor="#d1d1d1"
     inkscape:document-units="mm"
     inkscape:zoom="1.3236855"
     inkscape:cx="353.5583"
     inkscape:cy="157.51476"
     inkscape:window-width="1728"
     inkscape:window-height="1080"
     inkscape:window-x="0"
     inkscape:window-y="37"
     inkscape:window-maximized="0"
     inkscape:current-layer="g1" /><defs
     id="defs1" /><g
     inkscape:label="Layer 1"
     inkscape:groupmode="layer"
     id="layer1"
     transform="translate(14.965194,-19.463228)"><g
       id="g1"
       transform="translate(12.11156,-90.836702)"><path
         style="fill:#9bc75f"
         d="m -23.817947,144.03643 c 6.755784,-6.55983 11.130916,-9.0169 16.0557773,-9.0169 2.2693882,0 4.2392595,0.47277 6.2838544,1.50812 0.69122403,0.35002 1.25677093,0.58926 1.25677093,0.53163 0,-0.0576 -0.31121812,-0.78457 -0.69159583,-1.61542 -2.345119,-5.12242 -1.7916357,-9.77403 1.79217288,-15.06189 1.32032902,-1.94813 4.82471002,-6.00383 7.22550382,-8.36225 l 1.7506953,-1.71979 -1.0581824,2.29511 c -4.8235941,10.46196 -5.5444596,21.99345 -1.9589691,31.33709 0.086483,0.22537 -0.3267743,0.15944 -1.2832169,-0.20473 -0.7759304,-0.29544 -2.4823451,-0.77234 -3.7920327,-1.05979 -8.3309196,-1.82845 -17.6768447,-0.63206 -26.3260427,3.37005 l -2.513542,1.16305 z"
         id="path6" /><path
         style="fill:#906b99"
         d="m 12.743039,185.97077 c 0.341775,-0.36381 0.68094,-0.66146 0.7537,-0.66146 0.07276,0 -0.147342,0.29765 -0.489116,0.66146 -0.341775,0.3638 -0.680939,0.66146 -0.7537,0.66146 -0.07276,0 0.147342,-0.29766 0.489116,-0.66146 z m -6.8991917,-3.50573 -0.6414331,-0.72761 0.7276042,0.64144 c 0.6800557,0.59951 0.848939,0.81377 0.6414331,0.81377 -0.047394,0 -0.374816,-0.32742 -0.7276042,-0.7276 z M 17.526428,167.95705 c 0.0127,-0.30822 0.07539,-0.37092 0.159852,-0.15985 0.07643,0.19099 0.06703,0.4192 -0.02089,0.50712 -0.08792,0.0879 -0.150453,-0.0683 -0.138964,-0.34727 z m 6.933953,-0.7717 c 0.002,-0.7276 0.05337,-0.99386 0.114186,-0.59168 0.06082,0.40219 0.05919,0.9975 -0.0036,1.32292 -0.0628,0.32542 -0.11256,-0.004 -0.110574,-0.73124 z m -6.933953,-3.9908 c 0.0127,-0.30822 0.07539,-0.37092 0.159852,-0.15985 0.07643,0.19099 0.06703,0.4192 -0.02089,0.50712 -0.08792,0.0879 -0.150453,-0.0684 -0.138964,-0.34727 z M 4.561844,161.87163 c 0.012696,-0.30822 0.07539,-0.37092 0.1598524,-0.15985 0.07643,0.191 0.067031,0.4192 -0.020888,0.50712 -0.087919,0.0879 -0.1504527,-0.0683 -0.1389644,-0.34727 z m -27.306722,-7.98159 c -0.329107,-0.41965 -0.319749,-0.42901 0.0999,-0.0999 0.254662,0.19972 0.463021,0.40808 0.463021,0.46302 0,0.21776 -0.217272,0.0776 -0.562916,-0.36312 z m 70.220768,-2.59636 c 0.548165,-0.59125 0.904946,-1.17588 0.792845,-1.29919 -0.112101,-0.1233 -0.06516,-0.14483 0.104312,-0.0478 0.169472,0.097 0.361531,0.0268 0.426798,-0.15602 0.06527,-0.1828 0.191755,-0.26566 0.281084,-0.18413 0.08933,0.0815 -0.45951,0.73638 -1.219643,1.45521 -1.020835,0.96536 -1.121565,1.02599 -0.385396,0.23196 z m -2.209125,-7.98698 -0.641433,-0.7276 0.727605,0.64143 c 0.680055,0.59952 0.848939,0.81378 0.641433,0.81378 -0.04739,0 -0.374816,-0.32742 -0.727605,-0.72761 z m -18.963829,-1.57144 c 0.254661,-0.0666 0.67138,-0.0666 0.926042,0 0.254661,0.0665 0.0463,0.121 -0.463021,0.121 -0.509323,0 -0.717683,-0.0545 -0.463021,-0.121 z m 3.175,0 c 0.254661,-0.0666 0.67138,-0.0666 0.926042,0 0.254661,0.0665 0.0463,0.121 -0.463021,0.121 -0.509323,0 -0.717683,-0.0545 -0.463021,-0.121 z m -11.93062,-8.28429 c 0,-0.3638 0.06005,-0.51263 0.133452,-0.33073 0.0734,0.18191 0.0734,0.47956 0,0.66146 -0.0734,0.1819 -0.133452,0.0331 -0.133452,-0.33073 z m 6.909454,-3.96875 c 0,-0.65484 0.0516,-0.92273 0.114662,-0.59531 0.06306,0.32742 0.06306,0.8632 0,1.19063 -0.06306,0.32742 -0.114662,0.0595 -0.114662,-0.59532 z m -6.909454,-0.79375 c 0,-0.3638 0.06005,-0.51263 0.133452,-0.33073 0.0734,0.18191 0.0734,0.47956 0,0.66146 -0.0734,0.1819 -0.133452,0.0331 -0.133452,-0.33073 z m -2.303184,-15.41198 -1.045884,-1.12448 1.124479,1.04589 c 1.045755,0.97266 1.246062,1.20307 1.045884,1.20307 -0.04323,0 -0.549243,-0.50601 -1.124479,-1.12448 z"
         id="path5" /><path
         style="fill:#767878"
         d="m 175.00241,159.71945 c 0.40219,-0.0608 0.9975,-0.0592 1.32292,0.004 0.32542,0.0628 -0.004,0.11256 -0.73124,0.11057 -0.72761,-0.002 -0.99386,-0.0534 -0.59168,-0.11418 z m -111.603291,-0.4065 c -0.07002,-0.18248 -0.09454,-4.73662 -0.05448,-10.12031 l 0.07283,-9.78854 0.06278,9.97419 0.06278,9.9742 1.389063,0.0972 1.389063,0.0972 -1.397367,0.0489 c -0.914935,0.032 -1.441321,-0.0656 -1.524681,-0.28283 z m 9.464299,0.14611 1.250584,-0.10741 0.08199,-4.48391 0.08199,-4.48392 -0.0097,4.56431 -0.0097,4.5643 -1.322917,0.027 -1.322917,0.027 z m 12.17702,-0.004 c 0.400182,-0.0606 1.055026,-0.0606 1.455208,0 0.400183,0.0606 0.07276,0.11022 -0.727604,0.11022 -0.800364,0 -1.127786,-0.0496 -0.727604,-0.11022 z m 5.814501,0.004 1.250438,-0.1074 0.08267,-4.41753 0.08267,-4.41753 -0.0102,4.49792 -0.01019,4.49791 -1.322917,0.027 -1.322916,0.027 z m 11.648001,-0.004 c 0.40018,-0.0606 1.05502,-0.0606 1.45521,0 0.40018,0.0606 0.0728,0.11022 -0.72761,0.11022 -0.80036,0 -1.12778,-0.0496 -0.7276,-0.11022 z m 5.29167,0 c 0.40018,-0.0606 1.05502,-0.0606 1.4552,0 0.40019,0.0606 0.0728,0.11022 -0.7276,0.11022 -0.80036,0 -1.12779,-0.0496 -0.7276,-0.11022 z m 39.6875,0 c 0.40018,-0.0606 1.05502,-0.0606 1.45521,0 0.40018,0.0606 0.0728,0.11022 -0.72761,0.11022 -0.80036,0 -1.12779,-0.0496 -0.7276,-0.11022 z m 14.86831,-0.14974 c -0.0716,-0.18658 -0.0948,-2.53806 -0.0515,-5.22552 l 0.0787,-4.88628 0.0598,5.0794 0.0598,5.07941 1.38906,0.0972 1.38907,0.0972 -1.39737,0.0489 c -0.9305,0.0326 -1.44086,-0.0644 -1.52755,-0.2903 z m 37.51527,0.15348 1.25286,-0.10749 0.0762,-7.85702 0.0762,-7.85702 -0.006,7.9375 -0.006,7.9375 -1.32292,0.027 -1.32291,0.027 z m 4.77006,-0.004 c 0.40218,-0.0608 0.99749,-0.0592 1.32291,0.004 0.32543,0.0628 -0.004,0.11256 -0.73124,0.11057 -0.7276,-0.002 -0.99386,-0.0534 -0.59167,-0.11419 z m 17.98154,0.004 1.25029,-0.10739 0.0831,-4.28525 0.0831,-4.28525 -0.0105,4.36563 -0.0105,4.36562 -1.32292,0.027 -1.32291,0.027 z m 11.65179,-0.004 c 0.40218,-0.0608 0.9975,-0.0592 1.32292,0.004 0.32542,0.0628 -0.004,0.11256 -0.73124,0.11057 -0.72761,-0.002 -0.99386,-0.0534 -0.59168,-0.11419 z m -59.65064,-2.10754 c 0.19099,-0.0764 0.4192,-0.067 0.50711,0.0209 0.0879,0.0879 -0.0684,0.15045 -0.34726,0.13896 -0.30823,-0.0127 -0.37092,-0.0754 -0.15985,-0.15985 z m 1.5875,0 c 0.19099,-0.0764 0.4192,-0.067 0.50711,0.0209 0.0879,0.0879 -0.0684,0.15045 -0.34726,0.13896 -0.30823,-0.0127 -0.37092,-0.0754 -0.15985,-0.15985 z m 35.29831,-6.61908 -0.0591,-4.55086 -1.52135,-0.0794 -1.52136,-0.0794 -0.0259,-1.12644 -0.026,-1.12644 0.10731,1.06029 0.10731,1.0603 h 1.4483 c 0.93758,0 1.49443,0.12021 1.57911,0.34089 0.0719,0.18748 0.0948,2.30084 0.0508,4.69635 l -0.08,4.35547 z m -94.12833,-0.47622 0.01,-4.23334 2.44806,-0.0158 2.44807,-0.0158 -2.37541,0.0918 -2.37541,0.0917 -0.0825,4.15734 -0.0825,4.15735 z m 55.77077,2.31584 c 1.85539,-0.0455 4.89149,-0.0455 6.74688,0 1.85539,0.0455 0.33734,0.0827 -3.37344,0.0827 -3.71078,0 -5.22883,-0.0372 -3.37344,-0.0827 z m 14.01816,-0.86064 c 0,-0.50932 0.0545,-0.71768 0.121,-0.46302 0.0665,0.25466 0.0665,0.67138 0,0.92604 -0.0666,0.25467 -0.121,0.0463 -0.121,-0.46302 z m -14.53294,-1.25591 c 1.57225,-0.0469 4.07257,-0.0467 5.55625,3.9e-4 1.48367,0.0471 0.19728,0.0854 -2.85866,0.0852 -3.05593,-2.2e-4 -4.26985,-0.0387 -2.69759,-0.0856 z m 60.79453,-0.22134 c 0.0127,-0.30823 0.0754,-0.37092 0.15985,-0.15986 0.0764,0.191 0.067,0.4192 -0.0209,0.50712 -0.0879,0.0879 -0.15045,-0.0683 -0.13896,-0.34726 z m -45.00006,-2.32681 c 0,-0.0549 0.20836,-0.2633 0.46302,-0.46302 0.41964,-0.32911 0.429,-0.31975 0.0999,0.0999 -0.34565,0.44073 -0.56292,0.58088 -0.56292,0.36312 z m -17.4625,-0.26458 c 0,-0.0549 0.20836,-0.2633 0.46302,-0.46302 0.41964,-0.32911 0.429,-0.31975 0.0999,0.0999 -0.34564,0.44073 -0.56291,0.58089 -0.56291,0.36313 z m -8.62096,-5.58865 c 2.5e-4,-2.76489 0.0395,-3.86004 0.0871,-2.43365 0.0477,1.42639 0.0475,3.68857 -4.6e-4,5.02708 -0.0479,1.33851 -0.0869,0.17147 -0.0867,-2.59343 z m -83.917066,3.91866 c 0.254662,-0.0666 0.671381,-0.0666 0.926042,0 0.254662,0.0666 0.0463,0.121 -0.463021,0.121 -0.509323,0 -0.717682,-0.0544 -0.463021,-0.121 z m 33.998956,-0.009 c 0.47295,-0.0587 1.24685,-0.0587 1.7198,0 0.47294,0.0587 0.086,0.10671 -0.8599,0.10671 -0.94589,0 -1.33284,-0.048 -0.8599,-0.10671 z m 56.68699,0.0915 c 0,-0.0549 0.20835,-0.2633 0.46302,-0.46302 0.41964,-0.32911 0.429,-0.31975 0.0999,0.0999 -0.34564,0.44073 -0.56291,0.58089 -0.56291,0.36313 z m 17.4625,0 c 0,-0.0549 0.20836,-0.2633 0.46302,-0.46302 0.41964,-0.32911 0.429,-0.31975 0.0999,0.0999 -0.34564,0.44073 -0.56291,0.58089 -0.56291,0.36313 z m 28.7823,-0.0955 c 0.76887,-0.0536 1.95949,-0.0531 2.64584,10e-4 0.68634,0.0543 0.0573,0.0982 -1.39793,0.0975 -1.45521,-6.9e-4 -2.01677,-0.0451 -1.24791,-0.0987 z m 8.58325,-4.36869 0.0593,-4.56406 0.0794,4.4434 c 0.0576,3.21902 0.16183,4.39248 0.37845,4.2586 0.18296,-0.11308 0.22574,-0.0662 0.11023,0.12066 -0.54889,0.88812 -0.68251,-0.0188 -0.62742,-4.2586 z m 4.76934,4.38168 c 0.25467,-0.0666 0.67138,-0.0666 0.92605,0 0.25466,0.0666 0.0463,0.121 -0.46303,0.121 -0.50932,0 -0.71768,-0.0544 -0.46302,-0.121 z m -154.582815,-0.479 c 0,-0.21829 0.04679,-0.39688 0.103984,-0.39688 0.05719,0 0.172517,0.17859 0.25628,0.39688 0.08376,0.21828 0.03697,0.39687 -0.103984,0.39687 -0.140954,0 -0.25628,-0.17859 -0.25628,-0.39687 z m 101.007775,0.20974 c 0.32912,-0.0633 0.80537,-0.0609 1.05833,0.005 0.25297,0.0662 -0.0163,0.118 -0.59839,0.11507 -0.58209,-0.003 -0.78906,-0.0571 -0.45994,-0.12041 z m 36.40343,-4.0462 c 0,-1.23693 0.0456,-1.74295 0.10128,-1.12448 0.0557,0.61846 0.0557,1.63049 0,2.24896 -0.0557,0.61846 -0.10128,0.11244 -0.10128,-1.12448 z m 17.05586,1.93592 c 0.19099,-0.0764 0.4192,-0.067 0.50712,0.0209 0.0879,0.0879 -0.0684,0.15045 -0.34727,0.13897 -0.30822,-0.0127 -0.37092,-0.0754 -0.15985,-0.15986 z m 1.5875,0 c 0.19099,-0.0764 0.4192,-0.067 0.50712,0.0209 0.0879,0.0879 -0.0684,0.15045 -0.34727,0.13897 -0.30822,-0.0127 -0.37092,-0.0754 -0.15985,-0.15986 z M 73.672883,138.34577 c 0.002,-0.72761 0.05337,-0.99386 0.114186,-0.59168 0.06081,0.40218 0.05919,0.9975 -0.0036,1.32292 -0.0628,0.32542 -0.11256,-0.004 -0.110574,-0.73124 z m 11.76443,-1.10127 c 0.181901,-0.0734 0.479557,-0.0734 0.661458,0 0.181901,0.0734 0.03307,0.13345 -0.330729,0.13345 -0.363802,0 -0.51263,-0.0601 -0.330729,-0.13345 z m 22.754167,0 c 0.1819,-0.0734 0.47956,-0.0734 0.66146,0 0.1819,0.0734 0.0331,0.13345 -0.33073,0.13345 -0.3638,0 -0.51263,-0.0601 -0.33073,-0.13345 z"
         id="path4" /><path
         style="fill:#7e5187"
         d="m 7.9715011,184.5817 -1.4461702,-1.52135 1.5213542,1.44617 c 0.8367448,0.79539 1.5213542,1.48 1.5213542,1.52135 0,0.19639 -0.2530003,-0.0328 -1.5965382,-1.44617 z m 9.0048719,-3.07645 c 0,-0.0549 0.208359,-0.2633 0.463021,-0.46302 0.419644,-0.32911 0.429002,-0.31975 0.0999,0.0999 -0.345644,0.44073 -0.562916,0.58089 -0.562916,0.36313 z m -41.155159,-29.07042 -1.045884,-1.12448 1.124479,1.04588 c 1.045754,0.97267 1.246062,1.20308 1.045884,1.20308 -0.04323,0 -0.549243,-0.50602 -1.124479,-1.12448 z m 72.823265,-5.6098 c -0.211351,-0.21135 -0.457981,-0.33041 -0.548065,-0.26458 -0.09008,0.0658 -0.101576,0.0376 -0.02554,-0.0627 0.07604,-0.10029 -0.36993,-0.72537 -0.991042,-1.38906 -0.658895,-0.70407 -0.440957,-0.5489 0.523207,0.3725 0.908875,0.86857 1.6525,1.61271 1.6525,1.65365 0,0.17604 -0.253941,0.0473 -0.611062,-0.30985 z M 13.674728,111.76138 c -0.260284,-0.28761 -0.59479,-0.44781 -0.743346,-0.356 -0.148557,0.0918 -0.191434,0.0397 -0.09528,-0.11593 0.09615,-0.15557 0.02525,-0.33626 -0.157557,-0.40153 -0.182808,-0.0653 -0.264708,-0.19272 -0.182001,-0.28322 0.08271,-0.0905 0.552548,0.25039 1.04409,0.75753 0.491542,0.50714 0.829279,0.92208 0.750526,0.92208 -0.07875,0 -0.356146,-0.23532 -0.616429,-0.52293 z"
         id="path3" /><path
         style="fill:#60286c"
         d="m 13.549997,183.93231 c 1.434559,-3.11898 2.749504,-7.22292 3.47254,-10.83781 0.85843,-4.2918 0.861473,-10.84997 0.0068,-14.69104 -0.329988,-1.48305 -0.827678,-3.35829 -1.105979,-4.16718 -0.278301,-0.8089 -0.423118,-1.4692 -0.321815,-1.46734 0.101303,0.002 1.099311,0.29565 2.217796,0.65288 3.751195,1.19809 6.671188,1.53942 11.826612,1.38248 6.159419,-0.1875 10.230363,-1.09918 16.169988,-3.62125 l 3.042709,-1.29199 -3.243543,3.12245 c -8.89377,8.56173 -15.012937,10.56608 -21.799221,7.14037 -0.928949,-0.46893 -1.55715,-0.66776 -1.470586,-0.46546 0.08311,0.19425 0.538739,1.24615 1.012499,2.33755 0.723888,1.66764 0.87927,2.39036 0.973453,4.5278 0.233347,5.29572 -1.984696,9.4671 -8.77702,16.50658 l -3.063525,3.175 z m -7.0677189,-1.0704 c -6.44951545,-6.60449 -9.1716209,-11.79008 -8.7229865,-16.61721 0.1752782,-1.88593 0.9206434,-4.31993 1.75695256,-5.73737 0.28973715,-0.49107 0.52679481,-0.93932 0.52679481,-0.99612 0,-0.0568 -0.74414065,0.24308 -1.65364587,0.66638 -2.115957,0.98482 -4.4482752,1.58485 -6.1410056,1.57989 -3.0536905,-0.009 -6.9118155,-1.5385 -10.3293075,-4.09503 -1.761867,-1.318 -8.636117,-7.59376 -8.484271,-7.74561 0.05299,-0.053 0.800851,0.25928 1.66191,0.69395 2.168457,1.09463 6.554634,2.60081 9.865069,3.38759 2.191363,0.52081 3.763008,0.69121 7.4412204,0.80682 5.2513877,0.16504 8.43996007,-0.21665 12.2713606,-1.46898 l 2.1506335,-0.70295 -0.7442353,2.31227 c -1.2506914,3.8858 -1.6113506,6.86155 -1.4513912,11.97523 0.1926544,6.15888 1.4233737,11.38384 3.9898165,16.93857 0.5029282,1.08853 0.8818766,1.97914 0.8421076,1.97914 -0.039769,0 -1.3803289,-1.33946 -2.979022,-2.97657 z M 45.598347,145.4739 c -5.995613,-2.59355 -11.074805,-3.6598 -17.377182,-3.64793 -4.453403,0.008 -7.661775,0.49195 -11.09003,1.67144 -0.860477,0.29605 -1.593777,0.50819 -1.629556,0.47144 -0.03578,-0.0368 0.219722,-0.939 0.567779,-2.00497 1.177939,-3.60762 1.54786,-6.2139 1.546249,-10.89416 -0.0024,-6.91176 -0.995425,-11.18414 -4.458617,-19.18229 -0.447933,-1.03449 -0.412562,-1.01362 1.569969,0.92604 4.321274,4.22785 7.768924,8.89936 8.913461,12.07761 0.698391,1.93935 0.923262,5.41142 0.484409,7.47939 -0.180079,0.84857 -0.664275,2.23982 -1.075992,3.09168 -0.411716,0.85185 -0.708132,1.58927 -0.658703,1.6387 0.04943,0.0494 0.695023,-0.21679 1.434652,-0.59158 5.78806,-2.93304 11.58304,-1.60808 18.535372,4.23791 2.051324,1.72489 6.401793,5.95084 6.095011,5.92056 -0.06912,-0.007 -1.354689,-0.54405 -2.856822,-1.19384 z"
         id="path2" /><path
         style="fill:#4d4f4f"
         d="m 126.77846,166.94582 c 0,-0.059 0.7243,-1.80049 1.60957,-3.87002 l 1.60956,-3.76276 -3.15355,-7.70551 -3.15355,-7.70551 1.30866,-0.081 c 0.71976,-0.0445 1.36542,-0.0242 1.4348,0.0452 0.0694,0.0694 1.12973,2.76903 2.35633,5.99922 1.22661,3.23019 2.3276,6.04712 2.44664,6.25984 0.15084,0.26954 0.50021,-0.36149 1.15259,-2.08177 0.51488,-1.35769 1.67908,-4.22471 2.58712,-6.37114 l 1.65097,-3.90261 h 1.29314 c 0.71123,0 1.29451,0.0893 1.29619,0.19844 0.002,0.10914 -2.21614,5.34789 -4.92848,11.64167 l -4.93152,11.44323 h -1.28924 c -0.70907,0 -1.28923,-0.0483 -1.28923,-0.10724 z m 63.63229,-7.40662 c -2.44533,-0.77336 -3.94386,-2.06618 -4.93793,-4.2601 -0.84752,-1.87047 -0.84492,-5.25516 0.006,-7.17217 2.05329,-4.62839 8.45554,-6.05884 12.09651,-2.7027 l 1.17028,1.07872 v -1.35661 -1.35662 h 1.19062 1.19063 v 7.80521 7.80521 h -1.19063 -1.19062 v -1.19062 c 0,-0.65485 -0.0401,-1.19063 -0.0892,-1.19063 -0.0491,0 -0.58509,0.47171 -1.19115,1.04824 -1.75732,1.6717 -4.59087,2.27105 -7.054,1.49207 z m 5.0458,-2.51195 c 3.94111,-1.79001 4.33311,-7.63902 0.68386,-10.20381 -1.02036,-0.71714 -1.35366,-0.80476 -3.06122,-0.80476 -1.66866,0 -2.08252,0.10284 -3.20386,0.79611 -3.8335,2.37007 -3.43387,8.51229 0.66961,10.29179 1.27841,0.55439 3.59886,0.51691 4.91161,-0.0793 z m -77.93837,2.32023 c -2.15701,-0.86012 -2.64597,-2.47643 -2.64597,-8.74661 v -4.71448 h -1.5875 -1.5875 v -1.05833 -1.05834 h 1.5875 1.5875 v -2.0858 c 0,-2.28022 0.095,-2.39945 1.91823,-2.4085 l 0.7276,-0.004 v 2.24896 2.24895 h 2.38125 2.38125 v 1.04841 1.0484 l -2.44739,0.0761 -2.4474,0.0761 v 4.78946 c 0,5.25731 0.15116,5.91518 1.48617,6.46816 0.68003,0.28168 2.00773,0.20355 2.99789,-0.17641 0.20684,-0.0794 0.41117,0.12932 0.50925,0.5201 0.0901,0.35896 0.23343,0.83407 0.31851,1.0558 0.30631,0.79823 -3.59368,1.304 -5.17939,0.67169 z m 54.95453,-0.0695 c -2.66996,-0.99178 -4.40672,-2.97701 -4.96747,-5.67811 -1.134,-5.46247 2.50898,-10.09468 7.93892,-10.09468 2.86294,0 5.22386,1.08935 6.53147,3.01367 0.72292,1.06387 1.42367,3.51481 1.42367,4.97942 v 1.00274 h -6.74688 c -6.61441,0 -6.74687,0.0106 -6.74687,0.53971 0,0.69149 0.85721,2.3759 1.4932,2.93412 2.16715,1.90215 6.30743,1.95367 8.50348,0.10581 l 0.77147,-0.64914 0.70134,0.73204 c 0.82601,0.86218 0.85539,1.05206 0.23832,1.54019 -1.62329,1.2841 -3.10968,1.77632 -5.6224,1.86187 -1.70364,0.058 -2.83727,-0.0347 -3.51825,-0.28764 z m 8.28075,-9.299 c 0,-2.77152 -3.24092,-4.84105 -6.45483,-4.12181 -1.85009,0.41403 -3.15966,1.35258 -3.83563,2.74895 -1.03382,2.13561 -1.25486,2.04282 4.8665,2.04282 h 5.42396 z m 33.04652,9.10126 c -1.8017,-1.04492 -1.94197,-1.55744 -2.09027,-7.63755 l -0.13229,-5.42396 -1.52135,-0.0793 -1.52136,-0.0794 v -1.04513 -1.04513 h 1.5875 1.5875 v -2.0858 c 0,-2.25152 0.10886,-2.39832 1.78594,-2.4085 0.57095,-0.003 0.59531,0.0884 0.59531,2.24535 v 2.24895 h 2.51355 2.51354 v 1.05834 1.05833 h -2.52927 -2.52926 l 0.0819,5.15265 c 0.0784,4.93687 0.10681,5.17756 0.67753,5.74769 0.62601,0.62536 2.26865,0.81949 3.4078,0.40274 0.4813,-0.17607 0.62269,-0.0598 0.96544,0.79375 l 0.40156,1.00005 -0.83315,0.3106 c -1.40159,0.52251 -3.87491,0.41597 -4.96059,-0.21368 z M 63.543041,149.45827 v -9.92188 h -3.836458 -3.836459 v -1.19062 -1.19063 h 8.863542 8.863542 v 1.19063 1.19062 h -3.704166 -3.704167 v 9.92188 9.92187 h -1.322917 -1.322917 z m 8.202084,2.11666 v -7.80521 h 1.190625 1.190625 v 1.05834 c 0,0.58208 0.04288,1.05833 0.09528,1.05833 0.05241,0 0.517378,-0.39809 1.033274,-0.88464 1.627492,-1.53492 4.247009,-1.88323 6.620617,-0.88032 l 1.002297,0.42349 -0.55585,1.08956 c -0.424212,0.83152 -0.661581,1.04556 -1.002298,0.90379 -2.155858,-0.89702 -4.032683,-0.67954 -5.431005,0.62933 -1.50122,1.40518 -1.612021,1.87342 -1.715986,7.2516 l -0.0959,4.96094 h -1.165841 -1.165841 z m 12.700001,0 v -7.80521 h 1.322916 1.322917 v 7.80521 7.80521 h -1.322917 -1.322916 z m 5.291666,0 v -7.80521 h 1.190625 1.190626 v 1.21125 1.21124 l 1.117375,-0.95643 c 2.287522,-1.95804 5.501895,-2.19035 8.173082,-0.59069 1.13029,0.67688 1.56906,1.15544 2.21137,2.4119 l 0.8013,1.56747 0.0857,5.37784 0.0856,5.37784 h -1.32728 -1.32729 l -0.0813,-5.40538 c -0.0925,-6.15324 -0.16432,-6.38356 -2.33564,-7.49306 -2.967278,-1.5162 -6.360141,0.0946 -7.116873,3.37874 -0.150215,0.65193 -0.276029,3.06056 -0.279586,5.35251 l -0.0065,4.16719 H 90.927375 89.73675 Z m 17.462498,0 v -7.80521 h 1.32292 1.32292 v 7.80521 7.80521 h -1.32292 -1.32292 z m 39.6875,-3.30729 v -11.1125 h 1.32292 1.32292 v 4.89479 4.89479 h 6.48229 6.48229 v -4.89479 -4.89479 h 1.32292 1.32292 v 11.1125 11.1125 h -1.32292 -1.32292 v -5.02708 -5.02709 h -6.48229 -6.48229 v 5.02709 5.02708 h -1.32292 -1.32292 z m 57.15001,0 v -11.1125 h 1.19062 1.19063 v 11.1125 11.1125 h -1.19063 -1.19062 z m 17.4625,0 v -11.1125 h 1.19062 1.19063 v 4.49792 c 0,4.37003 0.15536,5.16158 0.78294,3.98894 0.14982,-0.27994 0.92977,-0.8306 1.73324,-1.2237 2.08303,-1.01913 4.36788,-1.00273 6.40231,0.046 1.19565,0.61632 1.63171,1.03683 2.29787,2.21588 l 0.82218,1.45521 0.0889,5.6224 0.0889,5.62239 h -1.19314 -1.19313 l -0.0864,-5.09323 c -0.0732,-4.3153 -0.1614,-5.24414 -0.57757,-6.08124 -1.44191,-2.90038 -6.1103,-2.93121 -8.08221,-0.0534 -0.86962,1.26912 -1.05908,2.53995 -1.07237,7.19297 l -0.0115,4.03489 h -1.19063 -1.19062 z M 84.618424,140.11087 c -0.498858,-0.55123 -0.564989,-1.4301 -0.163989,-2.17937 0.316397,-0.5912 2.055885,-0.722 2.583607,-0.19428 0.481947,0.48195 0.382902,1.92255 -0.166354,2.41962 -0.639013,0.5783 -1.708045,0.55649 -2.253264,-0.046 z m 22.904326,0.072 c -0.63316,-0.44349 -0.76728,-1.40466 -0.31415,-2.25135 0.19633,-0.36685 0.55597,-0.51178 1.27,-0.51178 1.21414,0 1.63111,0.37505 1.63111,1.46712 0,1.47562 -1.35872,2.1563 -2.58696,1.29601 z"
         id="path1" /></g></g></svg>
