<svg width="420" height="120" viewBox="0 0 420 120" fill="none" xmlns="http://www.w3.org/2000/svg">
<path d="M239.656 78.4062C238.448 78.4062 237.573 78.2083 237.031 77.8125C236.51 77.3958 236.177 76.9062 236.031 76.3438C235.906 75.7812 235.844 75.2708 235.844 74.8125C235.844 74.2708 235.865 73.8542 235.906 73.5625L239.781 53.4688C239.802 53.3021 239.812 53.1562 239.812 53.0312C239.833 52.8854 239.844 52.75 239.844 52.625C239.844 51.6458 239.615 50.9896 239.156 50.6562C238.719 50.3229 238.198 50.125 237.594 50.0625C236.99 50 236.458 49.9062 236 49.7812C235.792 49.6771 235.635 49.5417 235.531 49.375C235.427 49.2083 235.396 48.9271 235.438 48.5312C235.479 48.2812 235.583 48 235.75 47.6875C235.917 47.3542 236.125 47.1771 236.375 47.1562C238.417 47.0312 240.281 46.9479 241.969 46.9062C243.656 46.8646 244.938 46.8438 245.812 46.8438C245.979 46.8438 246.156 46.9271 246.344 47.0938C246.552 47.2604 246.625 47.5938 246.562 48.0938L242.031 73.3125C242.031 73.8125 242.156 74.2188 242.406 74.5312C242.677 74.8438 243.167 75 243.875 75C244.312 75 244.865 74.9167 245.531 74.75C246.198 74.5625 246.688 74.4688 247 74.4688C247.188 74.4688 247.365 74.5104 247.531 74.5938C247.698 74.6771 247.781 74.9479 247.781 75.4062C247.781 76.0104 247.521 76.4479 247 76.7188C246.188 77.1146 245.177 77.5 243.969 77.875C242.781 78.2292 241.344 78.4062 239.656 78.4062ZM244.031 41.0312C243.01 41.0312 242.219 40.7083 241.656 40.0625C241.115 39.3958 240.844 38.5625 240.844 37.5625C240.844 36.6042 241.031 35.7396 241.406 34.9688C241.802 34.1771 242.344 33.5417 243.031 33.0625C243.719 32.5833 244.49 32.3438 245.344 32.3438C246.365 32.3438 247.146 32.6771 247.688 33.3438C248.25 34.0104 248.531 34.8542 248.531 35.875C248.531 36.8125 248.333 37.6771 247.938 38.4688C247.542 39.2396 247 39.8646 246.312 40.3438C245.646 40.8021 244.885 41.0312 244.031 41.0312ZM260.269 78.6562C258.144 78.6562 256.269 78.4375 254.644 78C253.019 77.5417 251.748 76.8438 250.831 75.9062C249.935 74.9479 249.488 73.7396 249.488 72.2812C249.488 71.4062 249.779 70.6771 250.363 70.0938C250.967 69.4896 251.769 69.1875 252.769 69.1875L257.363 75.2188C257.779 75.5729 258.227 75.8125 258.706 75.9375C259.185 76.0417 259.883 76.0938 260.8 76.0938C261.467 76.0938 262.185 75.9271 262.956 75.5938C263.727 75.2396 264.373 74.6979 264.894 73.9688C265.415 73.2188 265.644 72.2708 265.581 71.125C265.54 70.1042 265.227 69.2083 264.644 68.4375C264.06 67.6667 263.31 66.9479 262.394 66.2812C261.477 65.6146 260.477 64.9271 259.394 64.2188C258.31 63.4896 257.248 62.6562 256.206 61.7188C255.185 60.7812 254.342 59.7188 253.675 58.5312C253.008 57.3229 252.675 56 252.675 54.5625C252.675 52.8333 253.06 51.4375 253.831 50.375C254.602 49.2917 255.571 48.4583 256.738 47.875C257.904 47.2917 259.092 46.8958 260.3 46.6875C261.529 46.4583 262.592 46.3438 263.488 46.3438C266.717 46.3438 269.092 46.8542 270.613 47.875C272.154 48.8958 272.967 50.1667 273.05 51.6875C273.092 52.3125 272.915 52.8646 272.519 53.3438C272.144 53.8021 271.685 54.1562 271.144 54.4062C270.623 54.6562 270.165 54.7812 269.769 54.7812L265.581 49.5312C265.352 49.2812 265.029 49.1042 264.613 49C264.196 48.875 263.727 48.8125 263.206 48.8125C262.394 48.8125 261.571 48.9583 260.738 49.25C259.904 49.5208 259.217 49.9792 258.675 50.625C258.154 51.25 257.915 52.0938 257.956 53.1562C258.019 54.3646 258.55 55.4792 259.55 56.5C260.571 57.5 261.904 58.5208 263.55 59.5625C264.821 60.3542 266.05 61.2292 267.238 62.1875C268.425 63.125 269.404 64.1771 270.175 65.3438C270.946 66.5104 271.331 67.8333 271.331 69.3125C271.331 71.4792 270.779 73.25 269.675 74.625C268.571 76 267.165 77.0208 265.456 77.6875C263.769 78.3333 262.04 78.6562 260.269 78.6562ZM274.35 78L280.819 35.6875C280.84 35.6042 280.85 35.5312 280.85 35.4688C280.85 35.3854 280.85 35.3021 280.85 35.2188C280.85 34.4688 280.631 33.9583 280.194 33.6875C279.756 33.4167 279.246 33.2292 278.662 33.125C278.1 33 277.631 32.8021 277.256 32.5312C277.09 32.4271 276.954 32.2604 276.85 32.0312C276.746 31.8021 276.694 31.5521 276.694 31.2812C276.694 31.0312 276.798 30.75 277.006 30.4375C277.215 30.1042 277.444 29.9271 277.694 29.9062C279.61 29.7812 281.402 29.7188 283.069 29.7188C284.735 29.6979 285.965 29.6875 286.756 29.6875C286.923 29.6875 287.1 29.7708 287.287 29.9375C287.475 30.1042 287.548 30.4375 287.506 30.9375L285.131 46.4375L283.819 54.2188C284.36 53.6146 285.069 52.875 285.944 52C286.84 51.1042 287.86 50.2292 289.006 49.375C290.173 48.5 291.433 47.7708 292.787 47.1875C294.142 46.6042 295.548 46.3125 297.006 46.3125C298.735 46.3125 300.1 46.6146 301.1 47.2188C302.121 47.8021 302.819 48.6771 303.194 49.8438C303.569 50.9896 303.631 52.3958 303.381 54.0625L300.381 73.3438C300.381 73.8021 300.517 74.1979 300.787 74.5312C301.058 74.8438 301.558 75 302.287 75C302.725 75 303.267 74.9167 303.912 74.75C304.558 74.5625 305.037 74.4688 305.35 74.4688C305.537 74.4688 305.715 74.5104 305.881 74.5938C306.048 74.6771 306.131 74.9479 306.131 75.4062C306.131 75.6562 306.069 75.9167 305.944 76.1875C305.84 76.4375 305.642 76.6146 305.35 76.7188C303.912 77.1979 302.527 77.6042 301.194 77.9375C299.881 78.25 298.84 78.4062 298.069 78.4062C296.86 78.4062 295.985 78.2083 295.444 77.8125C294.902 77.3958 294.558 76.9062 294.412 76.3438C294.267 75.7812 294.194 75.2708 294.194 74.8125L297.444 52.5625C297.444 52.25 297.371 51.9479 297.225 51.6562C297.1 51.3646 296.829 51.1354 296.412 50.9688C295.996 50.7812 295.381 50.6875 294.569 50.6875C293.256 50.6875 291.892 51.0521 290.475 51.7812C289.058 52.4896 287.735 53.3646 286.506 54.4062C285.277 55.4479 284.256 56.4792 283.444 57.5L280.194 78H274.35Z" fill="#E08050"></path>
<path d="M308.25 74.1875C308.25 73.0208 308.667 72.0312 309.5 71.2188C310.354 70.3854 311.396 69.9688 312.625 69.9688C313.854 69.9688 314.896 70.3854 315.75 71.2188C316.604 72.0312 317.031 73.0208 317.031 74.1875C317.031 75.3542 316.604 76.3854 315.75 77.2812C314.896 78.1771 313.854 78.625 312.625 78.625C311.396 78.625 310.354 78.1771 309.5 77.2812C308.667 76.3854 308.25 75.3542 308.25 74.1875Z" fill="#E08050" fill-opacity="0.4"></path>
<path d="M308.25 74.1875C308.25 73.0208 308.667 72.0312 309.5 71.2188C310.354 70.3854 311.396 69.9688 312.625 69.9688C313.854 69.9688 314.896 70.3854 315.75 71.2188C316.604 72.0312 317.031 73.0208 317.031 74.1875C317.031 75.3542 316.604 76.3854 315.75 77.2812C314.896 78.1771 313.854 78.625 312.625 78.625C311.396 78.625 310.354 78.1771 309.5 77.2812C308.667 76.3854 308.25 75.3542 308.25 74.1875Z" fill="#E08050" fill-opacity="0.4"></path>
<path d="M133.656 78C133.302 78 133.031 77.8438 132.844 77.5312C132.677 77.2188 132.594 76.9479 132.594 76.7188C132.594 76.0312 132.938 75.6458 133.625 75.5625C134.396 75.5 135.146 75.3542 135.875 75.125C136.604 74.875 136.969 74.4583 136.969 73.875V50.2812H132.438C132.188 50.2604 132 50.0938 131.875 49.7812C131.75 49.4479 131.688 49.1562 131.688 48.9062C131.688 48.1771 131.948 47.6979 132.469 47.4688L136.969 46.9375V44.375C136.969 41.7083 137.458 39.2188 138.438 36.9062C139.417 34.5938 140.906 32.7292 142.906 31.3125C144.927 29.875 147.469 29.1562 150.531 29.1562C152.906 29.1562 154.688 29.6146 155.875 30.5312C157.083 31.4479 157.688 32.5208 157.688 33.75C157.688 34.6042 157.521 35.3646 157.188 36.0312C156.854 36.6979 156.406 37.2188 155.844 37.5938C155.302 37.9688 154.688 38.1562 154 38.1562C154 38.1562 153.938 38.1458 153.812 38.125C153.708 38.1042 153.656 38.0833 153.656 38.0625L149.656 32.7188C149.24 32.7188 148.854 32.8646 148.5 33.1562C148.167 33.4271 147.875 33.9375 147.625 34.6875C147.375 35.4375 147.177 36.5208 147.031 37.9375C146.906 39.3333 146.844 41.1562 146.844 43.4062V46.9375H153.75C154 46.9583 154.188 47.0833 154.312 47.3125C154.438 47.5208 154.5 47.75 154.5 48C154.5 48.3958 154.427 48.8542 154.281 49.375C154.156 49.875 153.979 50.1771 153.75 50.2812H146.844V72.8438C146.844 73.6354 147.146 74.2188 147.75 74.5938C148.354 74.9688 149.073 75.2188 149.906 75.3438C150.76 75.4479 151.521 75.5208 152.188 75.5625C152.625 75.6042 152.917 75.6875 153.062 75.8125C153.229 75.9375 153.312 76.2396 153.312 76.7188C153.312 76.9479 153.219 77.2188 153.031 77.5312C152.865 77.8438 152.604 78 152.25 78H133.656ZM155.659 70.4375C155.659 68.3542 156.284 66.6458 157.534 65.3125C158.784 63.9583 160.398 62.8854 162.378 62.0938C164.378 61.2812 166.523 60.6667 168.815 60.25C171.128 59.8333 173.336 59.5208 175.44 59.3125V54.1562C175.44 52.8229 175.242 51.8125 174.846 51.125C174.45 50.4167 173.898 49.9375 173.19 49.6875C172.482 49.4167 171.659 49.2812 170.721 49.2812C169.68 49.2812 168.919 49.3438 168.44 49.4688C167.961 49.5729 167.617 49.6875 167.409 49.8125L162.44 58.1562C160.836 58.1562 159.544 57.75 158.565 56.9375C157.607 56.1042 157.128 55.0417 157.128 53.75C157.128 52.3958 157.617 51.25 158.596 50.3125C159.596 49.375 160.867 48.6146 162.409 48.0312C163.971 47.4271 165.607 46.9896 167.315 46.7188C169.023 46.4479 170.607 46.3125 172.065 46.3125C174.44 46.3125 176.482 46.5312 178.19 46.9688C179.919 47.4062 181.325 48.0208 182.409 48.8125C183.513 49.5833 184.325 50.5 184.846 51.5625C185.367 52.6042 185.628 53.75 185.628 55V71.8125C185.628 72.625 185.742 73.3125 185.971 73.875C186.2 74.4167 186.482 74.6875 186.815 74.6875C187.107 74.6875 187.565 74.625 188.19 74.5C188.836 74.3542 189.221 74.2812 189.346 74.2812C189.7 74.2812 189.94 74.4896 190.065 74.9062C190.211 75.3021 190.284 75.6875 190.284 76.0625C190.284 76.3333 190.221 76.5208 190.096 76.625C189.763 76.8542 188.753 77.2708 187.065 77.875C185.378 78.4792 183.263 78.7812 180.721 78.7812C178.784 78.7812 177.503 78.5104 176.878 77.9688C176.273 77.4271 175.971 76.3021 175.971 74.5938V74.125C174.617 75.7292 172.992 76.9062 171.096 77.6562C169.2 78.3854 167.159 78.75 164.971 78.75C163.721 78.75 162.367 78.4792 160.909 77.9375C159.471 77.375 158.232 76.4896 157.19 75.2812C156.169 74.0521 155.659 72.4375 155.659 70.4375ZM166.253 70.125C166.253 71.1667 166.586 72.1146 167.253 72.9688C167.94 73.8229 168.971 74.25 170.346 74.25C171.68 74.25 172.763 73.9792 173.596 73.4375C174.43 72.8958 175.044 72.375 175.44 71.875V61.8125C174.044 62.0208 172.638 62.3646 171.221 62.8438C169.805 63.3021 168.617 64.0938 167.659 65.2188C166.721 66.3229 166.253 67.9583 166.253 70.125ZM191.474 78C191.12 78 190.849 77.8438 190.661 77.5312C190.495 77.2188 190.411 76.9479 190.411 76.7188C190.411 76.0312 190.755 75.6458 191.443 75.5625C192.213 75.4583 192.953 75.2708 193.661 75C194.39 74.7292 194.755 74.25 194.755 73.5625V53.6875C194.755 52.3958 194.474 51.5208 193.911 51.0625C193.349 50.6042 192.703 50.3333 191.974 50.25C191.245 50.1667 190.62 50.0521 190.099 49.9062C189.89 49.8021 189.713 49.6667 189.568 49.5C189.422 49.3333 189.349 49.0521 189.349 48.6562C189.349 48.4062 189.411 48.125 189.536 47.8125C189.661 47.4792 189.849 47.3021 190.099 47.2812C192.974 47.1146 195.588 47 197.943 46.9375C200.318 46.875 202.109 46.8438 203.318 46.8438C203.484 46.8438 203.672 46.9271 203.88 47.0938C204.088 47.2604 204.213 47.5938 204.255 48.0938V51.5938C204.651 51.1146 205.474 50.4583 206.724 49.625C207.995 48.7917 209.505 48.0312 211.255 47.3438C213.005 46.6562 214.807 46.3125 216.661 46.3125C218.432 46.3125 220.078 46.5521 221.599 47.0312C223.14 47.5104 224.38 48.4167 225.318 49.75C226.255 51.0833 226.724 53.0417 226.724 55.625V72.5312C226.724 73.5312 226.943 74.2292 227.38 74.625C227.838 75.0208 228.37 75.2604 228.974 75.3438C229.599 75.4062 230.172 75.4792 230.693 75.5625C231.047 75.6042 231.307 75.6979 231.474 75.8438C231.64 75.9688 231.724 76.2604 231.724 76.7188C231.724 76.9479 231.63 77.2188 231.443 77.5312C231.276 77.8438 231.015 78 230.661 78H213.88C213.526 78 213.255 77.8438 213.068 77.5312C212.901 77.2188 212.818 76.9479 212.818 76.7188C212.818 76.3854 212.87 76.125 212.974 75.9375C213.099 75.7292 213.37 75.6042 213.786 75.5625C214.453 75.4792 215.12 75.2708 215.786 74.9375C216.453 74.6042 216.786 74.1458 216.786 73.5625V55.7812C216.786 55.2604 216.734 54.6354 216.63 53.9062C216.526 53.1562 216.213 52.5 215.693 51.9375C215.193 51.3542 214.318 51.0625 213.068 51.0625C211.943 51.0625 210.818 51.2812 209.693 51.7188C208.588 52.1354 207.578 52.6458 206.661 53.25C205.765 53.8542 205.068 54.4271 204.568 54.9688V72.5312C204.568 73.8646 204.911 74.6875 205.599 75C206.307 75.2917 207.047 75.4792 207.818 75.5625C208.255 75.6042 208.547 75.6875 208.693 75.8125C208.859 75.9375 208.943 76.2396 208.943 76.7188C208.943 76.9479 208.849 77.2188 208.661 77.5312C208.495 77.8438 208.234 78 207.88 78H191.474Z" fill="#0E0D0C"></path>
</svg>