<?xml version="1.0" encoding="UTF-8"?>
<svg id="Layer_1" data-name="Layer 1" xmlns="http://www.w3.org/2000/svg" viewBox="0 0 933.7 330.05">
  <defs>
    <style>
      .cls-1 {
        fill: #0d0116;
      }
    </style>
  </defs>
  <path class="cls-1" d="M932.11,247.23c-.71-1.3-1.92-2.12-2.82-3.11-.96-1.05-1.91-1.99-3.04-2.79-1.12-.8-2.35-1.39-3.6-2.05-1.21-.64-2.38-1.38-3.66-2-1.8-.87-1.58-1.34-3.38-2.21-1.8-.87-2.01-.44-3.81-1.31-1.8-.87-1.86-.75-3.65-1.62-1.8-.87-1.78-.93-3.58-1.79-1.8-.87-1.57-1.36-3.37-2.23-1.8-.87-2.01-.43-3.81-1.3-1.8-.87-1.86-.74-3.66-1.61-1.8-.87-1.63-1.24-3.43-2.12-1.8-.87-1.96-.53-3.76-1.4-1.8-.87-1.76-.97-3.56-1.84-1.8-.87-1.69-1.1-3.5-1.97-1.8-.87-1.71-1.07-3.51-1.94-1.8-.87-1.98-.48-3.79-1.36-1.8-.87-1.82-.83-3.62-1.7-1.8-.87-1.74-1.01-3.54-1.88-1.8-.87-1.8-.88-3.6-1.75-1.8-.87-1.82-.83-3.62-1.7-1.8-.87-1.74-1-3.54-1.87-1.8-.87-1.73-1.02-3.53-1.89-1.21-.58-3.43-2.8-3.69-4.04-.26-1.24,1.25-2.95,2.34-4.51,1.16-1.64,1.27-1.56,2.43-3.21,1.16-1.64.71-1.97,1.87-3.61,1.16-1.64,1.1-1.69,2.25-3.33,1.16-1.64,1.32-1.53,2.47-3.18,1.16-1.64,1.2-1.61,2.36-3.26s1.12-1.67,2.28-3.31c1.16-1.64,1.21-1.61,2.36-3.25q1.16-1.64,2.32-3.29c1.16-1.64,1.01-1.75,2.17-3.4,1.16-1.64,1.64-1.29,2.8-2.93,1.16-1.64,1-1.76,2.16-3.4,1.16-1.64,1.28-1.55,2.44-3.2,1.16-1.64.74-1.95,1.9-3.59,1.16-1.64,1.27-1.56,2.51-3.15,1.23-1.58,1.15-1.65,2.45-3.18,1.31-1.52,1.75-1.15,3-2.71,1.17-1.46.85-1.72,1.97-3.23,1.11-1.51,1-1.59,2.12-3.1,1.12-1.51,1.22-1.43,2.34-2.94,1.11-1.51,1.32-1.35,2.43-2.86,1.12-1.51.84-1.71,1.87-3.28,1.27-1.92,1.39-1.83,2.58-3.8,1.19-1.97,1.45-1.8,2.64-3.77,1.19-1.97,1.14-2,2.33-3.97.63-1.05,1.1-2.15,1.69-3.14.62-1.03.99-2.18,1.57-3.21.58-1.01,1.33-1.94,1.9-3.01.41-.78-.28-1.67-1.14-1.53-1.22.2-2.42.22-3.56.46-1.18.24-2.25.84-3.41,1.16-1.13.31-2.39.23-3.55.63-2.09.72-2.08.75-4.17,1.48-2.09.72-2.02.93-4.11,1.66-2.09.72-1.98,1.03-4.07,1.76-1.36.47-2.78.7-4.11,1.2-1.34.5-2.58,1.24-3.9,1.76-1.33.53-2.66,1.03-3.98,1.57-1.32.55-2.65,1.06-3.95,1.63-1.31.56-2.7.94-4.01,1.51-1.31.58-2.67,1.01-3.98,1.6-1.3.57-2.57,1.23-3.88,1.81-1.3.58-2.62,1.12-3.93,1.7-1.3.57-2.7.93-4.01,1.5-1.84.79-1.68,1.19-3.52,1.98-1.84.79-1.8.9-3.64,1.7-1.84.79-2.08.23-3.92,1.02-1.84.79-1.74,1.03-3.59,1.81-1.95.81-2.03.62-3.99,1.41-1.96.79-1.93.87-3.88,1.7-1.87.81-1.94.66-3.78,1.5-1.85.85-1.67,1.27-3.52,2.11-1.85.84-2.03.44-3.88,1.29-1.85.85-1.66,1.27-3.51,2.11-1.85.85-2.01.5-3.86,1.34-1.85.84-1.93.87-3.47,2.19-4.56,3.91-3.63-.64-3.59-2.74.04-2.09-.47-2.1-.43-4.19.04-2.09.54-2.08.58-4.18.04-2.09.23-2.09.26-4.18.04-2.1-.2-2.1-.16-4.19.04-2.09.06-2.09.1-4.18.04-2.09.28-2.09.32-4.18.04-2.09-.29-2.1-.25-4.19.04-2.1-.34-2.1-.3-4.19.04-2.09.64-2.08.68-4.17.04-2.1-.17-2.1-.13-4.19.04-2.1.34-2.09.38-4.18.04-2.1-.05-2.1-.01-4.19.04-2.09-.52-2.11-.45-4.2.07-2.14.14-2.14.24-4.27.09-2.14.12-2.14.22-4.28.09-2.14.36-2.13.45-4.27.09-2.14.13-2.14.22-4.28.1-2.14.11-2.14.2-4.28.09-2.14-.1-2.14,0-4.28.09-2.14-.12-2.15-.03-4.29.09-2.14.6-2.12.66-4.26.07-2.08.18-2.08.23-4.16.04-2.08-.51-2.09-.47-4.17.04-2.08.18-2.08.22-4.16.04-2.08-.21-2.08-.17-4.17.04-2.08.6-2.07.65-4.15.04-2.08-.05-2.08-.01-4.16.04-2.08-.32-2.09-.28-4.17.04-2.08-.13-2.09-.09-4.17.04-2.08.02-2.08.06-4.16.04-2.08.35-2.08.39-4.16.02-1.2.26-2.35.24-3.49-.02-1.16-.23-2.31-.3-3.48-.06-1.13,0-2.29-.09-3.49-.15-1.97-2.91-2.86-4.12-1.31-.97,1.25-1.57,2.68-2.31,3.98-.76,1.32-1.48,2.64-2.13,4.05-.62,1.35-1.09,2.79-1.72,4.26-.8,1.89-1.14,1.75-1.95,3.64-.81,1.9-.68,1.95-1.49,3.85-.81,1.9-.47,2.04-1.28,3.94-.81,1.9-1.06,1.78-1.87,3.68-.81,1.89-.59,1.99-1.4,3.88-.8,1.89-1.01,1.8-1.82,3.7-.81,1.9-.52,2.03-1.32,3.92-.81,1.9-1.07,1.78-1.88,3.67-.81,1.9-.64,1.97-1.44,3.87-.81,1.9-1.22,1.71-2.03,3.61-.81,1.89-.37,2.08-1.18,3.98-.81,1.9-1.28,1.69-2.08,3.59-.81,1.9-.56,2.01-1.37,3.9-.81,1.9-1.04,1.79-1.85,3.69-.81,1.9-.31,2.11-1.12,4.01-.81,1.9-.88,1.86-1.69,3.76-.81,1.89-1.31,1.67-2.12,3.57-.81,1.9-.27,2.13-1.08,4.03-.81,1.89-1.23,1.71-2.03,3.61-.81,1.9-.43,2.06-1.24,3.96-.81,1.89-.79,1.9-1.6,3.8-.8,1.9-.69,1.94-1.5,3.84-.81,1.89-.87,1.87-1.68,3.76-.81,1.89-1.01,1.81-1.82,3.7-.81,1.9-.71,1.94-1.52,3.84-.8,1.9-.77,1.91-1.58,3.81-.73,1.71-1.15,1.53-1.87,3.24-.73,1.71-.28,1.9-1.01,3.62-.73,1.71-1.02,1.58-1.75,3.29-.73,1.71-.53,1.8-1.26,3.51-.73,1.71-.87,1.65-1.6,3.36-.87,2.06-.71,2.13-1.58,4.18-.88,2.05-1.09,1.96-1.96,4.02-.88,2.05-.61,2.17-1.49,4.23-.88,2.05-1.13,1.94-2.01,4-.33.78-1.69.63-3.16.38-1.32-.23-2.61-.57-3.18-1.12-1.38-1.35-1.53-1.19-2.91-2.55-1.38-1.35-1.4-1.33-2.77-2.68-1.38-1.35-1.48-1.25-2.85-2.6-1.38-1.35-1.04-1.7-2.42-3.05-1.38-1.35-1.52-1.2-2.9-2.55-1.38-1.35-1.54-1.18-2.92-2.53-1.38-1.35-1.02-1.72-2.4-3.07-1.38-1.35-1.5-1.22-2.9-2.55-1.43-1.36-1.57-1.2-3.03-2.54-1.45-1.33-1.3-1.5-2.76-2.84-1.45-1.33-1.51-1.27-2.97-2.6-1.45-1.33-1.55-1.22-3-2.55-1.45-1.33-1.37-1.42-2.82-2.76-1.46-1.33-1.55-1.23-3-2.57s-1.33-1.47-2.78-2.81c-1.45-1.33-1.57-1.2-3.02-2.53-1.46-1.33-1.43-1.36-2.88-2.7-1.03-.94-3.17-1.53-5.27-1.18-.93.15-1.54,1.45-1.35,2.38.42,2.07.73,2.01,1.15,4.07.42,2.07.09,2.14.51,4.21s.7,2.01,1.12,4.08.12,2.13.54,4.2c.42,2.07.84,1.99,1.26,4.05.42,2.07.17,2.13.59,4.19.42,2.07.38,2.07.81,4.15.26,1.29.33,2.66.72,3.95.38,1.24,1.01,2.43,1.4,3.74.61,2.03,1.02,1.9,1.63,3.93.61,2.03.5,2.06,1.11,4.08.6,2.03.53,2.05,1.14,4.07.61,2.03.41,2.09,1.02,4.11.6,2.03.56,2.04,1.17,4.07.61,2.03.87,1.95,1.47,3.97.61,2.03.23,2.14.84,4.17.6,2.03.45,2.08,1.06,4.1.42,1.43.82,4.14.23,5.25-.4.76-1.72,1.61-3.62,2.2-1.15.36-2.55.68-4.09.99-1.27.25-2.74-.04-4.21.19-1.32.2-2.67.67-4.1.85-1.35.17-2.78,0-4.19.14-1.37.14-2.74.55-4.14.67-1.39.12-2.77.46-4.16.56-1.41.11-2.8.31-4.17.4-1.43.1-2.84.08-4.19.16-1.46.09-2.89-.29-4.2-.21-1.53.08-2.9.71-4.15.77-1.76.09-3.2-.19-4.2-.13-2.03.12-2.01.49-4.05.61-2.04.12-2.03.18-4.07.3-2.04.12-2.06-.36-4.1-.24-2.04.12-2.03.23-4.07.36-2.04.12-2.02.38-4.06.5-2.04.12-2.05-.03-4.08.09-2.04.12-2.05-.16-4.09-.04-2.04.12-2.02.51-4.05.63-2.04.13-2.05-.18-4.09-.06-2.04.12-2.02.36-4.06.48-2.04.12-2.06-.26-4.1-.1-1.95.16-1.91.65-3.87.84-1.95.2-1.93.37-3.88.57-1.95.19-1.95.18-3.91.38-1.95.2-2-.27-3.95-.07-1.95.2-1.95.19-3.9.39-1.95.2-1.94.27-3.9.47-1.95.2-1.98-.06-3.93.14-1.95.2-1.96.16-3.91.35-1.95.2-1.95.26-3.9.46-1.16.12-3.4,2.17-3.79,2.97-.36.75.98,1.57,2.89,2.76,1.01.63,2.08,1.61,3.49,2.3,1.17.57,2.4,1.29,3.74,1.88,1.25.54,2.69.73,4,1.26,1.3.53,2.59,1.09,3.86,1.59,1.35.52,2.71.89,3.95,1.35,1.44.53,2.57,1.6,3.72,2,1.93.68,3.46.85,4.06,1.04,2,.63,2.09.32,4.09.95,2,.63,1.85,1.09,3.85,1.72q2,.64,3.99,1.27c2,.64,1.95.8,3.94,1.43,2,.64,2.02.54,4.02,1.18,2,.63,2.18.05,4.17.68,2,.63,1.82,1.19,3.82,1.83,2,.63,2.05.46,4.05,1.09,2,.63,1.96.76,3.95,1.4,2,.63,2.06.43,4.06,1.06,1.99.64,2.06.43,4.05,1.07,1.98.62,1.94.74,3.92,1.37,1.98.62,1.95.71,3.93,1.34,1.98.62,1.86,1.02,3.84,1.64,1.98.63,2.12.16,4.1.79,1.98.62,1.92.82,3.9,1.44,1.98.63,2,.57,3.97,1.2,1.98.63,2.08.31,4.05.94,1.98.62,1.8,1.2,3.78,1.82,1.53.48,3.1.34,4.44.83,1.38.5,2.51,1.55,3.9,2.26,1.21.62,2.44,1.16,3.82,2.08-.94,1.3-1.94,2.18-2.78,3.24-.94,1.19-1.59,2.48-2.54,3.58-.91,1.05-1.85,2.12-2.89,3.29-1.39,1.56-1.4,1.56-2.8,3.12-1.4,1.56-1.61,1.37-3,2.93-1.39,1.56-1.09,1.84-2.48,3.4-1.4,1.56-1.71,1.28-3.1,2.84-1.4,1.56-1.21,1.73-2.6,3.29-1.39,1.56-1.47,1.5-2.86,3.06-1.4,1.56-1.5,1.46-2.9,3.02-1.4,1.56-1.28,1.67-2.68,3.23-1.4,1.56-1.46,1.5-2.86,3.07-1.4,1.56-.98,1.94-2.38,3.51-1.39,1.56-1.52,1.45-2.91,3.01-1.4,1.57-1.23,1.72-2.62,3.28-1.39,1.56-1.7,1.28-3.07,2.87-1.33,1.54-1,1.81-2.3,3.38-1.29,1.57-1.31,1.55-2.6,3.12-1.29,1.57-1.53,1.37-2.82,2.94-1.29,1.57-1.28,1.58-2.57,3.14-1.29,1.57-1.44,1.44-2.74,3.01-1.29,1.57-.92,1.88-2.22,3.45-1.29,1.57-1.81,1.13-3.1,2.7-1,1.21-1.77,2.55-2.15,4.16-.45,1.9,1.66,3.8,3.5,3.21,1.89-.61,1.85-.73,3.75-1.34,1.89-.6,1.96-.37,3.85-.98,1.9-.6,1.88-.64,3.77-1.25,1.89-.61,1.73-1.12,3.62-1.72,1.23-.39,2.44-.75,3.64-1.16,1.21-.42,2.58-.34,3.78-.78,1.19-.44,2.26-1.22,3.46-1.67,1.18-.44,2.38-.85,3.59-1.31,1.83-.71,1.93-.43,3.76-1.13,1.82-.7,1.76-.87,3.58-1.57,1.83-.7,1.94-.41,3.76-1.11,1.83-.7,1.75-.9,3.57-1.61,1.83-.7,1.67-1.13,3.5-1.83,1.82-.7,1.84-.64,3.66-1.37,1.7-.68,1.93-.11,3.63-.82,1.69-.7,1.56-1.03,3.25-1.74,1.7-.71,1.76-.54,3.46-1.24,1.77-.73,1.67-.99,3.44-1.71,1.78-.72,1.81-.63,3.59-1.35,1.78-.72,1.89-.45,3.66-1.18,2.1-.86,1.85-1.48,3.94-2.36,2.09-.88,2.17-.68,4.27-1.56,2.1-.88,2.09-.89,4.18-1.76,2.09-.88,2.05-.98,4.16-1.84,1.81-.74,2.03-.19,3.85-.92,1.82-.73,1.72-1,3.54-1.72s1.78-.83,3.6-1.56c1.82-.72,1.8-.77,3.62-1.49,1.1-.43,2.42-.99,3.74-1.47,1.31-.47,2.73-.95,3.99-.73,1.18.2,2.37,1,3.29,2.41.71,1.09,1.1,2.47,1.8,3.72.64,1.16,1.46,2.27,2.09,3.54.59,1.2.99,2.54,1.57,3.81.56,1.23,1.31,2.4,1.85,3.68.53,1.26,1.07,2.52,1.58,3.8.51,1.27.88,2.61,1.37,3.89.49,1.29.96,2.58,1.43,3.86.48,1.31.96,2.6,1.41,3.87.47,1.33,1.31,2.49,1.75,3.75.47,1.35.5,2.81.92,4.04.45,1.3.76,2.54,1.24,3.59.56,1.26,1.19,2.37,1.73,3.37.66,1.22,1.71,2.05,2.26,3.06.64,1.18.78,2.45,1.11,3.62.53,1.91,3.41,2.65,4.64,1.11.72-.89.84-2.23,1.44-3.22.6-.97,1.38-1.83,1.89-2.88.5-1.02,1.03-2.04,1.48-3.13.02-.06,0-.14.02-.2.64-1.94.75-1.91,1.39-3.85.64-1.94.76-1.91,1.4-3.85.64-1.94.42-2.02,1.06-3.96.64-1.94.74-1.91,1.38-3.86.64-1.94.77-1.9,1.41-3.84.64-1.94.26-2.07.91-4.02.64-1.94.85-1.87,1.49-3.82.64-1.94.73-1.91,1.37-3.86.64-1.95.71-1.92,1.36-3.86.64-1.94.79-1.89,1.44-3.84.64-1.95.45-2.01,1.09-3.95.64-1.95.77-1.9,1.41-3.85.64-1.94.67-1.93,1.31-3.88.64-1.94.15-2.11.84-4.04.71-1.72,2.2-2.65,3.73-3.09,1.51-.43,3.29-.51,4.86.34,1.85,1,1.88.95,3.73,1.95q1.85,1.01,3.71,2.01c1.85,1.01,1.72,1.26,3.57,2.26,1.85,1,1.87.97,3.72,1.98,1.85,1,1.74,1.22,3.59,2.22,1.85,1.01,2.11.52,3.96,1.52,1.85,1.01,1.63,1.41,3.49,2.42,1.85,1.01,2.01.71,3.87,1.69,1.79.94,1.83.86,3.63,1.77,1.81.91,1.78.96,3.59,1.87,1.8.91,1.73,1.07,3.54,1.98,1.8.91,1.76.99,3.57,1.9,1.81.91,1.69,1.15,3.5,2.06,1.81.91,1.93.66,3.74,1.57,1.8.91,1.74,1.03,3.55,1.95,1.8.91,2.03.44,3.84,1.35,1.8.91,1.52,1.49,3.32,2.41,1.8.91,1.78.97,3.58,1.88,1.23.62,2.59.97,3.87,1.41,1.27.43,2.7.35,4.04.66,1.29.3,2.51,1.11,3.88,1.36,1.98.36,3.3-1.98,2.18-3.68-1.25-1.91-1.14-1.98-2.39-3.89-1.25-1.91-1.27-1.89-2.57-3.77-1.05-1.53-.67-1.8-1.76-3.3-1.09-1.5-1.56-1.15-2.65-2.65-1.09-1.5-.73-1.76-1.82-3.27-1.09-1.5-1.01-1.55-2.08-3.06-1.14-1.6-1.53-1.32-2.64-2.93-1.12-1.61-.72-1.9-1.83-3.51-1.12-1.61-1.54-1.31-2.66-2.93-1.12-1.61-.76-1.87-1.87-3.48-1.12-1.61-1.24-1.53-2.35-3.15-1.12-1.61-1.07-1.65-2.18-3.26-1.11-1.61-1.39-1.42-2.5-3.04-1.12-1.61-.84-1.82-1.95-3.43-1.12-1.61-1.25-1.52-2.37-3.14-1.11-1.61-1.14-1.6-2.25-3.21-1.12-1.61-1.11-1.62-2.23-3.23-.53-.76-1-1.5-1.35-2.05-.25-.4.08-.91.54-.84.66.09,1.54.22,2.49.33,1.97.23,2.04-.32,4-.08,1.97.23,1.89.92,3.86,1.15,1.97.24,1.99.05,3.96.29,1.97.24,2.01-.09,3.98.15,1.97.23,1.98.17,3.95.41,1.97.24,1.96.34,3.93.57,1.97.23,1.98.17,3.95.41,1.97.23,1.97.24,3.94.48,1.97.24,1.95.38,3.92.61,1.97.23,1.94.47,3.91.71,1.97.24,1.99.08,3.95.32,1.97.24,1.93.55,3.9.8,2.06.25,2.11-.2,4.17.07,2.06.26,2.05.29,4.11.55,2.06.26,2.01.64,4.06.91,2.06.26,2.09,0,4.15.26,2.05.26,2.09-.02,4.15.24,2.05.26,2.03.44,4.09.71,2.06.26,2.03.51,4.08.77,2.06.26,2.1-.11,4.16.15,2.06.26,2.03.46,4.09.72,2.06.26,2.03.42,4.09.68,2.06.26,2.03.46,4.08.73,2.06.26,2.09.03,4.14.29,1.26.16,2.41-1.41,1.79-2.53M815.75,203.67c-.86,1.06-1.71,2.12-2.61,3.12-.9,1.01-1.85,1.99-2.79,2.95-.95.97-2.03,1.79-3.02,2.71-.99.93-1.94,1.89-2.97,2.76-1.03.88-2.01,1.82-3.08,2.65-1.07.83-2.21,1.57-3.31,2.34-1.11.77-2.28,1.44-3.42,2.16-1.15.72-2.3,1.41-3.47,2.07-1.18.66-2.39,1.25-3.6,1.84-1.21.6-2.39,1.26-3.62,1.79-1.24.53-2.48,1.07-3.74,1.53-1.27.46-2.57.79-3.86,1.19-1.28.4-2.56.83-3.86,1.16-1.3.32-2.65.48-3.97.73-1.32.25-2.62.59-3.96.77-1.33.18-2.67.28-4.01.38-1.34.1-2.68.29-4.03.31-1.34.03-2.68-.16-4.03-.21-1.33-.05-2.69.06-4.04-.07-1.33-.12-2.64-.5-3.98-.7-1.32-.2-2.66-.34-3.98-.62-1.31-.27-2.61-.62-3.91-.97-1.29-.34-2.57-.76-3.86-1.17-1.27-.42-2.55-.82-3.82-1.3-1.35-.52-2.65-1.14-3.95-1.73-1.32-.59-2.61-1.22-3.88-1.87-1.28-.66-2.63-1.2-3.87-1.92-1.25-.73-2.38-1.64-3.58-2.43-1.21-.79-2.41-1.58-3.58-2.42-1.16-.85-2.42-1.58-3.55-2.48-1.12-.89-2.24-1.82-3.33-2.77-1.09-.94-2.07-2.01-3.13-3-1.23-1.14-2.04-2.51-2.39-3.96-.36-1.49-.14-2.97.84-4.44.29-.43.69-.73,1.2-.75,2.07-.1,2.07-.11,4.14-.2,2.07-.1,2.07-.12,4.15-.22,2.07-.1,2.07-.04,4.15-.14,2.07-.1,2.07-.05,4.14-.15,2.07-.1,2.07-.13,4.15-.23,2.07-.1,2.07-.16,4.14-.25,2.07-.1,2.08.05,4.15-.04,2.07-.1,2.07-.21,4.14-.31s2.07-.06,4.14-.16c.94-.04,1.77.73,1.68,1.68-.13,1.43-.26,2.93-.02,4.44.22,1.39.78,2.77,1.4,4.22.51,1.2,1.07,2.36,1.78,3.41.72,1.07,1.62,2,2.52,2.89.92.9,1.87,1.74,2.94,2.44,1.07.7,2.2,1.29,3.39,1.74,1.18.45,2.41.75,3.68.94,1.24.19,2.49.2,3.78.13,1.4-.08,2.78-.15,4.07-.53,1.33-.39,2.56-1.05,3.75-1.71,1.2-.68,2.43-1.35,3.44-2.27,1.03-.92,1.88-2.04,2.68-3.17.8-1.12,1.5-2.32,2.04-3.61.53-1.26,1.02-2.58,1.27-3.97.23-1.34.14-2.75.08-4.17-.04-.89-.1-1.76-.26-2.6-.16-.86.52-1.76,1.38-1.8,2.06-.09,2.07,0,4.13-.1,2.06-.1,2.06-.18,4.12-.28,2.06-.1,2.06-.03,4.13-.13,2.06-.1,2.06-.04,4.13-.14,2.06-.09,2.06-.11,4.12-.21,2.07-.1,2.07-.04,4.13-.13,2.06-.1,2.06-.07,4.12-.16,2.06-.1,2.06-.15,4.12-.25,2.06-.09,2.07-.06,4.13-.15.56-.02,1.02.18,1.42.57.07.07.23.03.29.1.89.89,1.48,2.11,1.55,3.35.07,1.24-.33,2.55-1.14,3.53"/>
  <path class="cls-1" d="M2.07,201.85l.64,76.43c.02,1.92.43,3.68.76,5.28.49,1.44,1.44,2.23,2.87,2.38.16.16.63.24,1.42.23l44.86-.38c1.9-.02,4.42-1.24,4.72-3.17.3-1.61.45-2.65.45-3.13l-.19-23.31c0-.64-.25-1.44-.26-2.4-.81-2.4-2.25-3.66-4.31-3.81l-15.43.13c-3.48.03-6.49.13-9.97-.15-2.22.02-3.33-1.09-3.35-3.34l-.77-91.81c-.07-8.33-.22-17.06.02-25.72l-.02-2.89c-.01-1.12-.09-2-.26-2.65,0-.96-.18-2.24-.51-3.84-.49-1.6-1.52-2.63-3.11-3.1-.63,0-1.43-.23-2.38-.22l-10.68.09c-3.01.19-4.65,1.89-4.94,5.09-.15.64-.22,1.6-.21,2.89l.35,42.3c.1,11.86.43,23.23.53,35.09h-.23ZM95.18,208.26c0,.16.08.32.24.48v1.2c.02,1.6,3.22,14.38,1.64,14.55-.15.16-7.1.3-7.89.31h-.71c-1.42.02-2.14-.62-2.15-1.9v-.72c.29-2.57,3.86-27.1,4.46-30.95l.7-.73c.32,0,.48.16.48.48,1.63,5.44,2.55,10.87,3.23,17.28h0ZM91.31,114.07c-2.85.02-5.78.13-8.3.79-2.21.66-2.91,2.67-3.52,4.6-.59,5.46-1.82,9.79-1.78,13.96v1.68c.02.96-.13,1.92-.44,2.89-1.54,5.46-1.81,10.67-2.71,16.13-1.51,8.35-3.49,17.9-4.06,26.24.04,4.49-1.59,7.95-1.57,10.83,0,.96.09,1.68.25,2.16,0,.96-.38,2.16-.68,3.13-.63,1.29-.93,3.05-.91,5.29v1.44c.02.48-.14,1.04-.45,1.69-1.55,4.18-1.59,8.51-1.55,12.99-.3,2.24-.28,4.09-.9,6.01-1.54,4.82-2.05,9.63-2.96,14.45-1.8,12.51-3.59,24.87-5.39,37.06-.31,1.28-.46,2.17-.45,3.13l.03,3.12c.02,1.92,1.77,3.27,3.35,3.58,5.07.6,9.65.48,14.72.12.32,0,.39-.24.71-.25,1.58-.49,2.68-1.54,3.3-3.15.31-.64.14-1.52.45-2.17,1.2-7.38,2.25-15,3.14-22.38.89-7.06.32-8.66,4.44-8.69l11.39-.1c1.58-.01,3.88-.11,4.53,2.13.65,1.92.9,3.76,1.24,6,1.32,7.36,2.18,14.97,3.51,22.33l.74,2.88c.49,1.44,1.44,2.31,2.87,2.62,1.27.31,1.98.46,2.14.46l13.06-.11,1.42-.49c1.58-.33,3.07-2.19,3.05-4.11-1.52-10.88-3.27-21.37-5.25-31.44-1.32-6.72-1.93-13.52-3.25-19.92-2.63-11.2-3.67-22.65-5.98-33.85-2.32-12.16-3.6-23.84-6.24-36-.33-1.6-.5-2.88-.51-3.84-1.37-12.17-3.84-23.84-6.47-36-.02-1.92-1.15-4.48-3.36-4.78-2.54-.3-5.07-.12-7.6-.41h0ZM182.47,284.67c1.58-.01,2.93-.27,4.51-.28,1.58-.33,2.76-1.86,3.06-3.15.15-.48.22-1.28.21-2.4l-.02-2.4c.15-.8.22-1.92.21-3.37-.01-1.28-.26-2.08-.27-3.36-.01-1.44.06-2.57.21-3.37.3-1.61.21-2.81.2-4.09-.01-1.28-.19-3.93-.55-8.41-.19-3.36-2.02-5.11-5.5-5.24l-2.14.02c-2.21.34-3.95.27-6.17.29-3.17.03-6.73-.18-11.16-.14l-8.07.07c-1.27.01-1.9-.46-1.91-1.42v-.48c.3-.96.14-1.76.45-2.41,2.49-5.47,3.62-11.41,5.79-16.88,4.63-14.46,8.47-27.72,13.42-42.18,1.86-5.14,2.84-10.6,5.33-15.43.59-5.45,3.08-10.52,4.62-15.66.62-2.25,1.47-4.18,2.08-6.75.62-1.93.92-4.26.89-6.98l-.18-20.91c0-.64-.25-1.76-.26-2.41-.33-1.6-2.01-3.34-3.59-3.33-2.85-.3-5.7-.43-8.55-.41l-27.06.23c-3.8.03-7.59.3-11.39.34-2.53.02-3.95.43-5.2,2.69-.31,1.61-.45,2.65-.45,3.13l.2,24.03c0,.64.25,1.76.26,2.4.66,3.52,4.15,3.81,6.68,3.79l19.23-.17c1.11.31,1.67.95,1.68,1.91v.24c-.3,1.6-.37,2.57-.67,3.85-4.01,12.21-7.87,24.18-11.57,36.39-.62,1.61-1.24,3.46-1.86,5.07-1.52,8.03-4.46,15.42-6.93,23.14-1.55,4.5-2.85,9.24-4.4,13.74l-.93,2.65c-1.24,3.53-2.47,7.31-3.71,10.85-.62,1.45-.92,3.29-.9,5.54l.21,24.76c.05,5.45,1.8,6.96,7.18,6.91l47-.41ZM230.93,222.81c0,.16.08.32.24.48v1.2c.02,1.6-9.07.74-9.86.74h.32c-1.42.01-2.14-.63-2.15-1.91v-.72c.29-2.57,2.82-18.41,3.12-20.97.6-3.85.73-7.7,1.33-11.55l.71-.73c.32,0,.47.16.48.48,1.63,5.44,5.13,26.57,5.82,32.98h0ZM224.47,112.93c-2.85.02-5.77.13-8.3.79-2.21.66-2.91,2.67-3.52,4.6-.59,5.46-1.82,9.79-1.78,13.96v1.68c.02.96-.13,1.92-.44,2.89-1.54,5.46-1.81,10.67-2.71,16.13-1.51,8.35-3.49,17.9-4.06,26.24.04,4.49-1.59,7.94-1.57,10.83,0,.96.09,1.68.25,2.16,0,.96-.38,2.17-.68,3.13-.62,1.29-.93,3.05-.9,5.29v1.44c.02.48-.14,1.04-.45,1.69-1.55,4.18-1.59,8.5-1.55,12.99-.3,2.25-.28,4.09-.9,6.02-1.54,4.82-2.05,9.63-2.97,14.45-1.79,12.51-3.59,24.87-5.39,37.06-.31,1.28-.46,2.17-.45,3.13l.02,3.12c.02,1.92,1.77,3.27,3.35,3.58,5.07.6,9.66.48,14.72.12.32,0,.39-.24.71-.24,1.58-.5,2.68-1.54,3.3-3.15.31-.64.14-1.52.45-2.17,1.2-7.38,2.25-15,3.14-22.38.89-7.06.32-8.66,4.44-8.69l11.39-.1c1.58-.01,3.88-.11,4.53,2.13.65,1.92.9,3.76,1.24,6,1.32,7.36,2.18,14.97,3.51,22.33l.74,2.88c.49,1.44,1.44,2.31,2.87,2.62,1.27.31,1.98.46,2.14.46l13.06-.11,1.42-.49c1.58-.33,3.07-2.19,3.05-4.11-1.52-10.88-3.27-21.37-5.25-31.44-1.32-6.72-1.93-13.52-3.25-19.92-2.63-11.19-3.67-22.64-5.98-33.84-2.32-12.16-3.6-23.85-6.24-36-.33-1.6-.5-2.88-.51-3.84-1.37-12.17-3.84-23.84-6.47-36-.02-1.92-1.14-4.48-3.36-4.78-2.53-.3-5.07-.12-7.6-.41h0ZM299.08,150.29c1.14,3.84,1.82,18.62,1.85,22.63.04,4.33-.64,8.58-2.03,12.76-.15,1.12-1.01,2.01-2.59,2.67-1.26.65-2.53.66-3.79.99l-7.6.07c-.95,0-2.15-.94-2.15-1.9l-.33-38.99c-.01-1.6.77-2.41,2.35-2.42l7.36-.06c1.27-.01,2.14.06,2.61.22,1.74.3,2.94,1.18,3.58,2.61l.72,1.43ZM261.7,278.22c0,.8.09,1.44.25,1.92.02,2.08.98,3.12,2.87,3.1,5.39.6,8.32.65,9.26.64,1.9-.02,3.96-.19,6.17-.53,1.9-.34,2.84-1.39,2.82-3.15.3-1.61.45-2.49.44-4.09l-.14-16.34c-.37-6.73-.35-13.54-.4-19.95l-.17-19.71.45-2.41c0-.64.86-.73,1.18-.73.32,0,.55.07.72.23l.96.95h.24s.73,1.43.73,1.43c1.61,3.51,2.6,7.51,3.89,11.03,4.24,15.35,8.48,30.45,12.73,45.8,1.63,5.75,2.12,6.95,9.08,6.89l6.65-.06c2.21-.02,4.19-.2,6.4-.54,1.9-.33,3.3-2.35,3.29-3.63,0-.48-.09-.8-.24-.96-.66-2.88-1.31-5.52-1.97-8.4-2.93-10.23-5.71-20.7-8.33-30.94-2.61-9.27-4.75-18.47-9.25-27.08-.48-.79-.73-1.43-.73-1.92,0-.64.38-1.37,1.17-2.17,3.77-3.56,5.55-7.98,8.68-11.85.31-.65.62-1.21.93-2.17l2.04-11.56c1.81-10.59,1.52-17.08,1.5-19-.09-10.9-.82-22.19-5.02-32.4-2.6-7.67-6.37-14.53-14.62-16.7-2.86-.94-5.63-1.39-8.32-1.37l-30.15.26c-2.69.02-4.18,1.48-4.47,4.37l.02,2.4c.36,5.45.33,10.65.37,16.1.09,10.58-.08,18.83-.03,24.28.07,8.01.29,15.94.68,24.27l.02,2.4-.61,11.54h.24s.68,80.03.68,80.03Z"/>
  <path class="cls-1" d="M362.93,282.4c2.25-.03,3.92-1.74,4.53-3.67.15-.64.38-1.44.68-2.41,4.02-32.11,8.12-64.22,12.78-96.33,1.15-8.67,1.83-17.17,2.99-25.52.55-6.1,1.51-11.8,2.39-17.58v-.48c.3-.96.12-1.92.43-2.89l.23-.72c.31-.97.13-1.92.44-2.89v-.48c.3-.97.12-1.93.43-2.89l.24-.48c.3-1.29.12-2.17.43-3.13v-.48c.3-.97.12-1.93.43-2.89-.02-1.28.21-2.25.18-3.85-.04-2.57-1.6-4.79-4.18-4.75-2.58-.28-4.75-.17-7-.14l-7,.1c-2.25.03-3.91,1.98-4.53,3.91-.31.64-.13,1.76-.44,2.41-2.84,25.04-5.61,49.12-8.77,74.16-.29,2.25-.5,4.01-1.11,6.26l-.47.49c-.64.01-.97-.23-.98-.71,0-.48-.09-.8-.25-.96l-.02-1.44h-.24s-.02-1.44-.02-1.44c-.16-.16-.25-.48-.25-.96v-.24c-.17-.16-.25-.48-.26-.96v-.24c-.01-.48-.1-.8-.26-.96v-.24c-.34-1.28-.2-2.32-.54-3.6v-.24c-.17-.16-.25-.56-.26-1.2l-8.82-56.13c-.71-4.48-1.42-8.48-2.13-12.95-.53-2.88-2.16-4.3-4.89-4.26-2.26-.29-4.11-.18-6.04-.15l-6.52.09c-.64,0-.8.25-1.45.26-2.72.84-4.07,2.22-4.04,4.14v.72c.37,2.56.16,4.73.84,6.96,2.82,16.31,5.15,31.42,7.97,47.73,4.98,31.02,9.95,61.32,14.93,92.34.72,5.12,2.56,9.5,2.64,14.62.03,2.24,1.67,4.06,3.93,4.03.81.15,2.01.21,3.62.19l10.39-.14ZM392.78,276.7c.04,2.88,2.81,4.69,6.35,4.96,1.61-.02,2.74.2,4.35.18,2.25-.03,4.58-.14,6.49-1.78,1.43-.98,2.14-2.27,2.11-3.87,0-.64-.27-1.6-.29-2.88-.01-.8.13-2,.43-3.61.15-.48.22-1.28.21-2.41-.01-.64-.19-2-.55-4.56-.38-3.52-.34-6.65-.39-9.85-.05-3.2.09-9.86-.05-19.47-.04-2.56.65-4.66.61-7.22l-.02-1.2c-.03-1.92-.79-4.15-.83-6.72.29-2.25.66-3.86.65-4.82-.01-.8-.1-1.36-.26-1.68-.17-.64-.27-1.52-.28-2.64-.02-1.28.35-3.61.63-6.5-.04-2.88-1.04-5.19-1.08-7.43l-.02-1.2c.59-3.37.54-6.74-.15-10.09-.17-.64-.27-1.52-.28-2.64-.04-2.89,1.11-6.59,1.04-11.07-.36-2.56-.31-4.64-.35-7.21l-.11-6.97c-.03-2.24.01-4.41-.35-6.97-.17-.48-.26-1.28-.28-2.4-.02-1.6.9-4.18.85-7.71.15-.64.22-1.61.2-2.89-.03-1.92-.4-4.88-1.09-8.4.15-.48.22-1.37.2-2.65l-.04-2.4c-.02-1.28.05-2.16.2-2.65.3-1.29.45-2.25.44-2.89-.05-3.2-2.67-5.97-7.82-5.9h-.73c-2.25.04-4.11-.65-6.04-.63-1.45.02-2.57.44-3.36,1.25-1.91,1.15-2.85,3.17-2.8,6.05-.16,10.58-.16,21.24,0,31.49.08,5.13.56,20.91.95,46.86l.61,39.9c.2,13.46.31,25.96.84,39.41l.02,1.21ZM411.62,229.8c.73,5.76,1.49,13.28,3.21,20.63,3.44,15.3,10.83,33.98,29.49,33.72,26.15-.37,30.6-35.92,30.29-56.2-.16-10.26-1.8-22.81-5.8-32.37-4.02-12.04-10.91-16.49-21.12-23.26-2.27-1.57-4.3-2.42-6.58-3.99-1.95-1.41-3.59-3.15-4.91-5.22-1.33-2.87-2.02-5.58-2.05-8.14-.07-4.51,1.51-11.56,7.31-11.64,1.45-.02,2.83.84,4.15,2.59,1.16,2.23,2.01,4.94,2.54,8.13.69,3.2.9,6.24,1.59,9.11.83,2.07,2.06,3.1,3.67,3.07h.48c4.66-.23,9.32-.78,13.98-1.64,1.93-.35,2.96-1.32,3.1-2.93.3-1.61.44-2.81.43-3.61l-.02-1.2c-.76-7.36-1.26-14.25-2.99-21.59-3.43-13.45-11.6-27.96-27.46-27.74-23.84.34-28.48,32.28-28.2,50.88.28,18.28,5.59,39.8,22.01,49.93,3.57,1.87,6.66,3.91,10.23,6.11,4.39,2.66,6.7,6.47,6.93,11.44.35,1.6.53,2.8.55,4.08.08,5.45-.81,10.19-3.64,14.72-.95,1.29-3.41,3.17-5.02,3.19-.97.01-1.78-.29-2.43-.93-3.58-2.19-5.54-9.37-6.24-12.89-.71-4.48-1.42-8.71-2.13-13.19-.36-2.56-2.23-4.06-4.16-4.03-.48,0-.8.09-.96.25-4.49,1.03-9.23,1.89-13.71,3.56-1.44.34-2.31,1.48-2.6,3.4l.09,5.78ZM475.81,275.53c.04,2.88,2.81,4.69,6.35,4.96,1.61-.02,2.74.2,4.35.18,2.25-.03,4.59-.14,6.49-1.78,1.43-.98,2.14-2.27,2.11-3.87-.01-.64-.26-1.6-.29-2.88-.01-.8.13-2,.43-3.61.16-.48.22-1.28.2-2.41,0-.64-.19-2-.55-4.56-.37-3.52-.34-6.65-.39-9.85-.05-3.2.09-9.86-.06-19.47-.04-2.56.65-4.66.62-7.22l-.02-1.2c-.03-1.92-.79-4.16-.83-6.72.29-2.25.67-3.86.65-4.82-.01-.8-.1-1.36-.27-1.68-.17-.64-.26-1.52-.28-2.64-.02-1.28.35-3.61.63-6.5-.04-2.88-1.05-5.19-1.08-7.43l-.02-1.2c.6-3.37.54-6.74-.15-10.09-.17-.64-.26-1.52-.28-2.64-.04-2.88,1.1-6.58,1.04-11.07-.36-2.56-.31-4.65-.35-7.21l-.11-6.97c-.03-2.24.01-4.41-.35-6.97-.17-.48-.26-1.28-.28-2.4-.02-1.61.9-4.18.85-7.71.15-.64.22-1.61.2-2.89-.03-1.92-.4-4.88-1.09-8.4.15-.48.22-1.37.2-2.65l-.04-2.4c-.02-1.28.05-2.16.2-2.65.3-1.29.45-2.25.44-2.89-.05-3.2-2.67-5.97-7.82-5.9h-.72c-2.25.04-4.12-.65-6.05-.63-1.45.02-2.57.44-3.36,1.25-1.92,1.15-2.85,3.17-2.81,6.05-.16,10.58-.16,21.24,0,31.49.08,5.13.56,20.91.96,46.86l.61,39.9c.21,13.46.32,25.96.84,39.41l.02,1.21Z"/>
  <path class="cls-1" d="M574.45,276.72l10.14-.14c1.93-.03,3.91-1.98,4.53-3.91.3-1.61.44-2.97.41-4.58l-.43-28.12c-.08-5.13-.37-8.25-.39-9.85-.02-1.6-.13-3.44.17-5.05.3-1.61.2-2.73.17-4.33-.03-2.24-.32-5.05-.36-7.93l-.07-4.81c0-.32.23-.4.23-.72.16-.17.32-.25.48-.25l.49.47c.33.64.98,1.27.99,1.91,1.71,6.71,3.18,13.26,5.85,19.63l.78,3.6c.35,1.6.12,2.57.78,3.84,2.74,10.86,5.64,21.71,8.7,32.57.34,1.44.85,2.87,1.51,4.3.51,1.44,1.48,2.22,2.93,2.36,2.58.28,4.91.17,7.49.13,2.58-.04,4.67.01,7.24-.34,1.93-.03,3.51-2.05,3.81-3.66l-2.48-162.95c-.35-2.24-2.23-3.97-4.17-4.27-2.26-.29-4.11-.18-6.04-.15l-6.52.09c-1.93.35-3.75,2.22-4.04,4.14-.15.48-.22,1.13-.21,1.93l.03,1.92c-.27,3.21-.15,5.93-.1,9.13.07,4.49.4,10.17.5,16.58l.1,6.25c-.29,2.57-.17,4.89-.13,7.46l.31,20.67c.02.96.2,2.24.54,3.84,0,.32-.4.33-.71.97-.33-.32-.17-.4-.49-.71-1.64-1.9-1.84-4.22-2.51-6.45-5.46-20.44-10.6-40.64-16.38-61.07-.85-2.71-2.56-4.05-5.13-4.01-1.94-.29-3.87-.19-5.8-.16l-6.03.09-1.44.5c-1.92.83-2.87,1.88-2.85,3.16-.29,2.25-.42,4.01-.39,6.25l2.35,154.77c.02,1.28.11,2.16.28,2.64.35,1.6,1.33,2.79,2.95,3.56l2.9.68Z"/>
  <path class="cls-1" d="M544.62,191.08c-.21,10.29.08,21.2-2.06,31.82-1.22,6.44-2.83,13.44-7.29,18.63l-2.16,2.19c-1.28.66-2.33.75-2.65.75-.8,0-1.45-.22-1.94-.71-.98-1.27-2.2-2.06-3.18-3.33-7.71-10.01-9.34-34.17-9.48-47.12-.14-12.54.5-43.81,11.04-51.19.64-.65,1.52-.98,2.65-.99.64,0,2.26-.19,3.89,1.41,1.47,1.27,2.53,2.38,3.19,3.34,2.31,4.47,3.97,8.79,5,13.92,1.69,6.73,1.69,13.48,2.41,20.22.36,3.53.24,7.22.6,11.07h0ZM493.36,194.25c.26,23.6,3.61,61.41,20.01,79.3,5.22,5.09,11.29,7.6,18.23,7.53,12.26-.12,20.78-10.09,25.18-20.73,8.8-18.01,10.61-46.83,10.37-67.56-.28-25.25-5.06-89.09-37.77-88.76-33.03.33-35.37,61.35-36.07,84.44l.06,5.78Z"/>
</svg>