<svg xmlns="http://www.w3.org/2000/svg" width="161.248" height="48.924" viewBox="0 0 161.248 48.924">
  <g id="Group_1" data-name="Group 1" transform="translate(-801.247 -240.039)">
    <path id="Path_1" data-name="Path 1" d="M930.181,280.208c.069,0,.136,0,.2,0,.115,0,.224,0,.321-.011l19.026-1.638a4.338,4.338,0,0,0,3.041-1.578,4.39,4.39,0,0,0,.956-3.378,4.887,4.887,0,0,0-4.626-4.246,4.556,4.556,0,0,0-.53.012l-19.022,1.643a4.327,4.327,0,0,0-3.069,1.6,4.424,4.424,0,0,0-.93,3.353,4.888,4.888,0,0,0,4.633,4.242" transform="translate(-41.573 -9.809)" fill="#7b2881"/>
    <path id="Path_2" data-name="Path 2" d="M839.574,275.737a4.848,4.848,0,0,0-1.471.178,61.528,61.528,0,0,1-16.776,2.112c-3.84-.134-6.734-.85-8.373-2.078a4.306,4.306,0,0,1-1.708-3.739c-.4-11.272,16.86-18.327,23.546-20.094a4.649,4.649,0,0,0,2.9-2.243,4.862,4.862,0,0,0,.389-3.841,5.341,5.341,0,0,0-4.839-3.744,4.99,4.99,0,0,0-1.419.159c-1.281.339-31.327,8.473-30.567,29.641a14.806,14.806,0,0,0,5.965,11.764c3.424,2.549,8.271,3.951,14.4,4.161.56.019,1.122.026,1.68.026h0a73.169,73.169,0,0,0,17.867-2.495,4.636,4.636,0,0,0,2.871-2.264,4.9,4.9,0,0,0,.343-3.862,5.275,5.275,0,0,0-4.819-3.682" transform="translate(0 -0.751)" fill="#7b2881"/>
    <path id="Path_3" data-name="Path 3" d="M903.249,259.078l-.237-10.644a4.92,4.92,0,0,0-4.713-4.72l-.122,0a4.35,4.35,0,0,0-4.383,4.493l.258,11.609c-4.743.427-9.424.915-13.911,1.451l.074-16.379a4.93,4.93,0,0,0-4.652-4.844,4.31,4.31,0,0,0-4.572,4.367l-.078,18.059-.037,9.376-.056,12a4.873,4.873,0,0,0,4.672,4.841,4.345,4.345,0,0,0,4.546-4.364L880.1,270.6c4.724-.579,9.488-1.086,14.157-1.516l.449,15.152a4.921,4.921,0,0,0,4.714,4.727l.115,0a4.354,4.354,0,0,0,4.389-4.492l-.473-16.146Z" transform="translate(-23.275 0)" fill="#7b2881"/>
    <path id="Path_4" data-name="Path 4" d="M951.943,278.374h-.163l-17.317.546-.174-25.042,15.424-1.6a4.342,4.342,0,0,0,3.013-1.63,4.4,4.4,0,0,0,.894-3.392,4.886,4.886,0,0,0-4.7-4.165,4.267,4.267,0,0,0-.528.019l-18.815,1.954h-.007l-.17.017c-.045,0-.087.021-.132.026a4.872,4.872,0,0,0-4.285,4.243c-.009.069-.013.136-.017.2-.009.117-.013.223-.015.32l.254,34.064a4.289,4.289,0,0,0,1.357,3.134,5.123,5.123,0,0,0,3.317,1.194c.3.017.741.02.773.017l21.689-.691a4.362,4.362,0,0,0,4.251-4.738,4.895,4.895,0,0,0-4.65-4.472" transform="translate(-41.385 -1.02)" fill="#7b2881"/>
    <path id="Path_5" data-name="Path 5" d="M994.759,242.3a23.467,23.467,0,0,0-17.707,6.794,21.044,21.044,0,0,0-6.163,15.215c.176,12.6,11.154,23.222,24.488,23.679.3.013.6.017.894.017a23.43,23.43,0,0,0,16.814-6.806,21.064,21.064,0,0,0,6.161-15.228c-.169-12.594-11.158-23.214-24.487-23.671m11.631,31.946a14.9,14.9,0,0,1-11.135,4.185c-8.184-.281-14.927-6.474-15.027-13.811a11.878,11.878,0,0,1,3.521-8.58,14.893,14.893,0,0,1,10.551-4.2c.2,0,.391,0,.584.009,8.189.285,14.935,6.474,15.033,13.8a11.9,11.9,0,0,1-3.528,8.59" transform="translate(-56.753 -0.751)" fill="#7b2881"/>
    <path id="Path_6" data-name="Path 6" d="M868.458,272.292c-1.075.153-2.077.3-3.092.46a4.214,4.214,0,0,0-2.819,1.771,4.333,4.333,0,0,0-.662,3.388,4.788,4.788,0,0,0,4.459,3.783,5.1,5.1,0,0,0,1.005-.078l.065-.011c.2-.033.539-.085,1.008-.156" transform="translate(-20.253 -10.79)" fill="#7b2881"/>
  </g>
</svg>
